<?xml version="1.0" encoding="UTF-8" standalone="no"?>
<!-- Created with Inkscape (http://www.inkscape.org/) -->

<svg
   xmlns:dc="http://purl.org/dc/elements/1.1/"
   xmlns:cc="http://creativecommons.org/ns#"
   xmlns:rdf="http://www.w3.org/1999/02/22-rdf-syntax-ns#"
   xmlns:svg="http://www.w3.org/2000/svg"
   xmlns="http://www.w3.org/2000/svg"
   xmlns:sodipodi="http://sodipodi.sourceforge.net/DTD/sodipodi-0.dtd"
   xmlns:inkscape="http://www.inkscape.org/namespaces/inkscape"
   width="867.27972mm"
   height="590.75659mm"
   viewBox="0 0 867.27972 590.75659"
   version="1.1"
   id="svg8"
   sodipodi:docname="bg.svg"
   inkscape:version="0.92.5 (2060ec1f9f, 2020-04-08)">
  <defs
     id="defs2" />
  <sodipodi:namedview
     id="base"
     pagecolor="#ffffff"
     bordercolor="#666666"
     borderopacity="1.0"
     inkscape:pageopacity="0.0"
     inkscape:pageshadow="2"
     inkscape:zoom="0.14048115"
     inkscape:cx="1663.2561"
     inkscape:cy="1353.5572"
     inkscape:document-units="mm"
     inkscape:current-layer="layer1"
     showgrid="false"
     inkscape:window-width="1366"
     inkscape:window-height="712"
     inkscape:window-x="0"
     inkscape:window-y="0"
     inkscape:window-maximized="1" />
  <metadata
     id="metadata5">
    <rdf:RDF>
      <cc:Work
         rdf:about="">
        <dc:format>image/svg+xml</dc:format>
        <dc:type
           rdf:resource="http://purl.org/dc/dcmitype/StillImage" />
        <dc:title></dc:title>
      </cc:Work>
    </rdf:RDF>
  </metadata>
  <g
     inkscape:label="Layer 1"
     inkscape:groupmode="layer"
     id="layer1"
     transform="translate(443.64512,125.64992)">
    <path
       sodipodi:type="spiral"
       style="fill:none;fill-rule:evenodd;stroke:#00c200;stroke-width:4.26000023;stroke-miterlimit:4;stroke-dasharray:none;stroke-opacity:1"
       id="path2298"
       sodipodi:cx="-112.27029"
       sodipodi:cy="487.2438"
       sodipodi:expansion="1"
       sodipodi:revolution="0.98097497"
       sodipodi:radius="576.32629"
       sodipodi:argument="-6.1046882"
       sodipodi:t0="0"
       d="m -112.27029,487.2438 c 47.44106,8.55919 49.55127,68.29692 28.013674,101.10206 -13.134868,20.00647 -32.032494,34.41358 -54.091604,43.44022 C -267.9746,684.82953 -385.91253,553.50723 -401.35483,435.08794 -428.9775,223.26363 -232.36316,59.689163 -34.036494,53.616983 228.86053,45.567847 437.28808,269.17119 463.05458,521.20395"
       transform="matrix(1.3302568,0,0,1.191541,-96.364791,-55.530483)" />
    <path
       sodipodi:type="spiral"
       style="fill:none;fill-rule:evenodd;stroke:#0000cd;stroke-width:4.26;stroke-opacity:1;stroke-miterlimit:4;stroke-dasharray:none"
       id="path2304"
       sodipodi:cx="390.70465"
       sodipodi:cy="427.43848"
       sodipodi:expansion="1"
       sodipodi:revolution="1.01042"
       sodipodi:radius="523.08923"
       sodipodi:argument="-7.8076019"
       sodipodi:t0="0"
       d="m 390.70465,427.43848 c 3.25051,-70.03446 99.89784,-45.26122 129.28454,6.00048 61.38045,107.07109 -39.63903,225.3336 -141.2855,252.5686 C 196.882,734.72458 31.176922,581.97013 2.8510233,409.43703 -38.718372,156.23776 171.65228,-62.498211 414.70658,-89.699694 c 11.42694,-1.278848 22.8969,-2.172301 34.38383,-2.682423" />
    <path
       sodipodi:type="spiral"
       style="fill:none;fill-rule:evenodd;stroke:#f38d00;stroke-width:4.26000023;stroke-miterlimit:4;stroke-dasharray:none;stroke-opacity:1"
       id="path2312"
       sodipodi:cx="-861.76172"
       sodipodi:cy="444.38919"
       sodipodi:expansion="1"
       sodipodi:revolution="1.01042"
       sodipodi:radius="696.38739"
       sodipodi:argument="-6.2266493"
       sodipodi:t0="0"
       d="m -861.76172,444.38919 c 56.46171,3.19553 67.44455,72.4527 47.0482,113.72468 -12.43887,25.17003 -32.38701,44.64266 -56.78425,58.3015 -143.36603,80.26374 -299.43463,-55.81533 -334.31633,-191.49828 -62.3951,-242.70497 143.1965,-461.23098 373.26054,-496.60644 337.62822,-51.91491 625.97146,231.09407 658.89656,555.02275 1.54794,15.22916 2.58225,30.51038 3.10602,45.80901" />
    <path
       sodipodi:type="spiral"
       style="fill:none;fill-rule:evenodd;stroke:#f30000;stroke-width:4.26000023;stroke-miterlimit:4;stroke-dasharray:none;stroke-opacity:1"
       id="path2352"
       sodipodi:cx="-878.7124"
       sodipodi:cy="-175.25209"
       sodipodi:expansion="1"
       sodipodi:revolution="1.01042"
       sodipodi:radius="852.42682"
       sodipodi:argument="-5.2504001"
       sodipodi:t0="0"
       d="m -878.7124,-175.25209 c 35.47222,59.44442 -27.22578,118.06694 -83.0611,125.682418 -34.05159,4.644358 -67.4746,-2.232233 -98.0527,-17.606496 -180.0993,-90.551332 -149.4796,-341.030322 -35.038,-470.303572 203.32743,-229.67894 565.88005,-171.03524 759.49328,37.99988 286.313258,309.119 197.37916,791.09147 -111.03779,1048.68307 -14.38138,12.01141 -29.16772,23.53768 -44.32174,34.5582"
       transform="matrix(0.9082991,0,0,1.072792,-108.95843,49.841881)" />
    <path
       sodipodi:type="spiral"
       style="fill:none;fill-rule:evenodd;stroke:#fca300;stroke-width:4.26000023;stroke-miterlimit:4;stroke-dasharray:none;stroke-opacity:1"
       id="path2354"
       sodipodi:cx="520.65979"
       sodipodi:cy="-47.18034"
       sodipodi:expansion="1"
       sodipodi:revolution="0.98871017"
       sodipodi:radius="290.67688"
       sodipodi:argument="-8.7272682"
       sodipodi:t0="0"
       d="m 520.65979,-47.18034 c -33.89329,-28.403946 21.5662,-59.70099 47.20923,-56.33288 69.49102,9.127354 88.14038,95.4632403 65.45654,150.751333 C 592.74948,146.13554 466.71538,168.40805 379.03211,121.81831 257.82163,57.414181 225.92103,-100.04679 285.19948,-217.62532"
       transform="matrix(1.3655894,0,0,0.78009102,-102.08378,-75.044546)" />
  </g>
</svg>
