<?xml version="1.0"?>
<svg xmlns:rdf="http://www.w3.org/1999/02/22-rdf-syntax-ns#" xmlns="http://www.w3.org/2000/svg" xmlns:cc="http://creativecommons.org/ns#" xmlns:xlink="http://www.w3.org/1999/xlink" xmlns:dc="http://purl.org/dc/elements/1.1/" xmlns:svg="http://www.w3.org/2000/svg" id="svg2" viewBox="0 0 512 512" version="1.1">
  <defs id="defs4">
    <linearGradient id="linearGradient73433">
      <stop id="stop73435" stop-color="#ff0" offset="0"/>
      <stop id="stop73437" stop-color="#008000" offset="1"/>
    </linearGradient>
    <radialGradient id="radialGradient73427" gradientUnits="userSpaceOnUse" cy="252.07" cx="259.7" gradientTransform="matrix(.88431 .025624 -.023123 .79802 35.873 44.258)" r="174.74">
      <stop id="stop73423" offset="0"/>
      <stop id="stop73429" stop-color="#008000" offset=".88217"/>
      <stop id="stop73425" stop-color="#fff" offset="1"/>
    </radialGradient>
    <linearGradient id="linearGradient73431" x1="136.43" xlink:href="#linearGradient73433" gradientUnits="userSpaceOnUse" x2="334.29" y1="610.22" y2="606.65"/>
    <linearGradient id="linearGradient73439" x1="166.43" xlink:href="#linearGradient73433" gradientUnits="userSpaceOnUse" x2="61.429" y1="981.65" y2="805.22"/>
    <linearGradient id="linearGradient73441" x1="471.43" xlink:href="#linearGradient73433" gradientUnits="userSpaceOnUse" x2="360" y1="800.22" y2="981.65"/>
    <radialGradient id="radialGradient73466" gradientUnits="userSpaceOnUse" cy="58" cx="58.001" r="56.84">
      <stop id="stop73391" stop-color="#cf0" offset="0"/>
      <stop id="stop73393" stop-color="#0f0" offset=".6746"/>
      <stop id="stop73395" stop-color="#0a0" offset=".929"/>
    </radialGradient>
    <radialGradient id="radialGradient73468" gradientUnits="userSpaceOnUse" cy="76.42" cx="41.031" gradientTransform="matrix(2.0693 .39955 -.39955 2.0693 189.4 579.2)" r="57.328">
      <stop id="stop3589" stop-color="#fff" offset=".2485"/>
      <stop id="stop3591" stop-color="#C7ECFF" offset=".5207"/>
      <stop id="stop3593" stop-color="#7AC3FF" offset=".7515"/>
      <stop id="stop3595" stop-color="#63B8FF" offset=".858"/>
      <stop id="stop3597" stop-color="#8ACAFF" offset=".9527"/>
    </radialGradient>
    <radialGradient id="radialGradient73470" gradientUnits="userSpaceOnUse" cy="76.45" cx="41.099" gradientTransform="matrix(2.0693 .39955 -.39955 2.0693 189.4 579.2)" r="57.253">
      <stop id="stop3615" stop-color="#fff" offset=".2485"/>
      <stop id="stop3617" stop-color="#C7ECFF" offset=".5207"/>
      <stop id="stop3619" stop-color="#7AC3FF" offset=".7515"/>
      <stop id="stop3621" stop-color="#63B8FF" offset=".858"/>
      <stop id="stop3623" stop-color="#8ACAFF" offset=".9527"/>
    </radialGradient>
    <linearGradient id="linearGradient73472" x1="90.727" gradientUnits="userSpaceOnUse" y1="42.275" gradientTransform="matrix(2.1732 .40968 -.40968 2.1732 157.42 642.63)" x2="109.81" y2="42.275">
      <stop id="stop3717" stop-color="#fff" offset="0"/>
      <stop id="stop3719" stop-color="#fff" stop-opacity="0" offset="1"/>
    </linearGradient>
  </defs>
  <g id="layer1" transform="translate(0 -540.36)">
    <g id="g73474">
      <g id="g73443" transform="matrix(.91425 0 0 .91425 22.27 67.952)">
        <path id="path3338" d="m133.66 768.67c-13.102 69.503 32.786 136.71 102.28 149.81 69.503 13.102 136.7-32.781 149.81-102.28 13.11-69.5-32.78-136.71-102.28-149.81s-136.7 32.78-149.81 102.28z" fill="#008000"/>
        <circle id="circle3371" d="m 114.841,58 c 0,31.391865 -25.448135,56.84 -56.840001,56.84 C 26.609134,114.84 1.1609993,89.391865 1.1609993,58 1.1609993,26.608135 26.609134,1.1599998 58.000999,1.1599998 89.392865,1.1599998 114.841,26.608135 114.841,58 z" cy="58" transform="matrix(2.1732 .40968 -.40968 2.1732 157.42 642.63)" stroke="#b3ff80" cx="58.001" r="56.84" fill="url(#radialGradient73466)"/>
        <path id="path3395" d="m250.18 669.97c-0.0497 0.0241-5.3041 4.3922-5.2085 7.0005 0.10628 2.4685 3.8434 2.3179 3.8819 2.3048 0.45332-0.18455 0.88137-0.70024 1.2589-0.99585 4.7314-3.7778 8.3376-5.5374 8.7239-5.4624 1.5131 0.29428 2.1573-0.0542 6.4148-2.2857 1.6723-0.87291 3.571-1.1203 5.4076-1.5393-5.8606-0.51077-11.681-0.58852-17.435-0.28238-1.0543 0.32787-2.1065 0.68083-3.0438 1.2602z" fill="#fff"/>
        <path id="path3417" d="m268.43 672.3c-0.45287 0.31301-1.2961 0.89444-1.6941 1.6565-0.72303 1.3761-0.75686 2.9765-1.4746 4.3602 1.2938-0.51219 1.7841-0.5706 2.6266-0.44328 0.39397 0.0583 0.80934 0.12338 1.6074-0.27762 0.0583-0.0367 0.16278-0.0639 0.21086-0.11553 0.0191-0.0171 1.4926-2.4506 1.189-3.7051-0.22839-0.96128-1.0832-1.2732-2.4651-1.4752z" fill="#fff"/>
        <path id="path3441" d="m219.6 682.6c0.43578 0.30272 1.0128 0.704 1.449 1.0045 2.3711-1.6549 3.0294-1.6254 4.6455-1.5435 3.7066-4.2387 4.6551-5.1873 15.746-12.15-7.7696 1.1638-15.344 3.0599-22.661 5.6187-0.22447 0.29533-0.44206 0.61437-0.63997 0.9596 1.2978 0.70822 1.2978 0.70822 3.9663 0.0661-2.5892 2.9077-2.5603 4.1509-2.5056 6.0449z" fill="#fff"/>
        <path id="path3463" d="m272.01 684.29c-0.28754 0.39147-0.51406 0.6976-0.60199 0.9848-0.14004 0.46871 0.20279 0.67961 0.38187 0.7921 0.26002-0.6396 0.77291-1.128 1.0841-1.74 0.27257-0.53818 0.0963-0.79651-0.2606-1.0168-0.11238 0.27364-0.21776 0.47434-0.60335 0.97992z" fill="#fff"/>
        <path id="path3495" d="m352.09 849.56c2.1019-0.70417 2.1019-0.70417 5.6826-6.758-0.34066-0.1272-0.78902-0.27927-1.133-0.40035 0.31734-4.6684 0.51223-7.4806 8.0043-12.712 0.7675-7.581-3.4892-14.953-1.5336-22.593 2.8301-11.05 10.533-20.811 9.0084-33.019-2.9489 1.2693-3.3425 5.5181-7.2879 5.616-2.5879-3.4268 0.0792-4.1664 1.6734-4.6152 2.6203-0.73251 9.573-10.611 7.3188-23.746-0.63335-0.28147-0.63335-0.28147-5.5627-4.9328-1.8893 2.907-2.4069 3.5047-4.7207 4.4728-4.2041-5.8718-4.2041-5.8718-4.091-6.233 0.37104 0.0498 0.87304 0.10817 1.2535 0.15522 0.73712 0.91307 1.3768 1.8888 2.1977 2.739l12.098-3.1405c-14.774-34.431-44.77-61.649-83.197-71.719 0.24264 2.6045 0.19902 5.164-0.4667 7.1314-3.7944 11.235-1.4362 15.235 1.2208 16.6 0.98708-1.1056 1.1983-2.7874 2.789-3.4417-1.9661 4.2698-2.7141 6.3635-0.0429 11.296l-6.8409 6.8862c0.13559-0.8026 0.62101-1.4919 0.78269-2.2897 0.0965-0.4881 0.003-1.1494-0.068-1.6443-2.3067-1.5759-5.9312-5.0788-4.3128-10.87-2.1256-0.53122-1.6868-2.3815-0.98432-4.1261-0.0515 0.01-0.11735 0.0137-0.16033 0.0148-1.0557 0.15657-1.0557 0.15657-5.526 2.4419-0.5454 2.7981-0.12802 4.308 1.4811 7.7101 1.4893 3.1298 1.432 4.1025-0.29159 5.4744 0.28947-2.6459 0.10915-3.9695-0.77578-5.6621-2.3884-0.49751-2.5658 2.9865-4.9727 2.4316 0.81103 2.6936-0.84963 5.4501 0.37084 8.1444 0.97484 0.26024 1.5979-0.0368 2.3016-0.45056 1.0993-0.65021 1.7501-1.727 2.7218-2.5003 0.76663-0.60479 2.2882-0.60602 0.44765 2.4721-1.0782 1.8041-1.202 2.1746-1.2702 3.9801 2.7746-0.66741 5.2119-2.3031 8.0166-2.8681l-5.5987 5.6328c4.778 7.6385 4.778 7.6385 4.7195 8.2712-4.0205 0.22106-6.6396 0.31461-10.791 0.42087 0.0756 5.341-1.4684 10.642-0.14319 16.016 3.95-0.70692 7.7451 2.3806 11.736 0.65521 2.1371-0.92712 1.737-3.3768 3.0852-4.7745 1.9157-1.9726 6.7112-1.2914 6.4652-5.096-0.8897-0.0437-0.8897-0.0437-4.4026 3.1196-0.58387-0.24506-1.2802-0.81294-1.6078-1.3315 2.6005-1.0333 3.3891-2.316 5.4933-5.754 2.342-0.01 2.7074-2.5435 4.5482-3.2001 0.68861 2.567-1.1813 5.0253-0.2223 7.614 0.75862 2.0402 2.1552 2.3911 4.1009 2.8975 1.1042-1.3808 0.87697-1.8467-0.88317-5.4145 0.24525-0.41736 0.57181-0.96789 0.82927-1.3785 2.0726 2.173 6.8991 1.6269 6.9384 5.7166-1.0802 0.45346-2.2693 0.6254-3.3104 1.1583 0.46813 4.2019 4.2804 3.2463 5.2949 1.8286 1.5387-2.1337 1.6642-5.1751 4.523-6.4568 0.5022 3.3645 0.5022 3.3645 4.571 7.6624 2.6271-0.90005 4.4572-3.0035 6.8924-4.1985 1.3527 2.2309 2.4178 3.9822 6.403 1.6323 0.33393 0.69986 0.73456 1.6666 0.93145 2.4125 0.33813 0.14033 0.78345 0.32103 1.1255 0.46423 0.17762-0.0949 0.17762-0.0949 3.0396-1.8822 2.0773 7.6875-4.0067 10.117-18.093 7.2293-0.98846 5.0887-0.98846 5.0887-2.3796 6.1407-3.8326-2.9122-8.8516-3.172-12.951-5.4952 0.74073-2.1265 1.052-3.3123 0.005-6.9844-9.8529-1.7044-17.349 5.4003-26.577 6.0395-7.7919 9.2927-7.7919 9.2927-6.8793 11.411-6.0781 3.5081-7.0704 5.3576-13.52 17.404 2.0414 2.0996 2.3293 3.0316 0.79945 8.079-2.9228 9.5355 8.1265 17.321 13.013 20.216 12.234 7.2663 25.341-4.9583 37.584 2.2242-0.9484 2.9538 0.45989 6.2034-1.0976 9.0694 3.918 1.8503 15.811 7.486 4.9744 27.189 5.9011 7.8053 5.9011 7.8053 5.3695 12.642l5.9165 15.745c9.0475-2.2124 22.717-5.5677 25.967-20.769zm-48.48-148.8c-0.23969 0.48365-0.64939 1.2841-1.9215 1.4899-0.30961 0.0425-0.38632 0.044-0.62657 0.0527-0.85584-1.9661-0.31702-2.5442 0.37612-3.2844 0.7195-0.74884 1.2707-1.3448-0.017-3.7074 0.63929 0.19018 1.0676 0.83137 1.799 0.80723 0.60626-0.70942-0.43525-1.8217 0.62252-2.4189-0.47901-0.75417-0.47901-0.75417-2.4217-0.64332 0.2677-0.69218 0.60199-1.5699 0.022-3.3873-0.9277-2.97-2.8008-5.5802-3.7774-8.5413 1.2271-0.27731 0.85144-1.7231 0.33214-3.7316-0.45722-1.7763-0.33112-2.0991 0.0629-2.4096 1.034 2.263 1.1306 3.0036 0.68388 5.2418-0.034 0.19399-0.20389 0.46121-0.12125 0.64331 2.9227 6.2109 4.8872 6.8804 5.5359 7.104 0.002 0.34915-0.0138 0.81423-0.00046 1.1723 0.0984 4.3731 1.3599 8.556 2.1194 11.058-1.9378-0.89408-2.1919-0.37039-2.6678 0.55486zm52.97 72.158c-2.0608-2.5579-2.8299-5.7837-4.8467-8.3603-1.9322-2.4527-4.4618-4.4215-6.2516-6.9959-1.1025-1.6008-1.3572-2.0764-2.1803-3.7979 4.3847 0.36522 4.1096 6.5876 8.8728 6.4616 0.94056 4.5971 2.62 6.0141 4.5501 7.654 1.6621 1.4137 3.2373 2.7392 4.0332 6.4201-0.22314 0.0616-0.50481 0.1591-0.7252 0.19408-1.2794 0.20888-2.4421-0.32086-3.4522-1.5758z" fill="#fff"/>
        <path id="path3519" d="m146.47 742.68c11.508 7.845 11.508 7.845 7.7787 14.557-2.6153 0.0849-2.6153 0.0849-3.7434 2.5597 1.1074 2.1238 1.4138 2.6947 6.7126 2.8677-0.0707 1.1524 0.24134 2.719 0.59803 3.835-0.49165 0.84115-1.0577 1.9812-1.4688 2.8489 1.2456 1.2363 1.2456 1.2363 5.4546-0.12844 1.4998 2.8234 1.4998 2.8234 12.312 4.2518 4.8663 0.64056 4.8663 0.64056 6.7998 9.4959 0.4499 0.24013 1.0756 0.57414 1.5388 0.81449 0.25215-0.29899 0.58517-0.70433 0.83423-1.0107-1.4993-3.0417-1.5977-6.3999-2.6482-9.5416-0.83747-0.30858-1.8752-1.1074-2.2967-1.88-6.4979-1.0697-6.4979-1.0697-12.109-9.9476-0.39856 0.002-0.94331 0.003-1.3411-0.00084-1.9929-8.529-1.9929-8.529-1.5911-9.5739-0.44448-0.0778-1.0442-0.13165-1.4836-0.25936-13.039-3.7251 22.002-25.974 22.416-26.189-0.027-1.5151-0.027-1.5151 1.2558-3.7375 11.581 0.9432 12.523 1.0173 17.233-4.054-1.5048-1.3054-3.8617-1.1105-5.2237-2.6838 1.1401-2.1322 1.1401-2.1322 3.0218-3.2561 0.83799 0.28173 1.9198 0.76257 2.7023 1.1846 3.1516-3.7898 5.3514-3.1275 6.2874-2.852-1.5466 2.6655-5.0042 3.7443-6.1624 6.7486 7.0741 2.3709 7.0741 2.3709 7.7484 3.6998 3.7587-4.2762 4.1504-6.7002 1.6049-9.9932 1.7817-3.0533 2.2491-3.8136 4.1318-6.7331-2.9277-4.6926-2.9277-4.6926 2.4472-16.682-2.9529 0.46729-4.4302 4.3769-8.1562 3.0714 4.4726-4.3622 4.4726-4.3622 4.9502-5.4873-0.18035-0.34458-0.42885-0.80543-0.61395-1.1487 0.56266-0.85942 1.3066-2.0244 1.8618-2.8919-0.86521 0.0887-2.0599-0.0438-2.8891-0.30159-0.0948-0.41616-0.22025-0.97999-0.31306-1.407-0.77506 0.51779-1.9118 1.1047-2.8155 1.3618-0.3526-0.23077-0.81709-0.54788-1.1558-0.78044-0.37694 0.16072-0.86687 0.37212-1.2438 0.53286-0.13444 0.42702-0.33678 0.99874-0.48724 1.4272 0.37224 0.20971 0.86637 0.48957 1.2404 0.70187-9.2667 4.8199-14.752 13.577-22.65 19.814-0.38871-0.12278-0.89937-0.29113-1.2854-0.41557 0.10292-1.4772 0.13977-2.0306 4.513-6.4632-0.47343-1.1178-1.1031-2.6002-1.4111-4.2741-18.723 12.948-33.925 30.978-43.392 52.57 0.33536-0.22704 0.67505-0.45332 1.0386-0.65033z" fill="#fff"/>
        <path id="path3528" d="m138.06 797.29c-0.37548 0.21279-0.61537 0.60182-0.60452 1.0338 0.0487 1.7374-0.1205 2.4302-0.5877 3.8342-0.0999 0.30291-0.0797 0.62418 0.0682 0.90396 0.14746 0.2799 0.39354 0.49058 0.69682 0.577l4.1291 1.2082c0.34948 0.10409 0.78656 0.0532 1.0825-0.16727 0.29119-0.21964 0.52533-0.54239 0.52469-0.90932 0.007-1.7632-0.26564-2.8766-0.97631-3.9535-0.003-0.01-1.2034-1.2441-1.2034-1.2441-0.002-0.004-1.206-0.80119-1.206-0.80119l-0.70978-0.44887c-0.36638-0.22881-0.84201-0.24874-1.2135-0.0334z" fill="none"/>
        <path id="path3541" d="m142.07 803.73c0.0344 0.0107 0.0895 0.0256 0.13328 0.0455 0.007-1.5359-0.20568-2.431-0.78185-3.3137-0.11861-0.17084-0.38979-0.53487-0.94482-0.95674-0.5832-0.45207-1.2437-0.79253-1.8577-1.2122 0.0565 1.9438-0.16143 2.7782-0.64614 4.2395 1.3403 0.41026 2.7164 0.82267 4.0972 1.1978z" fill="#f9f9f9"/>
        <path id="path3573" d="m168.05 839.39 5.3463 23.987c0.55621 18.669 20.566 39.422 27.625 35.843-6.0757-3.488-7.3139-10.684-12.593-14.769 0.4787-0.33061 1.1079-0.76782 1.5801-1.0996 0.28101-2.1232 0.14753-4.2682 0.33037-6.3965 2.7712-1.6403 4.5278-1.4441 5.471-1.3496 0.10306-2.3256 0.10306-2.3256 0.62314-5.0608 4.9611-1.1397 4.544-7.236 8.9489-8.8878 0.19863-2.2715-0.60838-4.5323-0.13387-6.7991 2.9578-1.1617 2.9578-1.1617 9.8294-1.9547 2.6086-4.8012 4.0566-7.4448 3.5983-12.797-0.47122-5.5461 5.6545-6.5968 7.6914-10.43 2.9551-5.5528-6.6426-14.962-14.886-14.59-4.0742 0.18394-14.36-9.0375-14.464-9.1313 0.35488-0.5093 0.8213-1.1932 1.1722-1.7055-2.1806-6.9958-10.504-6.1658-14.689-10.612-2.098-2.2296-1.6463-5.1984-2.5872-7.7522-5.15 1.4979-8.6363-0.0169-12.871-5.597-2.4339 1.391-2.7481 1.5658-8.5566 1.4587-0.68035 3.2632-0.86056 3.6816-3.9461 5.402-0.89782-2.1856-0.89782-2.1856-6.1466-2.9455 1.1328-11.381 1.1328-11.381-3.8559-15.121 0.92772-3.023 2.9346-5.6467 3.4642-8.8145-3.5704-3.7539-6.6734 3.1326-10.464 3.541-0.004-0.0662-0.008-0.14298-0.0205-0.21534-0.49454 1.9906-0.9306 4.0058-1.3279 6.0419 0.7515 0.38249 1.5859 0.71972 2.624 0.94253-0.49901 7.5416 4.0003 6.2248 4.5218 6.0486 0.27093 1.5477 2.8601 15.043 9.9848 11.82 1.6056 6.1425-3.6627 10.357-4.5937 15.785-0.008 0.0618-0.75964 6.5721 1.5603 10.871 9.0805 16.832 9.0805 16.832 11.466 18.626 2.741 2.065 4.5226 3.9672 5.297 5.6614z" fill="#fff"/>
        <path id="path3586" d="m368.72 818.73c-0.37139 0.17984-0.69068 1.2404-0.3144 1.6962 0.27164 0.32572 0.72271 0.20147 0.8714-0.86195 0.0626-0.44959-0.1925-0.93645-0.55621-0.83403z" fill="#fff"/>
        <path id="path3599" d="m203.35 894.95c-1.1928-0.20253-2.3926-0.40386-3.5896-0.62051 1.179 2.2454 2.6227 3.3615 4.5382 3.5268-0.17573-0.54851-0.0555-1.1245-0.21544-1.6745-0.0321-0.0575-0.0503-0.12863-0.0763-0.19216-0.20858-0.42188-0.29876-0.54014-0.65688-1.0398z" fill="url(#radialGradient73468)"/>
        <path id="path3612" d="m375.45 812.96c0.0341-0.20736-0.005-0.64439-0.28483-0.53073-0.45612 0.24704-1.1702 1.4087-0.81597 1.8693 0.26271 0.33763 1.0092-0.75719 1.1008-1.3386z" fill="#fff"/>
        <path id="path3625" d="m385.04 798.22c-0.0562-0.27395-0.1085-0.54706-0.23321-0.8046-0.21007-0.44918-0.41816-0.36017-0.60805-0.2722 0.18389 1.4839 0.31802 2.7537 0.46725 4.2424 0.0625 0.0163 0.11615 0.005 0.17625 0.01 0.0688-1.0604 0.15689-2.1218 0.19778-3.1741z" fill="url(#radialGradient73470)"/>
        <path id="path3638" d="m378.69 832.05c-0.31538 0.19258-0.701 1.2474-0.46386 1.6612 0.0623 0.0878 0.14741 0.11333 0.23432 0.0939 0.18483-0.53905 0.36393-1.0836 0.54257-1.6238-0.0724-0.12848-0.17484-0.19505-0.3129-0.13108z" fill="#fff"/>
        <path id="path3651" d="m378.2 812.84c0.021-0.13799 0.0225-0.26361 0.0225-0.36717-0.45551 0.42269-1.0555 0.69212-1.4446 1.1927-0.31873 0.40117-0.38903 0.75025-0.39639 1.1832 0.44151-0.3961 0.99576-0.67425 1.4055-1.1168 0.16045-0.17002 0.364-0.46245 0.41347-0.89194z" fill="#fff"/>
        <path id="path3686" d="m372.39 822.39c0.0261-1.0707 0.0369-2.1782 0.0365-2.8534-0.86293 0.37514-1.6032 0.69689-2.0695 0.89037-0.0118 1.0194-0.0283 1.8467-0.0401 2.8527 0.64148-0.27521 1.3051-0.54845 1.9396-0.83391 0.0443-0.0213 0.0996-0.0394 0.13417-0.0554z" fill="#fff"/>
        <path id="path3699" d="m381.6 805.23c0.34373 0.88623 0.92479-0.14287 1.5018-1.2697 0.019-0.0461 0.0594-0.10123 0.0695-0.14438 0.0114-0.0766-0.13906-1.1244-0.92741-0.71492-0.53821 0.35987-0.93476 1.3654-0.64446 2.1289z" fill="#fff"/>
        <path id="path3712" d="m366.31 843.62c1.5393-0.85987 3.8179 1.1158 4.9841-0.85634 0.0307-0.057 5.3288-15.959 5.4973-16.794 1.2591-6.3676-0.50956-8.3034-1.3531-9.2365-1.3294 5.524-2.8055 7.827-6.2977 9.8422 0.12078 3.538-0.10433 5.4242-1.6181 9.6217-1.2445 3.4381-1.5262 4.6699-1.2125 7.4229z" fill="#fff"/>
        <path id="path3742" opacity=".8" fill-rule="evenodd" fill="url(#linearGradient73472)" d="m379.58 757.52c-18.546 20.604-33.025 31.944-46.333 35.52 14.549-3.221 29.816-11.51 48.326-28.544l-1.993-6.9763z"/>
      </g>
      <path id="path73147" fill="url(#radialGradient73427)" transform="translate(0 540.36)" d="m256.91 82.281c-78.96 1.226-148.84 57.719-164.04 138.34-17.364 92.14 43.24 180.92 135.38 198.29s180.91-43.24 198.28-135.38-43.23-180.91-135.37-198.28c-11.52-2.171-22.97-3.144-34.25-2.969zm0.53 33.029c9.08-0.14 18.31 0.63 27.59 2.38 74.21 13.99 123.05 85.5 109.06 159.72-13.99 74.21-85.5 123.02-159.71 109.03-74.22-13.99-123.03-85.48-109.04-159.69 12.24-64.93 68.5-110.45 132.1-111.44z"/>
      <path id="path73397" fill="url(#linearGradient73439)" d="m53.378 777.05-20.689 28.65-20.689 28.62h19.652c-4.053 81.37 56.911 153.04 157.3 153.04-74.52-19.97-123.62-56.03-114.73-153.04h20.538l-20.689-28.623-20.689-28.645z"/>
      <path id="path73402" fill="url(#linearGradient73431)" d="m376.57 630.15-14.463-32.24-14.444-32.229-9.8258 17.019c-68.44-44.194-160.99-27.233-211.19 59.705 54.552-54.552 110.33-79.048 189.9-22.84l-10.269 17.786 35.133-3.6058 35.152-3.5949z"/>
      <path id="path73404" fill="url(#linearGradient73441)" d="m338.05 989.89 35.152 3.5949 35.133 3.6058-9.8258-17.019c72.493-37.174 104.08-125.81 53.887-212.74 19.967 74.52 13.29 135.08-75.171 175.88l-10.269-17.786-14.444 32.229-14.463 32.24z"/>
    </g>
  </g>
  <metadata>
    <rdf:RDF>
      <cc:Work>
        <dc:format>image/svg+xml</dc:format>
        <dc:type rdf:resource="http://purl.org/dc/dcmitype/StillImage"/>
        <cc:license rdf:resource="http://creativecommons.org/licenses/publicdomain/"/>
        <dc:publisher>
          <cc:Agent rdf:about="http://openclipart.org/">
            <dc:title>Openclipart</dc:title>
          </cc:Agent>
        </dc:publisher>
        <dc:title>Ecology Recycle</dc:title>
        <dc:date>2012-05-20T20:26:24</dc:date>
        <dc:description>Just another eco draw</dc:description>
        <dc:source>http://openclipart.org/detail/170134/ecology-recycle-by-mrallowski</dc:source>
        <dc:creator>
          <cc:Agent>
            <dc:title>mrallowski</dc:title>
          </cc:Agent>
        </dc:creator>
        <dc:subject>
          <rdf:Bag>
            <rdf:li>clip art</rdf:li>
            <rdf:li>clipart</rdf:li>
            <rdf:li>earth</rdf:li>
            <rdf:li>ecology</rdf:li>
            <rdf:li>ecolog&#xC3;&#xAD;a</rdf:li>
            <rdf:li>natural</rdf:li>
            <rdf:li>reciclar</rdf:li>
            <rdf:li>recicle</rdf:li>
            <rdf:li>recycle</rdf:li>
            <rdf:li>save</rdf:li>
            <rdf:li>world</rdf:li>
          </rdf:Bag>
        </dc:subject>
      </cc:Work>
      <cc:License rdf:about="http://creativecommons.org/licenses/publicdomain/">
        <cc:permits rdf:resource="http://creativecommons.org/ns#Reproduction"/>
        <cc:permits rdf:resource="http://creativecommons.org/ns#Distribution"/>
        <cc:permits rdf:resource="http://creativecommons.org/ns#DerivativeWorks"/>
      </cc:License>
    </rdf:RDF>
  </metadata>
</svg>
