<?xml version="1.0"?>
<svg xmlns:rdf="http://www.w3.org/1999/02/22-rdf-syntax-ns#" xmlns="http://www.w3.org/2000/svg" xmlns:cc="http://web.resource.org/cc/" xmlns:xlink="http://www.w3.org/1999/xlink" xmlns:dc="http://purl.org/dc/elements/1.1/" xmlns:svg="http://www.w3.org/2000/svg" id="svg3313" viewBox="0 0 298.65 298.65" version="1.0">
  <defs id="defs3315">
    <radialGradient id="radialGradient3969" gradientUnits="userSpaceOnUse" cy="309.11" cx="298.67" gradientTransform="matrix(.24362 .87764 -1.1344 .31491 586.41 -25.658)" r="130.08">
      <stop id="stop3353" stop-color="#fff" stop-opacity=".86735" offset="0"/>
      <stop id="stop3355" stop-color="#fff" stop-opacity="0" offset="1"/>
    </radialGradient>
    <radialGradient id="radialGradient3976" spreadMethod="reflect" gradientUnits="userSpaceOnUse" cy="249.47" cx="317.86" gradientTransform="matrix(.92255 .54994 -.61282 1.0614 218.04 -49.879)" r="141.81">
      <stop id="stop6694" stop-color="#b8ff71" offset="0"/>
      <stop id="stop6700" stop-color="#6c0" offset="1"/>
    </radialGradient>
    <radialGradient id="radialGradient3979" gradientUnits="userSpaceOnUse" cy="315.41" cx="298.1" gradientTransform="matrix(1.131 0 0 1.1312 -22.1 -17.655)" r="149.3">
      <stop id="stop3366" stop-color="#007fff" offset="0"/>
      <stop id="stop3413" stop-color="#1c8eff" offset=".39286"/>
      <stop id="stop3368" stop-color="#1a4a7a" offset="1"/>
    </radialGradient>
  </defs>
  <g id="layer1" transform="translate(-212.19 -266.24)">
    <g id="g7821">
      <path id="path6109" d="m361.52 266.24c-26.48 0-51.31 6.97-72.88 19.08-0.01 0.01-0.04-0.01-0.05 0-13.96 7.84-26.45 17.93-37.17 29.67-24.27 26.56-39.23 61.79-39.23 100.58 0 82.43 66.92 149.32 149.33 149.32 2.6 0 5.11-0.25 7.68-0.38 4.12-0.21 8.18-0.54 12.2-1.08 37.34-5 70.32-23.7 93.63-51.02 22.26-26.08 35.77-59.89 35.77-96.84 0-18.87-3.61-36.83-10-53.45-3.13-8.15-7-15.96-11.45-23.35-19.28-32.03-50.15-56.2-86.87-66.69-13.04-3.72-26.73-5.84-40.96-5.84z" fill="url(#radialGradient3979)"/>
      <path id="path6111" d="m340.38 270.95c-0.54 0-1.39 0.09-1.75 0.58-0.36 0.47-0.69 1.08-1.08 1.46-0.22 0.23-0.46 0.88-1.07 0.88-0.34 0-1.5-0.19-1.75 0-0.46 0.34-1.12 0.68-1.26 1.26-0.19 0.76-0.83 0.63-1.37 1.17-0.3 0.3-1.01 0.86-1.46 0.97-0.58 0.15-1.1 0.3-1.75 0.3-0.49 0-1.18-0.12-1.65 0-0.78 0.19-1.19 0.9-1.85 1.07-0.61 0.15-0.88 0.39-1.17 0.78-0.38 0.49-1.24 0.77-1.85 0.77-0.93 0-0.98 0.18-1.66 0.69-0.48 0.36-1.33 0.48-1.94 0.48-0.83 0-2 0.03-2.73 0.39-0.49 0.25-1.15 0.34-1.36 0.88-0.34 0.85-0.63 0.95-1.46 1.36-0.49 0.24-1.55 0.58-1.95 0.98-0.3 0.3-0.47 1.38-0.88 1.46 0.03 0.01 0.64 0.55 0.78 0.58 0.6 0.15 1.38 0.1 2.05 0.1 0.8 0 1.51 0.1 2.33 0.1 0.71 0 1.14-0.49 1.76-0.49 0.82 0 1.65 0 2.43 0.19 0.65 0.17 1.26 0.39 1.95 0.39 0.72 0 1.13-0.04 1.75-0.19 0.79-0.2 1.26-0.16 1.65-0.68 0.35-0.47 0.64-0.75 1.07-1.07 0.35-0.26 1.66-1.66 1.95-1.66 0.73 0 1.26-0.22 1.95-0.39 0.47-0.12 0.49-1.26 0.97-1.17 0.28 0.06 0.86 0.76 1.17 0.68 0.27-0.06 0.6-0.14 0.88-0.09 0.27 0.04 0.5 0.25 0.58 0.58 0.16 0.65 0.35 0.63 0.68 1.07 0.16 0.22 0.97 1.18 0.88 1.56-0.12 0.46-0.23 1.24-0.1 1.75 0.13 0.52 0.15 1.09 0.39 1.56 0.16 0.32 0.6 1.05 0.68 1.36 0.15 0.61 0.49 0.6 0.78 1.17 0.34 0.69 0.17 0.98-0.1 1.66-0.23 0.57-0.56 1.24-0.39 1.94 0.04 0.15 0.06 0.34 0.1 0.49 0.11 0.44 0.17 0.67 0.29 0.78s0.29 0.1 0.78 0.1c0.58 0 1.37 0 1.66 0.29 0.39 0.39 0.78 0.61 0.78 1.17 0 0.4-0.23 1.47-0.59 1.65-0.26 0.13-1.07 0.84-1.07 1.27 0 0.54 0.1 1.15 0.1 1.65 0 0.11-0.03 0.29 0 0.39 0.16 0.65 0.3 1.48 0.58 2.05 0.23 0.45 0.73 0.84 0.98 1.46 0.21 0.54 0.23 1.35 0.48 1.85 0.28 0.55 0.55 1 0.78 1.46 0.27 0.54 0.44 1.6 0.88 2.04 0.51 0.52 0.72 0.87 1.17 1.46 0.38 0.51 0.86 1.16 1.26 1.56 0.36 0.36 0.72 0.82 1.17 1.27 0.93 0.93 1.49 1.47 2.63 2.04 0.58 0.29 1.26 0.58 1.85 0.88 0.67 0.33 1.23 0.78 1.75 1.17 0.59 0.44 1.21 1.08 2.04 0.87 0.73-0.18 1.85-0.04 2.54-0.39 0.22-0.11 0.47-0.18 0.68-0.39 0.2-0.2 0.38-0.5 0.19-0.87-0.15-0.31-0.48-0.8-0.48-1.27 0-0.8-0.2-1.51-0.2-2.33 0-0.59-0.03-1.03 0.1-1.56 0.1-0.42 0.13-1.02 0-1.56-0.17-0.66-0.03-1.29-0.2-1.95-0.13-0.54-0.09-1.24-0.09-1.85 0-0.57-0.04-1.04 0.09-1.56 0.16-0.61 0.1-1.24 0.1-1.85 0-0.51-0.09-1.09 0.1-1.46s0.43-1.28 0.97-1.46c0.46-0.15 2.05-0.49 2.05-1.07 0-0.64-0.07-1.12-0.2-1.65-0.15-0.62-0.56-1.22-0.19-1.95 0.41-0.83 1.23-1.06 1.75-1.75 0.29-0.4 0.81-0.81 1.26-1.27 0.35-0.34 1.1-0.64 1.27-0.97 0.21-0.43 0.49-1.06 0.49-1.56 0-0.35 0.15-1.58-0.2-1.75-0.5-0.25-1.07-0.17-1.07-0.78 0-0.41 0.44-1.36 0.29-1.66-0.23-0.47-0.5-0.88-1.26-1.07-0.61-0.15-1.44-0.26-2.05-0.39-0.37-0.07-1.21-0.18-1.36-0.48-0.17-0.35-0.34-1.29-0.68-1.46-0.55-0.28-1.18-0.3-1.85-0.3-0.17 0-2.27-0.5-1.56-0.68s0.69-0.3 0.97-0.87c0.17-0.33 0.49-0.88 0.2-1.27-0.41-0.54-0.96-0.77-1.36-1.17-0.54-0.53-1.77-0.78-2.53-0.78-0.11 0-0.19 0.03-0.3 0-0.43-0.1-0.83-0.54-1.16-0.87-0.5-0.5-1.4-0.72-2.05-0.88-0.49-0.12-0.79-0.54-1.36-0.68s-1.17-0.15-1.75-0.29c-0.77-0.19-1.59-0.34-2.34-0.49-0.28-0.06-2.26-0.2-2.14-0.68 0.07-0.29 0.45-0.98 0.87-0.98 0.59 0 1.28 0.12 1.85 0 0.75-0.14 1.52-0.29 2.34-0.29 0.75 0 1.51 0.05 2.24 0.2 0.91 0.18 1.92 0.06 2.82 0.29 0.71 0.18 1.8 0.29 2.53 0.29 1.04 0 2.25-0.1 3.31-0.1 1.63 0 3.08-0.39 4.68-0.39 0.92 0 1.24-0.56 1.94-0.68 0.36-0.06 0.66-0.16 0.78-0.29s0.02-0.26-0.49-0.39c-0.61-0.15-1.31 0.06-1.94-0.1-0.48-0.11-1.23-0.29-1.75-0.29-0.76 0-1.4-0.1-2.15-0.1-0.53 0-1.01 0.16-1.55 0.3-0.72 0.17-1.4 0-2.15 0h-2.33c-1.05 0-2.15-0.2-3.12-0.2-0.63 0-1.25-0.1-1.75-0.1-0.99 0-2.15 0-2.92-0.38-0.72-0.37-1.24-0.58-2.04-0.78-0.37-0.1-1.23-1.07-1.56-1.07zm62.11 1.16c-1.22 0.26-2.48 0.4-3.6 0.69-1.42 0.35-2.3 1-3.61 0.68-0.91-0.23-1.77-0.3-2.72-0.49 0.31 0.31 0.16 0.71-0.1 1.07s-0.68 0.63-0.88 0.78c-0.02 0.02-2.24 0.27-2.33 0.29-0.53 0.13-0.32 0.49 0 0.88s0.81 0.74 0.97 0.78c1.21 0.3 2.72 1.02 3.8 1.55 0.46 0.24 0.68 0.42 0.78 0.69s0.09 0.64 0.19 1.07c0.21 0.84 0.33 1.09 1.07 1.46 0.65 0.32 2.1 0.39 2.83 0.39 1.17 0 2.91 0.58 3.79 0.87 0.74 0.25 1.85 1.07 2.34 1.56 0.51 0.51 1 0.82 1.56 1.56 0.64 0.86 1.29 1.33 2.14 1.75 0.73 0.37 1.88 0.36 2.33 0.59 0.84 0.41 1.86 1.07 2.44 1.65 0.68 0.69 1.23 1.33 1.75 1.85 0.68 0.68 0.84 1.43 1.66 2.05 0.83 0.62 1.5 1.11 2.14 1.75 0.74 0.74 1.39 1.1 2.04 1.75 0.51 0.51 1.02 1.25 1.85 1.46 1.14 0.29 1.86-0.44 2.83-0.68 0.47-0.12 2.18 1.66 2.43 1.85 0.57 0.43 1.13 1.28 1.36 1.75 0.27 0.54 1.17 1.27 1.56 1.66 0.75 0.75 0.93 0.9 1.85 1.36 0.38 0.19 0.81 0.22 1.17 0.1s0.61-0.39 0.68-0.68c0.2-0.82 0.51-1.25 0.29-2.15-0.13-0.52-0.05-1.12 0.2-1.55 0.24-0.43 0.64-0.66 1.36-0.3 0.51 0.26 0.84 1.1 1.07 1.56 0.32 0.65 0.78 1.51 0.78 2.44v2.24c0 0.35 4.09 2.63 4.18 2.72 0.53 0.53 1.24 0.86 1.85 1.27 0.68 0.45 1.12 0.9 2.05 1.36 0.52 0.26 0.81 0.75 0.97 1.27 0.17 0.51 0.21 1.03 0.1 1.46-0.12 0.48 0.29 1.58 0.1 2.33-0.15 0.59-0.26 1.06-0.2 1.37s0.31 0.44 0.98 0.78c0.96 0.48 1.32 1.24 2.33 1.85 0.53 0.31 0.95 4.03 1.27 4.67 0.37 0.74 0.78 1.74 0.58 2.53-0.21 0.87-0.58 1.51-0.58 2.44 0 0.66-0.52 1.59-0.68 2.23-0.16 0.62-0.45 1.28-0.59 1.76-0.13 0.48-0.11 0.79 0.59 1.07 0.9 0.36 2.38 0.78 3.31 0.78h2.92c0.46 0 0.93 0.93 1.36 1.94 0.43 1.02 0.79 2.11 0.88 2.54 0.18 0.9 0.41 1.29 0.97 1.85 0.73 0.73 1.8 1.36 2.04 2.33 0.28 1.12 0.67 1.4 0.2 2.34-0.23 0.46-1.83 0.82-2.34 1.07-0.73 0.37-1.96 0.5-3.02 0.78-0.53 0.14-1.01 0.34-1.36 0.58s-0.58 0.56-0.58 0.98c0 0.95 0.38 1.35 0.78 2.14 0.43 0.86 0.82 1.52 1.36 2.24 0.09 0.11 0.19 0.29 0.29 0.39 0.59 0.59 0.53 1.52 1.07 2.24 0.75 0.99 1.11 1.83 1.66 2.92 0.52 1.05 1.7 1.85 2.33 3.11 0.36 0.71 0.98 2.05 0.98 3.02 0 0.77 0.4 1.52 0.58 2.24 0.14 0.56 0.7 1.09 1.27 1.46 0.56 0.37 1.14 0.65 1.65 0.78 0.91 0.23 1.97 0.1 2.92 0.1 1.01 0 1.63-0.29 2.53-0.29 0.52 0 1.26-1.36 1.56-1.76 0.65-0.86 1.03-1.39 1.27-2.33 0.12-0.51 0.26-1.02 0.29-1.56s-0.07-1.05-0.49-1.46c-0.35-0.36-0.41-0.71-0.39-1.07 0.03-0.37 0.14-0.73 0.39-1.07 0.14-0.19 0.2-2.52 0.2-2.63 0-0.1-1.24-1.65-1.46-1.95-0.55-0.73-0.69-1.66-1.08-2.43-0.41-0.84-0.48-1.57-0.48-2.63v-2.44c0-1.11-0.51-1.48-1.07-2.04-0.59-0.59-0.57-1.1-0.78-1.95-0.15-0.58-0.08-0.92 0.1-1.17 0.17-0.24 0.51-0.41 0.87-0.68 0.6-0.45 0.78-1.4 0.78-2.14 0-0.54-0.17-1.08-0.19-1.46-0.03-0.38 0.05-0.67 0.48-0.78 0.4-0.1 0.84 0.23 1.17 0.58 0.33 0.36 0.55 0.8 0.68 0.98 0.51 0.67 0.61 1.06 1.27 1.56 0.88 0.66 2.16 0.98 2.92 1.36 0.8 0.4 1.53 0.81 2.14 1.26 0.75 0.57 1.38 1.09 1.85 1.56 0.45 0.45 0.58 1.32 0.97 1.85 0.42 0.56 0.88 0.69 1.37 1.17 0.52 0.52 0.81 1.53 1.07 2.05 0.28 0.56 0.48 0.78 0.68 0.77 0.2 0 0.45-0.27 0.87-0.48 0.27-0.14-0.41-2.16-0.48-2.44-0.19-0.76-1.27-1.84-1.56-2.43-0.31-0.63-0.21-0.9 0-0.88s0.56 0.27 0.78 0.49c0.64 0.64 1.26 0.86 1.75 1.85 0.22 0.43 1.03 1.03 1.46 1.46 0.64 0.64 0.55 1.21 0.78 2.14 0.08 0.33 0.29 0.41 0.49 0.39s0.44-0.18 0.68-0.39c0.47-0.41 0.95-1.03 1.07-1.26 0.29-0.59 0.38-1.24 0.58-1.85 0.27-0.81 0.14-1.5-0.09-2.15-0.24-0.64-0.63-1.22-0.88-1.85-0.22-0.55-0.57-1.04-0.88-1.55-0.93-1.56-1.71-3.04-2.53-4.68-0.04-0.08-0.06-0.11-0.09-0.19-19.28-32.04-50.11-56.21-86.84-66.7zm-95.02 12.86c-0.49 0-1.27 0.92-1.55 1.07-0.63 0.31-1.29 1.03-1.85 1.46-0.6 0.44-1.1 0.84-1.66 1.26-0.64 0.49-1.07 0.59-2.04 0.59-0.93 0-0.95 0.42-1.66 0.78-0.83 0.41-1.6 1.73-1.95 2.43-0.32 0.66-0.8 1.48-1.16 1.85-0.45 0.45-1.24 0.72-1.76 0.97-0.61 0.31-0.39 1.52-0.39 2.15 0 0.42-1.64 0.48-1.75 0.48-0.22 0-1.51-1.9-1.65-2.04-0.69-0.69-0.33-0.81-1.37-1.07-0.55-0.14-1.01-0.1-1.26-0.2s-0.39-0.38-0.39-1.07c0-0.75 0.9-1.09 1.27-1.46 0.44-0.44 1.32-0.76 1.75-0.97 0.62-0.32 0.89-0.89 1.36-1.37 0.59-0.58 0.68-1.26 0.68-2.14 0-0.27-1.38-0.84-1.65-0.97-0.62-0.31-1.01-0.99-1.76-1.36-0.01 0-0.08-0.01-0.09 0-13.96 7.84-26.47 17.85-37.19 29.59-0.12 0.61-0.18 1.33-0.39 1.76-0.41 0.81-0.98 0.98-1.56 1.55-0.43 0.44-0.66 1.24-0.97 1.66-0.45 0.6-1.14 0.85-1.66 1.36-0.5 0.5-0.48 1.65-0.48 2.34 0 0.66 0.29 0.9 0.58 0.88 0.29-0.03 0.55-0.32 0.78-0.78 0.28-0.57 1.71-1.45 2.24-1.85 0.73-0.55 1.76-0.9 2.14-1.66 0.34-0.68 0.67-1.11 0.88-1.95 0.28-1.11 0.89-1.59 1.46-2.72 0.2 0.63 0.53 1.41 1.17 2.04 0.29 0.29 0.42 0.72 0.38 1.07-0.03 0.36-0.25 0.7-0.38 0.98-0.22 0.44-1.11 1.1-1.56 1.56-0.56 0.55-0.86 0.54-1.17 1.16-0.34 0.67-0.89 0.84-1.07 1.56-0.17 0.67-0.51 1.18-0.68 1.85-0.24 0.96-0.08 1.54-0.78 2.24-0.48 0.47-0.74 1.41-0.88 1.95-0.24 0.96-0.67 1.21-1.26 1.65-0.65 0.49-0.89 1.5-1.07 2.24-0.25 0.98-1.41 2.03-1.85 2.92-0.39 0.77-0.69 0.88-1.08 1.66-0.26 0.54-0.3 1.43-0.48 2.14-0.2 0.79-0.64 1.54-1.17 2.24-0.09 0.12-0.29 0.19-0.39 0.29-0.52 0.52-0.88 1.72-0.88 2.44 0 0.66-0.89 1.83-1.07 2.53-0.23 0.95-0.42 1.72-0.78 2.43-0.43 0.88-0.85 1.23-1.26 2.05-0.45 0.9-0.72 1.43-1.07 2.14-0.29 0.57-0.29 1.4-0.29 2.14 0 0.66-0.23 1.69-0.39 2.34-0.18 0.71 0 1.7 0 2.43 0 0.96-0.34 1.51-0.88 2.05-0.63 0.62-1.03 0.99-1.26 1.94-0.16 0.61-0.56 1.4-0.88 2.05-0.43 0.85-0.48 1.35-1.07 2.14-0.45 0.6-0.77 1.52-0.98 2.34-0.21 0.87-0.28 1.55-0.68 2.33-0.39 0.8-0.48 1.35-0.68 2.15-0.19 0.77-0.52 1.33-0.78 1.85-0.37 0.75-0.39 1.55-0.58 2.33-0.21 0.85-0.29 1.88-0.29 2.73 0 0.75-0.39 1.66-0.39 2.53 0 0.9-0.1 1.64-0.29 2.43-0.2 0.77-0.1 1.59-0.1 2.44 0 1.21-0.29 2.37-0.29 3.6 0 0.95 0.37 1.11 0.58 1.95 0.18 0.74 0.11 1.61 0.29 2.34 0.09 0.35 0.2 0.64 0.2 1.07 0.29 1.17 1.07 1.52 1.07 2.72 0 0.95 0.1 1.37 0.29 2.14 0.19 0.76 0 1.76 0 2.54s-0.3 1.79-0.49 2.53c-0.02 0.1 0 0.19 0 0.29 0 0.93-0.29 1.92-0.29 2.92 0 0.29 0.58 1.64 0.78 2.05 0.38 0.75 0.58 1.83 0.78 2.62 0.29 1.18 0.62 2.2 1.07 3.31 0.35 0.89 0.4 1.58 0.78 2.54 0.25 0.62-0.04 1.79 0.1 2.33 0.18 0.76 0.19 1.65 0.19 2.44 0 0.88 0.19 1.59 0.19 2.43s0.11 1.59 0.3 2.34c0.22 0.89 0.09 1.56 0.39 2.14 0.49 0.99 0.95 1.2 1.16 2.04 0.22 0.85 0.51 1.62 0.69 2.34 0.21 0.84 1.06 1.55 1.26 2.34 0.27 1.09 1.26 2.05 1.75 3.21 0.31 0.72 0.32 1.6 0.59 2.14 0.26 0.52 1.45 0.97 1.85 1.27 0.37 0.28 0.37 0.59 0.48 0.88 0.12 0.28 0.32 0.54 0.88 0.68 0.67 0.16 1.11 0.83 1.56 1.16 0.59 0.45-0.31-1.42-0.49-2.14-0.2-0.81-1.01-1.65-1.36-2.24-0.33-0.54-0.05-1.84-0.29-2.33-0.41-0.81-0.77-1.49-0.98-2.34-0.22-0.9-0.65-1.73-0.87-2.63-0.23-0.91-0.58-1.54-0.98-2.34-0.47-0.95-1.07-1.3-1.07-2.43 0-0.73-0.55-1.99-0.87-2.63-0.34-0.67-0.2-2.03-0.2-2.82 0-0.78-0.29-1.42-0.29-2.24 0-0.97-0.26-1.93-0.49-2.83-0.2-0.82-0.48-1.55-0.48-2.43 0-0.65 0.17-0.87 0.29-0.78s0.19 0.52 0.19 1.07c0 0.61 0.82 1.24 0.98 1.85 0.21 0.86 0.36 1.75 0.58 2.63 0.17 0.69-0.19 1.68 0 2.44 0.22 0.86 0.68 1.36 0.68 2.33 0 0.82 0.29 1.41 0.29 2.14 0 0.54 0.65 1.62 0.78 2.15 0.21 0.83 0.38 1.7 0.59 2.53 0.17 0.7 0.57 1.61 0.78 2.43 0.16 0.67 0.58 1.49 1.07 2.14 0.42 0.57 0.5 1.6 0.78 2.15 0.43 0.87 0.64 1.38 1.07 2.24 0.34 0.69 0.6 1.22 0.77 1.94 0.21 0.82 0.91 1.92 1.27 2.63 0.34 0.68 0.72 1.42 0.88 2.05 0.23 0.92 0.45 1.98 0.87 2.82 0.34 0.68 0.68 1.35 0.98 1.95 0.42 0.85 0.98 1.47 1.55 2.04 0.71 0.71 1.68 1.05 2.54 1.46 0.85 0.42 1.53 0.88 1.75 1.76 0.19 0.75 0.8 1.6 1.07 2.14 0.39 0.79 1.14 1.53 1.75 2.14 1.62 1.62 2.98 3.34 5.06 4.38 0.71 0.35 1.18 0.56 2.05 0.78 0.88 0.22 1.59 0.31 2.33 0.68 0.75 0.38 1.45 0.49 2.34 0.49 0.35 0 1.24 0.82 1.85 0.97 0.54 0.14 1.41-0.18 2.14 0 1 0.25 1.32-0.64 2.34-0.39 0.94 0.24 2.38 2.4 3.21 3.02 0.73 0.55 1.5 1.13 2.34 1.85 0.76 0.66 1.3 1.03 2.24 1.27 0.74 0.18 1.16 0.29 1.75 0.58 0.63 0.32 1.69 0.1 2.43 0.1 0.72 0 1.43 1.04 1.85 1.46 1 1 2.17 1.56 2.82 2.43 0.58 0.77 0.9 1.78 1.56 2.44 0.59 0.59 1.43 1.32 2.14 2.04 0.6 0.6 1.28 1.01 1.46 1.75 0.2 0.8 1.16 1.17 1.76 1.46 0.65 0.33 1.53 0.53 2.14 0.69 0.54 0.13 1.42 1.33 1.85 1.65 0.33 0.25 2-0.19 2.53-0.19 0.69 0 1.53 0.99 1.95 1.55 0.47 0.64 0.77 1.17 1.65 1.17 0.91 0 1.67-0.4 2.24-0.97 0.46-0.46 0.58-1.69 0.58-2.34 0-0.6 1.55 0.77 1.85 1.07 0.48 0.48 1.1 1.2 1.46 1.56 0.69 0.69 1.62 1.58 1.95 2.24s0.14 1.54 0.49 2.24c0.39 0.78 0.7 1.23 1.17 1.85 0.49 0.66 0.48 1.19 0.48 2.24 0 0.84 0.2 1.51 0.2 2.34 0 0.72-0.62 1-0.78 1.65-0.2 0.78-0.49 1.33-0.49 2.34 0 0.7-1.26 1.4-1.26 2.43 0 0.78 0.78 1.96 0.97 2.73 0.22 0.88 0.47 2 0.88 2.82 0.47 0.94 1.2 0.82 1.46 1.85 0.22 0.89 0.28 1.8 0.48 2.63 0.2 0.79 0.69 1.1 0.88 1.85 0.16 0.65 0.66 1.25 1.07 1.66 0.5 0.5 1.36 0.99 2.04 1.16 1.25 0.31 1.71 0.82 2.34 1.66 0.56 0.74 0.84 1.53 1.66 2.14 0.81 0.61 1.17 0.69 1.75 1.27 0.13 0.13 0.23 0.19 0.39 0.29 0.77 0.52 0.99 1.18 1.95 1.65 0.77 0.39 1.44 1.04 2.14 1.46 0.89 0.54 1.35 0.92 2.24 1.37 0.76 0.38 1.34 1.11 2.04 1.46 0.76 0.38 1.32 0.69 2.24 0.87 0.74 0.15 1.7 0.43 2.34 0.59 0.96 0.24 1.89 0.41 2.62 0.78 0.7 0.34 1.45 1.16 1.85 1.56 0.58 0.57 1.54 1.01 2.24 1.36 0.53 0.26 1.26 0.72 1.76 0.97 0.98 0.49 1.37 1.2 2.23 1.85 0.67 0.5 1.13 1.13 1.66 1.66 0.65 0.64 1.04 1.52 1.56 2.04 0.62 0.62 0.88 1.29 1.07 2.05 0.23 0.94 0.89 1.48 1.26 2.24 0.38 0.74 1.45 1.18 1.95 1.85 0.49 0.64 1.43 0.94 1.95 1.46 0.67 0.67 1.27 0.88 1.85 1.65 0.56 0.75 1.16 0.97 1.55 1.36 0.56 0.56 1.36 0.83 1.85 1.08 0.15 0.07 0.25 0.13 0.39 0.19 4.12-0.21 8.15-0.53 12.17-1.07 0.04-0.08 0.17-0.1 0.2-0.2 0.25-1.02 1.51-1.82 2.04-2.62 0.56-0.83 1.43-0.93 2.14-1.08 0.85-0.16 1.22-0.73 1.85-1.36 0.65-0.64 1.26-1.26 1.85-2.04s0.79-1.32 1.27-1.95c0.56-0.75 0.68-1.46 1.07-2.24 0.45-0.9 0.92-1.58 1.65-1.95 0.86-0.42 1.1-1.07 1.85-1.26 1.01-0.25 1.45-0.66 2.34-0.88 0.73-0.18 1.92-1.92 2.34-2.34 0.61-0.61 1.03-1.02 1.65-1.85 0.23-0.3 0.42-0.7 0.68-0.97 0.21-0.26 0.38-0.42 0.59-0.68 0.34-0.43 0.36-1.83 0.48-2.34 0.18-0.71 0.55-1.67 0.88-2.33 0.34-0.69 0.23-1.63 0.58-2.34 0.4-0.79 0.65-1.48 0.98-2.14 0.37-0.74 0.12-1.61 0.48-2.34 0.38-0.75 0.61-1.49 0.88-2.04 0.4-0.79 0.25-1.06 1.27-1.56 0.54-0.27 1.09-1.2 1.55-1.66 0.43-0.43 0.67-1.72 0.88-2.14 0.37-0.73 1.28-1.38 1.75-1.85 0.38-0.37 0.73-1.21 1.07-1.56 0.42-0.41 0.48-1.62 0.59-2.04 0.17-0.67 0.12-1.46 0.29-2.14 0.19-0.76-0.55-1.33-0.88-1.66-0.62-0.62-1.04-1.44-1.85-2.04-0.69-0.52-1.17-0.79-1.55-1.17-0.5-0.5-1.39-0.75-2.05-1.07-0.56-0.28-1.07-0.39-1.95-0.39h-2.53c-0.88 0-1.35 0.19-2.14 0.19-0.84 0-1.4 0.2-2.24 0.2h-2.33c-0.7 0-1.23-0.39-2.05-0.39-0.84 0-0.91-0.57-1.36-1.17-0.4-0.54-1.47-0.68-2.14-0.68-0.92 0-1.76-0.1-2.83-0.1-1.22 0-1.42 0.32-2.33 0.78-0.64 0.32-1.26 0.77-1.66 1.17-0.46 0.46-1.49 0.75-2.04 0.97-0.73 0.29-1.65 0.17-2.34 0-0.46-0.12-0.61-0.42-0.68-0.78-0.07-0.35 0-0.8 0-1.26 0-0.91 0.53-1.31 1.07-1.85 0.35-0.36 0.29-1.6 0.29-2.15 0-1.08 0.12-1.22-0.29-2.04-0.35-0.7-1.07-0.97-1.46-1.36-0.46-0.47-0.82-1.31-1.26-1.76-0.43-0.43-0.88-1.26-1.17-1.85-0.29-0.58-1.12-0.9-1.66-1.16-0.67-0.34-1.69-0.45-2.24-0.59-0.67-0.17-1.64 0-2.33 0h-2.24c-0.83 0-1.47 0.2-2.24 0.2-0.58 0-1.14 0.39-1.95 0.39-0.63 0-1.22-0.89-1.65-1.47-0.57-0.75-1.27-0.87-1.76-1.36-0.52-0.52-1.15-0.66-1.55-1.07-0.49-0.48-1.81-0.72-2.44-0.88-0.92-0.23-1.69-0.45-2.33-0.77-0.89-0.45-0.93-0.88-1.37-1.76-0.37-0.75-0.68-1.16-0.68-1.94 0-0.62-0.38-1.64-0.58-2.05-0.15-0.3-0.39-0.62-0.49-0.78-0.3-0.6-0.04-0.93 0.1-1.17 0.14-0.23 0.19-0.34-0.39-0.48-0.07-0.02-1.42 1.26-1.56 1.36-0.61 0.46-1.08 0.37-1.95 0.58-1.28 0.33-1.41 0.27-2.53-0.29-0.46-0.23-0.54-0.5-0.68-0.68-0.14-0.17-0.27-0.27-0.97-0.1-0.71 0.18-1.24 0.67-1.85 0.98-0.69 0.34-1.05 0.42-1.66 0.87-0.63 0.48-1.75 0.83-2.33 1.27-0.54 0.4-1.96-0.35-2.24-0.49-0.73-0.36-0.75-1.64-0.88-2.14-0.17-0.68-0.36-0.76-0.58-0.58s-0.49 0.68-0.68 1.07c-0.26 0.5-0.62 0.64-0.98 0.68-0.35 0.03-0.65-0.03-0.97-0.2-0.09-0.04 0.1-2.04 0.1-2.33 0-0.38-1.23-1.42-1.37-1.56-0.36-0.37-0.6-0.28-0.77 0-0.18 0.28-0.33 0.74-0.49 1.07-0.38 0.76-0.4 1.69-0.59 2.63-0.15 0.8-0.19 1.63-0.19 2.43 0 0.56-0.48 0.97-0.88 1.37-0.36 0.36-0.42-0.15-0.39-0.88 0.04-0.73 0.2-1.63 0.1-2.14-0.16-0.82-0.48-1.53-0.68-2.34-0.17-0.67-0.13-1.34-0.39-1.85-0.24-0.49-0.67-0.08-1.07 0.49s-0.81 1.34-0.97 1.56c-0.63 0.83-1.96 1.6-2.44 2.24-0.22 0.29-1.49 0.79-1.85 0.97-0.82 0.41-1.85 1.63-2.53 2.14-0.65 0.49-0.58 1.87-0.58 2.63 0 0.95 0.32 0.82-0.2 1.85-0.24 0.49-0.63 0.46-0.97 0.29s-0.55-0.45-0.68-0.58c-0.54-0.54-0.96-0.78-1.75-0.98-0.87-0.21-1.54 0.22-2.24 0.39-0.96 0.24-1.83 0.65-2.73 0.88-0.73 0.18-1.79-0.03-2.43-0.19-0.55-0.14-1.07-0.88-1.56-1.37-0.62-0.62-0.84-0.82-1.46-1.65-0.47-0.64-0.63-1.08-1.27-1.56-0.78-0.59-0.95-0.26-1.36-1.07-0.35-0.7-0.58-1.17-0.97-1.56-0.4-0.39-0.3-1.37-0.3-2.14 0-0.76-0.19-1.72-0.19-2.53 0-0.79-0.16-1.6-0.29-2.15-0.17-0.68-0.1-1.65-0.1-2.33 0-0.58-0.97-1.15-1.46-1.27-0.81-0.2-1.38-0.39-2.63-0.39h-5.25c-0.59 0-0.74-0.12-1.08-0.29-0.13 0-0.87-2.05-0.87-2.34 0-0.84-0.2-1.51-0.2-2.33 0-0.81-0.15-1.57-0.29-2.14-0.16-0.64-0.11-1.4-0.29-2.15-0.17-0.67 0-1.64 0-2.33 0-0.85 0.19-1.25 0.19-2.15 0-0.6 0.1-1.43 0.1-2.14 0-0.9-0.51-1.57-1.26-1.95-0.66-0.32-1.46-0.19-2.24-0.19-0.81 0-1.32 0.21-2.05 0.39-0.83 0.21-1.23 1.14-1.56 1.46-0.55 0.55-0.6 1.43-0.77 2.14-0.18 0.69-0.1 1.66-0.1 2.34 0 0.38-0.86 1.47-0.98 1.95-0.21 0.86-1.39 1.38-1.94 1.65-0.81 0.41-2.21-0.08-2.83-0.39-0.5-0.25-1.39-1.69-1.65-2.04-0.42-0.56-0.88-0.98-1.27-1.37-0.52-0.52-0.98-0.79-1.55-1.55-0.45-0.59-0.77-1.24-0.98-1.66-0.37-0.74-0.47-1.23-0.87-2.04-0.37-0.74-0.85-1.51-1.27-2.34-0.46-0.92-0.48-1.35-1.07-1.95-0.61-0.61-0.78-1.47-0.78-2.33 0-0.87-0.29-1.78-0.29-2.63 0-0.79-0.29-1.52-0.29-2.34v-2.34c0-0.72 0.48-1.32 0.48-2.14 0-0.9-0.19-1.3-0.19-2.14 0-1.02 0.08-1.52 0.49-2.53 0.26-0.65 1.01-1.15 1.26-1.66 0.31-0.61 0.63-1.06 1.07-1.65 0.45-0.6 1.13-0.94 1.85-1.17s1.47-0.42 2.14-0.59c1.06-0.26 1.95-0.14 2.92 0.1 1.06 0.27 2.1 0.39 3.22 0.39 0.54 0 0.8 0.27 1.07 0.49s0.54 0.42 1.07 0.29c0.54-0.13 0.39-1.88 0.39-2.34 0-0.55-0.22-0.84-0.2-1.07s0.27-0.42 0.78-0.68c0.9-0.45 1.03-0.58 2.14-0.58 0.99 0 1.91 0.19 2.83 0.19 0.54 0 1.34 0.62 1.85 0.88 0.49 0.25 0.8 0.25 1.17 0.29 0.36 0.04 0.69 0.18 1.07 0.68 0.51 0.69 1.25 1.16 1.75 1.66 0.54 0.54 1.57 0.83 2.04 1.07 0.35 0.17 0.29 1.94 0.39 2.33 0.19 0.76 0.64 1.37 0.98 2.05 0.47 0.95 0.69 1.98 1.07 2.92 0.26 0.67 0.52 1.33 0.78 1.85 0.41 0.82 0.64 1.2 1.36 1.56 0.59 0.29 1.2 0.32 1.85 0.48 0.77 0.2 1.39-0.49 1.75-0.97 0.28-0.37 0.2-0.93 0.1-1.46-0.11-0.53-0.31-1.06-0.49-1.36-0.57-0.96-0.4-1.89-0.78-3.02-0.29-0.89-0.91-1.73-1.36-2.34-0.45-0.6-0.54-1.65-0.88-2.33-0.36-0.73-0.59-1.3-0.78-2.05-0.18-0.73-0.23-1.51-0.39-2.14-0.24-0.98 0.33-1.79 0.98-2.44 0.48-0.48 0.54-0.81 0.68-1.36 0.78-0.78 1.19-1.71 1.65-2.63 0.4-0.78 0.59-1.42 0.59-2.33 0-0.48 0.44-0.98 0.97-1.46 0.53-0.49 1.16-0.96 1.46-1.37 0.57-0.75 1.34-1.51 1.76-2.33 0.34-0.7 1.03-1.22 1.26-2.15 0.16-0.63 0.11-1.4 0.29-2.14 0.21-0.82 0.39-1.54 0.59-2.33 0.2-0.8 0.19-1.49 0-2.24-0.19-0.74-0.5-1.48-0.78-2.05-0.39-0.77-0.92-1.21-1.36-1.65-0.35-0.35-0.3-1.78-0.3-2.34 0-0.5 1.49-0.49 1.95-0.49 0.71 0 1.55-0.46 2.04-0.58 0.46-0.12 1.09-1.21 1.37-1.75 0.34-0.69 0.57-1.33 0.78-2.15 0.22-0.88-0.2-1.56-0.2-2.33 0-0.67 0.74-1.39 1.27-1.66 0.76-0.38 1.21-0.68 2.14-0.68 0.9 0 1.66 0.19 2.53 0.19 1.04 0 1.27-0.3 1.65-1.07 0.29-0.57 0.2-1.65 0.2-2.33 0-0.79-0.05-1.56-0.2-2.15-0.11-0.47 0.1-0.95 0.2-1.36-0.13-0.52 0.94-2.11 1.07-2.24 0.51-0.51 1.07-1.02 1.75-1.36 0.59-0.29 1.27-0.78 1.85-1.36 0.63-0.64 1.17-1.37 1.56-1.76 0.57-0.57 0.65-1.13 1.17-1.65 0.24-0.25 0.13 1.78 0 2.04-0.19 0.38-0.09 0.65 0.1 0.98 0.19 0.32 0.5 0.66 0.58 0.97 0.13 0.51-0.08 0.85-0.1 1.07-0.01 0.23 0.1 0.39 0.78 0.39 0.96 0 1.21-0.27 1.56-0.97 0.38-0.76 1.05-0.84 1.75-1.37 0.53-0.39 0.83-1.02 1.36-1.55 0.63-0.63 1.07-0.77 1.66-1.56 0.51-0.68 1.19-0.69 1.95-1.07 1.06-0.54 0.57-1.27 1.75-1.56 0.72-0.18 1.18-0.81 1.46-1.36 0.29-0.59-0.49-1.43-0.49-2.05 0-0.99-0.27-1.36-0.78-2.04-0.27-0.37-0.54-0.44-0.78-0.39-0.23 0.04-0.39 0.2-0.58 0.39-0.46 0.46-0.68 1.65-0.97 2.24-0.41 0.81-0.21 1.34-0.88 1.85-0.49 0.37-1.79-1.01-2.14-1.27-0.61-0.46-1.53-0.58-2.34-0.58-0.5 0-0.75 0.19-0.97 0.29s-0.44 0.09-0.78-0.59c-0.27-0.53-0.18-1.67-0.29-2.14-0.11-0.42-0.37-0.6-0.49-0.78-0.12-0.17-0.04-0.44 0.39-0.87 0.56-0.57 0.88-0.32 0.88-1.37 0-0.78 0.68-1.36 1.26-1.65 0.76-0.38 0.35-0.97 1.46-0.97 0.78 0 1.58-0.26 2.05-0.49 0.44-0.22 0.7-0.52 0.68-0.78s-0.26-0.39-0.78-0.39c-0.97 0-1.54 0.58-2.53 0.58-0.62 0-1.6 0.67-2.14 0.78-0.78 0.16-1.53 0.09-2.34 0.3-0.84 0.2-1.48 0.85-2.34 1.07-0.75 0.18-1.69 1.42-1.85 2.04-0.24 0.97-1.03 1.82-1.75 2.53-0.71 0.72-1.06 0.74-1.75 0.39-0.09-0.04 1.05-1.99 1.27-2.43 0.5-1.01 0.66-1.64 1.55-2.53 0.68-0.68 1.39-1.09 1.95-1.66 0.66-0.66 0.98-1.34 1.85-1.56 0.89-0.22 1.88-0.09 2.82-0.09 0.89 0 1.48-0.39 2.24-0.39 0.71 0 1.51-0.99 2.14-1.46 0.72-0.55 1.9-0.52 2.73-0.69 0.95-0.18 1.34-0.43 1.65-1.07 0.35-0.69 1.27-0.58 1.76-1.07 0.34-0.34 0.38-0.71 0.48-0.97s0.18-0.46 0.68-0.59c0.77-0.19 1.61-0.13 2.24-0.29 0.68-0.17 1.55 0 2.24 0 0.55 0 0.91-0.08 1.07-0.29s0.2-0.57 0.2-0.97c0-0.76-0.44-1.42-0.97-1.95-0.62-0.61-0.95-1.21-1.37-2.05-0.36-0.72-0.69-1.57-0.97-2.14-0.33-0.66-0.59-1.46-0.88-2.04-0.39-0.79-1.2-1.2-1.85-1.37-0.66-0.16-1.47-0.88-1.85-1.26-0.46-0.46-0.91-0.93-1.36-1.27-0.65-0.48-0.95-0.54-1.27-1.17-0.29-0.59-0.7-1.11-1.07-1.84-0.28-0.57-0.69-0.91-0.97-1.47-0.3-0.59-0.09-1.53-0.29-1.94-0.28-0.56-0.49-1.47-0.78-2.05-0.33-0.65-0.54-0.78-0.88-1.46-0.43-0.87 0.1-1.36-0.48-1.95-0.56-0.55-0.59-1.02-1.27-1.36-0.42-0.21-0.58-0.4-0.78-0.49-0.2-0.08-0.41-0.03-0.87 0.2-0.09 0.04-0.7 1.49-0.78 1.65-0.36 0.71-0.85 0.85-1.56 1.56-0.65 0.66-1.03 1.09-1.36 1.76-0.3 0.58-1.47 0.19-1.85 0.09-0.36-0.09-0.42-0.44-0.39-0.87s0.09-0.92 0-1.27c-0.17-0.67 0-1.64 0-2.34 0-0.33 0.36-0.34 0.78-0.39 0.41-0.04 0.93-0.15 1.16-0.39 0.3-0.29 0.47-0.45 0.49-0.68 0.02-0.22-0.11-0.5-0.49-0.87-0.43-0.44-1.53-0.26-2.04-0.39-1.08-0.27-1.51-0.16-2.34-0.78-0.73-0.55-1.15-1.01-1.36-1.85-0.14-0.55-1.3-0.45-1.85-0.59-0.78-0.19-1.58-0.19-2.43-0.19-0.73 0-1.29 0.59-2.05 0.78-0.42 0.11-0.78-0.07-1.07-0.1-0.28-0.02-0.52 0.04-0.68 0.68-0.21 0.86-0.56 1.41-0.88 2.05-0.26 0.52-0.29 1.38-0.29 2.14 0 0.95-0.25 1.11 0 2.14 0.18 0.7-0.06 1.62-0.19 2.14-0.2 0.8 0.2 1.55 0 2.34-0.26 1.01-0.54 1.37-0.1 2.24 0.41 0.81 0.83 0.99 1.07 1.95 0.19 0.77-0.29 1.56-0.29 2.33 0 0.67-0.98 1.47-1.27 1.85-0.35 0.48-0.78 1.29-0.78 1.95 0 0.53-1.26 0.93-1.55 1.07-0.78 0.39-1.19 1.03-1.66 1.66-0.36 0.48-0.39 1.64-0.39 2.24 0 0.76-0.19 1.52-0.19 2.33v2.34c0 0.79 0.19 1.18 0 1.95-0.19 0.74-1.08 1.22-1.56 1.46-0.46 0.23-0.89-0.03-1.17-0.39-0.28-0.37-0.48-0.89-0.48-1.17v-2.53c0-0.66-0.2-1.44-0.2-2.14v-2.44c0-0.95-0.3-1.39-0.49-2.14-0.11-0.47-1.19-1.2-1.55-1.56-0.53-0.53-1.25-0.96-1.85-1.26-0.5-0.25-1.21-0.92-1.56-1.27-0.74-0.74-1.2-1.03-1.56-1.75-0.37-0.74-1.34-0.88-2.14-0.88-0.85 0-1.68-0.19-2.34-0.68-0.47-0.35-0.58-1.54-0.58-2.04 0-0.98-0.12-1.76-0.29-2.63-0.15-0.72-0.06-1.71 0.09-2.34 0.22-0.88 1.18-1.56 1.46-2.14 0.41-0.81 1.69-1.39 2.34-2.05 0.63-0.63 0.97-1.55 1.75-2.14 1-0.74 2.03-1.3 3.12-1.85 0.57-0.29 0.65-1.1 0.87-1.56 0.41-0.81 0.66-1.53 1.17-2.04 0.63-0.63 1.18-1.18 1.76-1.75 0.49-0.5 1.89-0.39 2.14-0.39 0.34 0 0.97 1.84 1.07 2.04 0.21 0.43 0.37 0.66 0.68 0.78s0.78 0.08 1.17 0c0.78-0.16 1.67-0.58 2.72-0.88 0.59-0.16 1.29-1.27 1.85-1.55 0.55-0.28 0.59-1.57 0.59-2.24 0-0.89-0.1-1.36-0.1-2.14 0-0.45-1.29-0.94-1.56-1.08-0.37-0.18-0.41-0.62-0.29-1.07s0.41-0.9 0.58-1.07c0.49-0.48 1.32-0.81 1.95-0.97 0.84-0.21 1.61-0.17 2.24-0.49 0.69-0.34 0.87-0.77 1.36-1.26 0.77-0.78 0.85-1.26 1.07-2.15 0.17-0.65 0.08-1.66 0.2-2.14 0.2-0.78 0.95-1.52 1.26-1.95 0.24-0.31 0.34-0.58 0.59-0.77 0.25-0.2 0.58-0.3 1.17-0.3 0.56 0 0.92 0.03 1.17 0.2 0.24 0.17 0.38 0.47 0.58 0.87 0.29 0.58 0.1 1.65 0.1 2.34 0 0.83-0.65 1.13-1.07 1.56-0.39 0.39 1.35 1.21 1.55 1.36 0.31 0.23 0.14 0.74-0.19 1.27s-0.82 1.05-0.88 1.17c-0.25 0.5-0.9 1.01-1.26 1.75-0.49 0.98-0.59 1.12-1.95 1.46-0.88 0.22-1.6 0.9-2.14 1.17-0.39 0.19-0.4 0.46-0.29 0.78 0.1 0.31 0.27 0.66 0.39 0.78 0.67 0.67 0.96 0.65 1.85 0.87 1.04 0.26 1.42-0.05 2.04 0.78 0.42 0.56 0.6 0.81 0.88 1.36 0.39 0.8 0.85 1.28 1.07 2.15 0.09 0.38 1.54 0.52 2.04 0.78 0.65 0.32 1.67 0.39 2.24 0.68 0.72 0.36 1.05 0.57 1.85 0.78 0.65 0.16 0.86 0.48 1.65 0.68 0.48 0.12 0.77 0.15 0.98 0 0.2-0.16 0.28-0.46 0.39-0.88 0.08-0.35-0.3-0.78-0.68-1.07-0.39-0.29-0.77-0.43-0.88-0.49-0.82-0.4-1.13-0.55-1.66-1.07-0.42-0.42-0.61-0.79-0.58-1.07s0.28-0.47 0.58-0.78c0.3-0.3 0.63-0.2 0.98 0 0.35 0.21 0.75 0.55 0.87 0.68 0.34 0.34 0.74 0.25 1.08 0 0.33-0.24 0.54-0.7 0.58-0.87 0.15-0.62 0.29-1.03 0.29-1.95 0-0.96-0.64-1.13-0.39-2.14 0.11-0.43-0.25-0.75-0.68-0.98-0.42-0.22-0.92-0.4-1.17-0.58-0.78-0.59-1.16-0.57-1.56-1.36-0.28-0.57-0.09-0.88 0.2-0.98s0.66-0.05 0.88 0c0.88 0.22 1.04 0.66 1.65 1.27 0.69 0.69 0.69 1.07 1.46 1.46 0.75 0.37 0.74 0.97 1.56 0.97 0.52 0 0.58-1.57 0.58-2.04 0-0.83-0.39-1.45-0.39-2.34 0-0.35 0.83-0.96 0.98-1.26 0.23-0.46 0.2-0.87 0-1.17-0.21-0.31-0.57-0.57-0.78-0.78-0.56-0.56-1.03-0.8-1.36-1.46-0.39-0.76-1.19-1.09-1.85-1.75-0.1-0.2-0.44 0-0.78 0.09-0.35 0.09-0.69 0.07-0.88-0.68-0.18-0.72 0.23-1.69 0.39-2.34 0.18-0.73 0.6-0.94 0.78-1.65 0.14-0.56 0.44-0.72 0.58-0.88s0.17-0.34-0.09-0.87c-0.19-0.38-1.19-0.79-1.56-0.98-0.62-0.31-1.01-0.81-1.37-1.17-0.34-0.34-0.19-1.81-0.19-2.33 0-0.39-0.19-0.7-0.49-0.88-0.3-0.17-0.65-0.23-0.97-0.39-0.56-0.28-1.2-0.29-2.04-0.29-0.68 0-1.72-0.14-2.34-0.29-0.72-0.18-1.66 0.17-2.14 0.29-0.68 0.17-1.64 0-2.34 0-0.8 0-1.08-0.29-1.85-0.49-0.49-0.12-1.63 0.87-2.04 1.07-0.42 0.21-0.6 0.06-0.68-0.29-0.09-0.34-0.1-0.83-0.1-1.17v-2.33c0-0.33-0.24-0.51-0.59-0.59-0.34-0.08-0.77-0.09-1.07-0.09zm84.41 9.44c-0.42 0.09-0.77 0.43-0.88 0.88-0.13 0.52-0.19 1.26-0.29 1.65-0.03 0.13-1.93-0.24-3.02 0.2-0.46 0.18-1.12 0.47-1.56 0.58-0.59 0.15-0.41 0.57-0.29 1.07 0.16 0.62 1.9 0.74 2.43 0.88 0.38 0.09 0.88 0.77 1.27 1.17 0.39 0.39 1.05 0.66 1.46 0.97 0.32 0.24 0.65 0.95 1.07 1.36 0.43 0.44 1.18 0.64 1.75 0.78 0.7 0.18 1.13-0.19 1.85-0.19 0.59 0 1.11 0.29 1.76 0.29 0.67 0 1.14-0.29 1.75-0.29 0.49 0 0.7-0.8 0.97-1.17 0.36-0.48 0.39-1.23 0.39-1.85 0-0.58-0.19-1.14-0.29-1.56-0.12-0.49-1.1-0.74-1.36-1.26-0.33-0.66-0.35-0.82-1.07-1.37-0.5-0.37-1.39-0.79-1.76-0.97-0.58-0.29-1-0.53-1.46-0.88-0.3-0.23-0.76-0.29-1.26-0.29h-1.07c-0.15-0.04-0.26-0.03-0.39 0zm34.26 12.56c-0.62 0.08-0.77 1.03-0.77 1.85 0 0.83-1.12 1.59-1.46 1.85-0.49 0.36 1.94 1.32 2.14 1.36 0.82 0.21 1.5 0.91 2.33 1.07 0.6 0.12 1.6 0.78 2.34 1.08 0.43 0.17 0.56 0.79 0.68 1.46 0.12 0.66 0.2 1.34 0.2 1.75 0 0.85-0.01 1.73 0.19 2.53 0.21 0.83 0.44 1.15 0.2 2.14-0.12 0.48-0.18 0.84-0.2 1.17s0.03 0.62 0.39 0.97c0.64 0.64 2.44 0.3 3.21 1.07s1.36 1.29 2.24 2.34c0.45 0.54-0.04 1.52 0.59 2.14 0.43 0.43 1.85 0.51 2.33 0.39 0.34-0.08 0.51-2.01 0.59-2.33 0.1-0.41 0.7-0.62 1.36-0.69 0.66-0.06 1.42 0.04 1.75 0.2 0.59 0.29 0.65 1.21 0.49 1.85-0.12 0.48-0.02 0.8 0.19 1.07 0.22 0.27 0.53 0.51 0.88 0.68 0.64 0.32 1.5 0.21 1.95 0.1 0.71-0.18 1.03-1.19 1.36-1.85 0.22-0.45 0.32-0.78 0.39-1.07s0.12-0.55 0.58-0.78c0.66-0.33 0.96-0.84 0.78-1.56-0.2-0.79-0.42-1.52-0.78-2.24-0.48-0.96-1.49-1.31-2.33-1.94-0.65-0.49-0.58-0.66-0.78-1.47-0.14-0.54-1.07-0.96-1.66-1.26-0.54-0.27-0.9-1.23-1.55-1.56-0.96-0.48-1.87-0.62-2.73-1.26-0.88-0.66-1.65-0.9-2.53-1.56-0.86-0.65-1.61-1.42-2.34-2.14-0.72-0.72-1.42-1.04-1.95-1.56-0.64-0.65-1.65-1.02-2.33-1.37-0.88-0.44-1.38-0.96-2.14-1.26-0.93-0.37-1.59-0.47-2.44-0.68-0.29-0.08-0.62-0.34-0.87-0.49-0.11-0.03-0.21-0.01-0.3 0zm-85.08 46.25c-0.26 0.26-0.74 0.03-1.07 0.19-0.35 0.18-0.51 0.85-0.59 1.17-0.13 0.52-0.08 1.01-0.19 1.56-0.12 0.62 0.06 1.61 0.19 2.14 0.11 0.42-0.56 0.94-0.77 1.36-0.22 0.44-0.5 0.79-0.78 1.17-0.34 0.45-0.29 1.42-0.39 1.95-0.13 0.63-0.16 1.11-0.29 1.66-0.11 0.41-0.1 0.82-0.1 1.26 0 0.34 0.8 0.55 1.07 0.68 0.29 0.15 0.44-0.2 0.58-0.58 0.14-0.39 0.26-0.84 0.49-1.07 0.47-0.47 0.71-0.68 1.36-0.68 0.43 0 0.88-0.1 1.37-0.1 0.27 0 0.82 0.17 1.07 0.29 0.47 0.24 0.75 0.46 1.07 0.78 0.37 0.38 0.26 0.82 0.87 0.97 0.5 0.13 0.81 0.39 1.37 0.39h2.92c0.59 0 0.58-0.37 0.58-0.97 0-0.52 0.08-0.89 0.2-1.36 0.12-0.49-0.11-0.81-0.2-1.17-0.1-0.43-0.8-0.9-1.07-1.17-0.6-0.61-1.27-0.5-1.46-1.27-0.09-0.35 0.1-0.88 0.1-1.26 0-0.37 0.09-0.75 0.09-1.17 0-0.5-0.31-0.72-0.48-1.07-0.22-0.43-0.62-0.39-1.07-0.39-0.43 0-1.04-0.11-1.46-0.2-0.48-0.09-0.75-0.06-1.07-0.39-0.36-0.35-0.69-0.3-0.69-0.87 0-0.3-0.2-0.63-0.29-0.98-0.1-0.4-0.18-0.55-0.48-0.77-0.19-0.14-0.68-0.1-0.88-0.1zm144.76 3.7c-0.5 0.07-0.51 1.88-1.07 2.43-0.51 0.52-1.04 0.65-1.46 1.07-0.72 0.73-1.59 1.4-2.34 2.15-0.63 0.63-0.74 1.9-1.07 2.72-0.23 0.59 0 1.88 0 2.53 0 0.83-0.95 2.13-1.26 2.92-0.2 0.5-0.37 0.73-0.68 0.88-0.32 0.15-0.73 0.16-1.27 0.29-0.87 0.22-1.58 0.4-2.34 0.78-0.55 0.28-0.98 1.48-1.26 2.05-0.3 0.58-0.13 1.69-0.29 2.33-0.26 1.04-0.2 2.22 0 3.22 0.16 0.81 0.29 1.55 0.48 2.33 0.21 0.85-0.15 1.6-0.29 2.14-0.2 0.82-0.49 1.56-0.68 2.34-0.2 0.8 0.78 1.59 0.78 2.44 0 0.89 0.23 1.71 0 2.62-0.15 0.6 0.13 1.47 0.48 2.34 0.36 0.87 0.84 1.78 0.98 2.34 0.09 0.38-2.02 2.95-2.24 3.5-0.28 0.71-0.69 1.64-1.17 2.44s0.1 1.7 0.1 2.53c0 0.86 0.19 1.81 0.19 2.73 0 1.12 0.2 2.28 0.2 3.4 0 1.01-1.03 2.45-1.27 3.41-0.23 0.92 0.02 2.08 0.39 2.82 0.28 0.56-0.23 1.98-0.39 2.63-0.27 1.1 0.29 2.33 0.29 3.41v0.49c0 1.5 1.23 3.51 1.56 5.16 0.18 0.9-0.32 1.4-0.49 2.04-0.24 0.99 0.29 1.74 0.49 2.53 0.32 1.29 0.06 2.41-0.49 3.51-0.27 0.55-0.28 0.98-0.19 1.46s0.29 0.98 0.49 1.46c0.37 0.93 0.04 2.2 0.29 3.21 0.21 0.86-0.1 2.43-0.1 3.41 0 0.71-0.28 1.04-0.49 1.46-0.2 0.42-0.31 0.9-0.09 1.75 0.05 0.21 0.04 0.48 0.09 0.69 0.18 0.71 1.68 2.23 2.34 2.72 0.46 0.35 0.6 0.72 0.68 1.07 0.09 0.36 0.1 0.72 0.1 1.27 0 1.17 0.13 1.88 0.88 2.63 0.45 0.46 1.34 0.39 1.85 1.07 0.41 0.55 0.39 2.11 0.39 2.82 0 0.87 0.02 1.37 0.29 1.85 0.27 0.49 0.76 0.96 1.36 1.56 0.26 0.26 0.52 0.42 0.78 0.68 0.61 0.61 0.72 1.7 1.36 2.34 0.6 0.59 1.52 1.34 2.34 1.75 0.49 0.25 1 0.08 1.46-0.19s0.84-0.63 1.17-0.88c0.96-0.72 1.67-1.4 2.14-2.34 0.64-1.27 1.76-2.66 2.04-4.09 0.11-0.54 0.27-0.9 0.59-1.16 0.32-0.27 0.82-0.47 1.26-0.69 0.79-0.39 1.53-1.25 1.95-1.94 0.46-0.77 1.29-1.29 2.14-1.07 0.66 0.16 1.12 0.65 1.46 1.16 0.34 0.52 0.65 1.04 0.78 1.56 0.21 0.83-0.63 1.85-0.97 2.53-0.57 1.14-0.31 2-1.07 3.02-0.69 0.92-1.03 2.26-1.46 3.12-0.58 1.16-0.44 2.93-0.69 4.18-0.11 0.56-0.5 1.66-0.77 2.34-0.32 0.79-0.69 2.29-0.69 3.12 0 1.09-1.14 1.99-1.65 3.01-0.61 1.22-1.06 2.46-1.56 3.7-0.38 0.95-0.84 1.95-1.36 2.83-0.47 0.78-0.86 1.59-1.07 2.43-0.2 0.78-0.71 1.42-1.07 2.14-0.35 0.69-0.41 1.4-0.78 2.15-0.7 1.39-2.25 3.8-3.41 4.96-1 1-2.3 2.37-2.82 3.41-0.34 0.68-0.56 1.21-0.88 1.85-0.47 0.93-1.09 1.99-1.65 3.11-0.4 0.79-1.08 1.18-1.46 1.95-0.4 0.8-0.58 1.13-0.69 1.56 22.26-26.09 35.83-59.92 35.83-96.88 0-18.86-3.64-36.83-10.03-53.45-0.65 0.05-1.8 0.29-2.53 0.29-0.47 0-0.82 0.36-1.07 0.78s-0.4 0.93-0.49 1.27c-0.23 0.92-0.18 1.97 0.1 2.92s0.75 1.81 1.27 2.33c0.39 0.4 0.63 0.78 0.58 1.07-0.05 0.3-0.34 0.49-0.97 0.49-0.68 0-1.08-0.11-1.37-0.29-0.28-0.18-0.43-0.43-0.77-0.78-0.66-0.66-1.26-1.21-2.15-1.66-0.78-0.38-1.44-0.72-2.14-1.07-0.5-0.25-0.92-1.65-1.17-2.14-0.38-0.76-0.68-1.53-0.68-2.43 0-0.62-0.62-1.55-0.87-2.05-0.3-0.6-0.72-1.24-1.07-1.94-0.4-0.79-0.76-1.32-1.46-1.85-0.09-0.07-0.13-0.11-0.2-0.1zm-184.58 81.1c-0.11 0.05-0.24 0.15-0.39 0.3-0.43 0.43-0.33 0.34-1.07-0.1 0.16 0 2.04 2.25 2.44 2.92 0.19 0.31 0.72 0.41 1.26 0.39s1.06-0.13 1.36-0.2c0.69-0.13 0.87-0.55 0.78-0.97s-0.45-0.91-0.78-1.07c-0.84-0.42-1.42-0.75-2.33-0.97-0.76-0.19-0.94-0.44-1.27-0.3zm1.76 6.53c-0.58 0.1-1.45 0.47-1.76 0.78-0.24 0.24-0.04 0.7 0.2 1.16 0.23 0.47 0.57 0.86 0.68 1.08 0.3 0.59 2.07 0.77 2.72 0.77 0.56 0 0.81-0.25 0.88-0.58s-0.01-0.73-0.1-1.07c-0.15-0.61-0.9-1.2-1.26-1.56-0.37-0.37-0.04-0.08-0.88-0.58-0.11-0.03-0.29-0.04-0.48 0zm-7.89 5.25c-1.11 0-2.16 0.04-3.21 0.88-1.28 1.03-2.83 2.89-3.7 3.21 0.19 0.48 0.34 0.9 0.68 1.07 0.33 0.18 0.84 0.17 1.36-0.09 0.85-0.43 1.42-0.61 2.14-0.98 0.76-0.37 1.33-0.68 2.15-0.68 1.04 0 1.73 0.36 2.62 0.59 0.68 0.17 1.19 0.4 1.95 0.78 0.79 0.39 1.51 0.73 2.14 1.36 0.62 0.61 1.75 0.92 2.34 1.36 0.61 0.46 1.73 0.95 2.34 1.56 0.39 0.39 1.23 1.25 1.85 1.56 0.65 0.32 1.21 0.26 1.75 0.09 0.54-0.16 1.1-0.38 1.85-0.38 0.55 0 1.47 0.05 2.33 0.09 0.86 0.05 1.62 0.04 1.95-0.29 0.21-0.21 0.49-0.49 0.58-0.78 0.1-0.29 0-0.54-0.58-0.68-0.82-0.21-1.55-0.46-2.43-0.68-1.23-0.31-0.84-0.86-1.85-1.36-1.15-0.58-1.49-0.74-2.83-1.08-0.87-0.21-2.2-0.35-2.92-1.07-0.64-0.64-0.99-1.81-1.65-2.14-1.16-0.58-2.05-1.38-3.41-1.65-1.35-0.27-3.01-0.69-4.38-0.69-0.4 0-0.7 0.01-1.07 0zm25.99 8.86c-0.22-0.02-0.46 0.05-0.68 0.1-0.9 0.23-3.27 0.02-3.41 0.29-0.15 0.26-0.35 0.51-0.48 0.78-0.32 0.63-0.26 0.83-0.1 0.98 0.16 0.14 0.47 0.17 0.78 0.48 0.11 0.12 0.39 0.5 0.49 0.88 0.09 0.38 0 0.78-0.39 0.97-0.09 0.05-1.99 1-1.95 1.07 0.26 0.52 0.52 0.69 1.65 0.69 0.95 0 1.6 0.12 2.44 0.29 0.56 0.11 1.8 0.42 2.33 0.29 1.27-0.32 2.22-0.65 3.02-1.46 0.68-0.68 0.69-0.37 1.95-0.68 0.43-0.11 0.95-0.09 1.26-0.2 0.31-0.1 0.49-0.32 0.49-0.87 0-0.59-0.67-1.37-1.46-1.37-0.69 0-1.6 0.03-2.24-0.29-0.88-0.44-0.89-1.19-1.95-1.46-0.49-0.12-1.08-0.42-1.75-0.49zm11.1 3.41c-0.31-0.07-0.47 0.37-0.49 0.88-0.01 0.51 0.15 1.06 0.2 1.26 0.11 0.46 1.7 0.69 2.24 0.69s0.97 0.01 1.17-0.1c0.19-0.11 0.13-0.31-0.1-0.78-0.33-0.66-0.52-1.43-1.17-1.75-0.53-0.27-1.27-0.2-1.85-0.2zm8.76 0.68c-0.16 0.12-0.25 0.55-0.19 0.98 0.05 0.42 0.27 0.8 0.97 0.97 0.69 0.17 1.7 0.11 2.14 0 0.36-0.09 0.22-0.38-0.09-0.78-0.32-0.39-0.74-0.81-1.08-0.97-0.39-0.2-1.16-0.2-1.65-0.2-0.04-0.02-0.05-0.03-0.1 0zm-31.83 0.98c-0.13 0.01-0.36 0.1-0.49 0.1-0.13-0.11-1.5-0.03-2.14 0.29-0.45 0.22-0.74 0.44-0.88 0.68-0.13 0.24-0.14 0.58 0.1 1.07 0.25 0.51 0.29 0.84 0.39 1.07s0.3 0.34 0.88 0.49c0.93 0.23 1.77 0.52 2.62 0.1 0.66-0.34 0.98-1.29 0.98-2.05 0-0.94-0.26-1.45-1.07-1.65-0.13-0.04-0.26-0.11-0.39-0.1zm35.92 3.5c-0.5 0.11-0.41 0.86 0.1 1.37 0.61 0.6 1.24 0.4 1.65 0.19 0.45-0.22 0.28-0.6-0.09-0.88-0.38-0.28-0.95-0.48-0.98-0.48-0.29-0.15-0.51-0.23-0.68-0.2zm3.02 4.29c-0.26 0.2-1.07 0.86-1.07 1.26 0 0.38 0.39 0.38 0.87 0.29 0.48-0.08 1-0.25 1.07-0.29 0.46-0.22-0.36-0.93-0.77-1.26-0.02 0-0.08-0.02-0.1 0zm0.58 3.5c0.02 0.03 0.08 0.17 0.1 0.2 0.07-0.06 0.11-0.19 0.1-0.2-0.01 0-0.11-0.04-0.2 0zm0.1 0.2c-0.34 0.29-1.42 1.02-1.56 1.55-0.11 0.46 1.9-0.07 1.95-0.09 0.45-0.23-0.09-0.99-0.39-1.46zm4.09 1.07c-0.05 0.46-0.53 1.72-0.1 2.04 0.64 0.48 0.93 0.34 1.07 0.1 0.15-0.25 0.13-0.62 0-0.88-0.24-0.48-0.52-0.81-0.97-1.26z" fill="url(#radialGradient3976)"/>
      <path id="path3339" d="m485.93 359.96s-39.08-3.79-65.97 15.65c-26.89 19.45-41.58 62.13-72.82 75.07-62.46 25.87-111.06 12.77-111.06 12.77-28.56-68.96 4.22-148.11 73.18-176.67 68.96-28.57 148.11 4.22 176.67 73.18z" style="color:#000000" fill="url(#radialGradient3969)"/>
    </g>
  </g>
  <metadata>
    <rdf:RDF>
      <cc:Work>
        <dc:format>image/svg+xml</dc:format>
        <dc:type rdf:resource="http://purl.org/dc/dcmitype/StillImage"/>
        <cc:license rdf:resource="http://creativecommons.org/licenses/publicdomain/"/>
        <dc:publisher>
          <cc:Agent rdf:about="http://openclipart.org/">
            <dc:title>Openclipart</dc:title>
          </cc:Agent>
        </dc:publisher>
        <dc:title>Earth</dc:title>
        <dc:date>2007-02-25T20:02:21</dc:date>
        <dc:description>An Earth icon.</dc:description>
        <dc:source>http://openclipart.org/detail/3320/earth-by-barretr</dc:source>
        <dc:creator>
          <cc:Agent>
            <dc:title>barretr</dc:title>
          </cc:Agent>
        </dc:creator>
        <dc:subject>
          <rdf:Bag>
            <rdf:li>blue</rdf:li>
            <rdf:li>clip art</rdf:li>
            <rdf:li>clipart</rdf:li>
            <rdf:li>color</rdf:li>
            <rdf:li>earth</rdf:li>
            <rdf:li>globe</rdf:li>
            <rdf:li>green</rdf:li>
            <rdf:li>icon</rdf:li>
            <rdf:li>planet</rdf:li>
            <rdf:li>world</rdf:li>
          </rdf:Bag>
        </dc:subject>
      </cc:Work>
      <cc:License rdf:about="http://creativecommons.org/licenses/publicdomain/">
        <cc:permits rdf:resource="http://creativecommons.org/ns#Reproduction"/>
        <cc:permits rdf:resource="http://creativecommons.org/ns#Distribution"/>
        <cc:permits rdf:resource="http://creativecommons.org/ns#DerivativeWorks"/>
      </cc:License>
    </rdf:RDF>
  </metadata>
</svg>
