<?xml version="1.0" encoding="UTF-8" standalone="no"?>
<!-- Created with Inkscape (http://www.inkscape.org/) -->
<svg xmlns:dc="http://purl.org/dc/elements/1.1/" xmlns:cc="http://creativecommons.org/ns#" xmlns:rdf="http://www.w3.org/1999/02/22-rdf-syntax-ns#" xmlns:svg="http://www.w3.org/2000/svg" xmlns="http://www.w3.org/2000/svg" xmlns:xlink="http://www.w3.org/1999/xlink" xmlns:sodipodi="http://sodipodi.sourceforge.net/DTD/sodipodi-0.dtd" xmlns:inkscape="http://www.inkscape.org/namespaces/inkscape" width="297.83664" height="333.9296" id="svg2" sodipodi:version="0.32" inkscape:version="0.45.1+0.46pre1+devel" sodipodi:docbase="/home/jedidiah" sodipodi:docname="leland_mcinnes_Water_Lily_ok.svg" inkscape:output_extension="org.inkscape.output.svg.inkscape" inkscape:export-filename="C:\joanna\Gfx\drawings_vector\admin\thumbs\leland_mcinnes_Water_Lily.png" inkscape:export-xdpi="22.013334" inkscape:export-ydpi="22.013334" version="1.0">
  <defs id="defs4">
    <inkscape:perspective sodipodi:type="inkscape:persp3d" inkscape:vp_x="-50 : 600 : 1" inkscape:vp_y="0 : 1000 : 0" inkscape:vp_z="700 : 600 : 1" inkscape:persp3d-origin="300 : 400 : 1" id="perspective128"/>
    <linearGradient id="linearGradient2319">
      <stop id="stop2321" offset="0.0000000" style="stop-color:#eded3d;stop-opacity:1.0000000;"/>
      <stop id="stop2323" offset="1.0000000" style="stop-color:#abb22c;stop-opacity:0.0000000;"/>
    </linearGradient>
    <linearGradient id="linearGradient2263">
      <stop style="stop-color:none" offset="0.0000000" id="stop2265"/>
      <stop style="stop-color:#bcb839;stop-opacity:0;" offset="1" id="stop2267"/>
    </linearGradient>
    <linearGradient id="linearGradient2210">
      <stop id="stop2212" offset="0.0000000" style="stop-color:#e6e8c9;stop-opacity:0.42592594;"/>
      <stop id="stop2214" offset="1" style="stop-color:#e6e8c9;stop-opacity:0;"/>
    </linearGradient>
    <linearGradient id="linearGradient2188">
      <stop style="stop-color:#ffffff;stop-opacity:0.35185185;" offset="0.0000000" id="stop2190"/>
      <stop style="stop-color:#bcb839;stop-opacity:0;" offset="1" id="stop2192"/>
    </linearGradient>
    <linearGradient id="linearGradient2154">
      <stop style="stop-color:#a09926;stop-opacity:1.0000000;" offset="0.0000000" id="stop2156"/>
      <stop style="stop-color:#69651b;stop-opacity:0.0000000;" offset="1.0000000" id="stop2158"/>
    </linearGradient>
    <linearGradient inkscape:collect="always" id="linearGradient2199">
      <stop style="stop-color:#000000;stop-opacity:1;" offset="0" id="stop2201"/>
      <stop style="stop-color:#000000;stop-opacity:0;" offset="1" id="stop2203"/>
    </linearGradient>
    <linearGradient id="linearGradient2246">
      <stop id="stop2248" offset="0.0000000" style="stop-color:#ffffff;stop-opacity:1.0000000;"/>
      <stop id="stop2250" offset="1" style="stop-color:#bcb839;stop-opacity:0;"/>
    </linearGradient>
    <linearGradient id="linearGradient2211">
      <stop style="stop-color:#c3c436;stop-opacity:1.0000000;" offset="0.0000000" id="stop2213"/>
      <stop style="stop-color:#eeef6c;stop-opacity:0;" offset="1" id="stop2215"/>
    </linearGradient>
    <linearGradient id="linearGradient2157">
      <stop style="stop-color:#949f4e;stop-opacity:1.0000000;" offset="0.0000000" id="stop2159"/>
      <stop id="stop2161" offset="0.50000000" style="stop-color:#d4e183;stop-opacity:1.0000000;"/>
      <stop style="stop-color:#fdfff2;stop-opacity:1.0000000;" offset="1.0000000" id="stop2163"/>
    </linearGradient>
    <linearGradient id="linearGradient2139">
      <stop id="stop2141" offset="0.0000000" style="stop-color:#949f4e;stop-opacity:1.0000000;"/>
      <stop style="stop-color:#d4e183;stop-opacity:1.0000000;" offset="0.50000000" id="stop2145"/>
      <stop id="stop2143" offset="1.0000000" style="stop-color:#f9fddc;stop-opacity:1.0000000;"/>
    </linearGradient>
    <linearGradient id="linearGradient2109">
      <stop id="stop2111" offset="0.0000000" style="stop-color:#434a1e;stop-opacity:1.0000000;"/>
      <stop id="stop2113" offset="1.0000000" style="stop-color:#deea78;stop-opacity:1.0000000;"/>
    </linearGradient>
    <linearGradient id="linearGradient2103">
      <stop id="stop2105" offset="0.0000000" style="stop-color:#434a1e;stop-opacity:1.0000000;"/>
      <stop id="stop2107" offset="1.0000000" style="stop-color:#f4fabd;stop-opacity:1.0000000;"/>
    </linearGradient>
    <linearGradient id="linearGradient2095">
      <stop style="stop-color:#656e2d;stop-opacity:1.0000000;" offset="0.0000000" id="stop2097"/>
      <stop style="stop-color:#f1f9b0;stop-opacity:1.0000000;" offset="1.0000000" id="stop2099"/>
    </linearGradient>
    <linearGradient id="linearGradient2411">
      <stop style="stop-color:#5c1b15;stop-opacity:1;" offset="0" id="stop2413"/>
      <stop style="stop-color:#e7c693;stop-opacity:1.0000000;" offset="1.0000000" id="stop2415"/>
    </linearGradient>
    <linearGradient inkscape:collect="always" xlink:href="#linearGradient2211" id="linearGradient2358" gradientUnits="userSpaceOnUse" x1="223.82855" y1="266.73706" x2="255.22733" y2="249.04482"/>
    <linearGradient inkscape:collect="always" xlink:href="#linearGradient2246" id="linearGradient2360" gradientUnits="userSpaceOnUse" x1="263.14471" y1="229.38672" x2="213.94537" y2="253.6317"/>
    <linearGradient inkscape:collect="always" xlink:href="#linearGradient2154" id="linearGradient2160" x1="442.92444" y1="299.87665" x2="424.87729" y2="285.1683" gradientUnits="userSpaceOnUse"/>
    <linearGradient inkscape:collect="always" xlink:href="#linearGradient2109" id="linearGradient2174" gradientUnits="userSpaceOnUse" gradientTransform="matrix(1.767671,0,0,1.767671,-125.9,-187.0402)" x1="297.49219" y1="323.0477" x2="287.94507" y2="307.32123"/>
    <linearGradient inkscape:collect="always" xlink:href="#linearGradient2109" id="linearGradient2177" gradientUnits="userSpaceOnUse" gradientTransform="matrix(1.767671,0,0,1.767671,-123.5834,-189.3568)" x1="214.35915" y1="343.08273" x2="218.62119" y2="323.42465"/>
    <linearGradient inkscape:collect="always" xlink:href="#linearGradient2246" id="linearGradient2180" gradientUnits="userSpaceOnUse" gradientTransform="matrix(1.767671,0,0,1.767671,-127.0583,-190.5151)" x1="259.20035" y1="276.98492" x2="248.67464" y2="299.85248"/>
    <linearGradient inkscape:collect="always" xlink:href="#linearGradient2246" id="linearGradient2184" gradientUnits="userSpaceOnUse" gradientTransform="matrix(1.767671,0,0,1.767671,-125.9,-190.5151)" x1="206.78537" y1="307.63101" x2="288.57275" y2="299.76779"/>
    <linearGradient inkscape:collect="always" xlink:href="#linearGradient2246" id="linearGradient2187" gradientUnits="userSpaceOnUse" gradientTransform="matrix(1.767671,0,0,1.767671,-128.2166,-187.0402)" x1="251.78502" y1="252.27863" x2="245.88219" y2="282.74863"/>
    <linearGradient inkscape:collect="always" xlink:href="#linearGradient2246" id="linearGradient2190" gradientUnits="userSpaceOnUse" gradientTransform="matrix(1.767671,0,0,1.767671,-118.9502,-178.9321)" x1="219.18752" y1="252.93388" x2="204.77161" y2="288.31842"/>
    <linearGradient inkscape:collect="always" xlink:href="#linearGradient2157" id="linearGradient2193" gradientUnits="userSpaceOnUse" gradientTransform="matrix(1.767671,0,0,1.767671,-123.5834,-189.3568)" x1="211.97955" y1="249.3299" x2="198.53685" y2="264.12857"/>
    <linearGradient inkscape:collect="always" xlink:href="#linearGradient2095" id="linearGradient2198" gradientUnits="userSpaceOnUse" gradientTransform="matrix(1.767671,0,0,1.767671,-123.5834,-189.3568)" x1="172.50716" y1="353.74036" x2="281.86826" y2="226.59734"/>
    <linearGradient inkscape:collect="always" xlink:href="#linearGradient2157" id="linearGradient2206" gradientUnits="userSpaceOnUse" gradientTransform="matrix(1.767671,0,0,1.767671,-123.5834,-189.3568)" x1="179.02625" y1="252.29132" x2="209.08774" y2="223.45949"/>
    <linearGradient inkscape:collect="always" xlink:href="#linearGradient2139" id="linearGradient2209" gradientUnits="userSpaceOnUse" gradientTransform="matrix(1.767671,0,0,1.767671,-123.5834,-189.3568)" x1="258.98334" y1="326.36765" x2="310.05603" y2="292.96024"/>
    <linearGradient inkscape:collect="always" xlink:href="#linearGradient2157" id="linearGradient2212" gradientUnits="userSpaceOnUse" gradientTransform="matrix(1.767671,0,0,1.767671,-123.5834,-189.3568)" x1="268.62442" y1="319.47238" x2="289.51697" y2="253.61783"/>
    <linearGradient inkscape:collect="always" xlink:href="#linearGradient2157" id="linearGradient2215" gradientUnits="userSpaceOnUse" gradientTransform="matrix(1.767671,0,0,1.767671,-123.5834,-189.3568)" x1="201.57849" y1="239.35637" x2="242.83888" y2="234.28432"/>
    <linearGradient inkscape:collect="always" xlink:href="#linearGradient2109" id="linearGradient2218" gradientUnits="userSpaceOnUse" gradientTransform="matrix(1.767671,0,0,1.767671,-123.5834,-189.3568)" x1="234.91397" y1="237.52748" x2="301.09616" y2="221.80101"/>
    <linearGradient inkscape:collect="always" xlink:href="#linearGradient2109" id="linearGradient2221" gradientUnits="userSpaceOnUse" gradientTransform="matrix(1.767671,0,0,1.767671,-125.2215,-189.3568)" x1="206.27116" y1="330.84174" x2="210.35875" y2="310.22971"/>
    <linearGradient inkscape:collect="always" xlink:href="#linearGradient2103" id="linearGradient2224" gradientUnits="userSpaceOnUse" gradientTransform="matrix(1.767671,0,0,1.767671,-123.5834,-189.3568)" x1="169.38705" y1="255.97105" x2="192.97676" y2="236.31299"/>
    <linearGradient inkscape:collect="always" xlink:href="#linearGradient2139" id="linearGradient2227" gradientUnits="userSpaceOnUse" gradientTransform="matrix(1.767671,0,0,1.767671,-123.5834,-189.3568)" x1="178.88847" y1="247.42438" x2="190.73177" y2="234.97426"/>
    <linearGradient inkscape:collect="always" xlink:href="#linearGradient2411" id="linearGradient2230" gradientUnits="userSpaceOnUse" gradientTransform="matrix(1.665369,-0.592628,0.592628,1.665369,-143.9189,-237.2587)" x1="118.01691" y1="432.28888" x2="130.0639" y2="432.28888"/>
    <linearGradient inkscape:collect="always" xlink:href="#linearGradient2210" id="linearGradient2208" x1="223.43185" y1="315.53705" x2="266.64297" y2="326.17712" gradientUnits="userSpaceOnUse"/>
    <linearGradient inkscape:collect="always" xlink:href="#linearGradient2210" id="linearGradient2225" x1="246.44319" y1="286.62564" x2="274.60806" y2="295.23157" gradientUnits="userSpaceOnUse" spreadMethod="pad"/>
    <linearGradient inkscape:collect="always" xlink:href="#linearGradient2188" id="linearGradient2245" x1="169.1572" y1="285.04037" x2="262.87698" y2="365.3429" gradientUnits="userSpaceOnUse"/>
    <linearGradient inkscape:collect="always" xlink:href="#linearGradient2246" id="linearGradient2261" x1="295.70102" y1="201.29819" x2="271.29471" y2="240.68681" gradientUnits="userSpaceOnUse"/>
    <linearGradient inkscape:collect="always" xlink:href="#linearGradient2211" id="linearGradient2277" x1="266.94077" y1="233.66713" x2="333.59772" y2="240.86482" gradientUnits="userSpaceOnUse"/>
    <linearGradient inkscape:collect="always" xlink:href="#linearGradient2263" id="linearGradient2289" x1="259.47806" y1="278.8197" x2="234.12964" y2="268.33612" gradientUnits="userSpaceOnUse"/>
    <linearGradient inkscape:collect="always" xlink:href="#linearGradient2188" id="linearGradient2299" x1="221.89732" y1="238.42915" x2="242.32558" y2="257.44046" gradientUnits="userSpaceOnUse"/>
    <linearGradient inkscape:collect="always" xlink:href="#linearGradient2319" id="linearGradient2317" x1="265.21158" y1="253.50258" x2="271.08725" y2="253.50258" gradientUnits="userSpaceOnUse"/>
    <linearGradient inkscape:collect="always" xlink:href="#linearGradient2319" id="linearGradient2327" gradientUnits="userSpaceOnUse" x1="265.21158" y1="253.50258" x2="271.08725" y2="253.50258" gradientTransform="translate(15.04734,-7.081102)"/>
    <linearGradient inkscape:collect="always" xlink:href="#linearGradient2319" id="linearGradient2331" gradientUnits="userSpaceOnUse" gradientTransform="translate(19.47303,-5.310827)" x1="265.21158" y1="253.50258" x2="271.08725" y2="253.50258"/>
    <linearGradient inkscape:collect="always" xlink:href="#linearGradient2319" id="linearGradient2335" gradientUnits="userSpaceOnUse" gradientTransform="translate(-5.310826,1.770275)" x1="264.75015" y1="255.25926" x2="271.08725" y2="253.50258"/>
    <linearGradient inkscape:collect="always" xlink:href="#linearGradient2319" id="linearGradient2339" gradientUnits="userSpaceOnUse" gradientTransform="translate(6.195964,1.770275)" x1="266.93277" y1="253.50258" x2="271.08725" y2="253.50258"/>
    <linearGradient inkscape:collect="always" xlink:href="#linearGradient2199" id="linearGradient2750" gradientUnits="userSpaceOnUse" x1="307.77158" y1="348.36035" x2="290.96765" y2="94.694733"/>
  </defs>
  <sodipodi:namedview id="base" pagecolor="#ffffff" bordercolor="#666666" borderopacity="1.0" inkscape:pageopacity="0.0" inkscape:pageshadow="2" inkscape:zoom="0.9305706" inkscape:cx="186.02362" inkscape:cy="269.37677" inkscape:document-units="px" inkscape:current-layer="layer1" inkscape:window-width="1280" inkscape:window-height="778" inkscape:window-x="0" inkscape:window-y="0" showguides="true" inkscape:guide-bbox="true" showgrid="false"/>
  <g inkscape:label="Layer 1" inkscape:groupmode="layer" id="layer1" transform="translate(-36.73345,-101.57955)">
    <g id="g1635" transform="translate(-122.1103,-24.5228)">
      <path sodipodi:nodetypes="ccccc" id="rect1665" d="M 302.219,394.20232 L 322.28169,387.06294 L 330.45498,415.33934 C 317.92581,418.55364 322.92147,445.55166 327.91713,460.03193 L 302.219,394.20232 z" style="fill:url(#linearGradient2230);fill-opacity:1;fill-rule:nonzero;stroke:none;stroke-width:0.86250001;stroke-linecap:round;stroke-linejoin:round;stroke-miterlimit:4;stroke-dasharray:1.725, 0.8625;stroke-dashoffset:0;stroke-opacity:1"/>
      <path sodipodi:nodetypes="ccssc" id="path2129" d="M 183.36615,213.73169 L 216.95684,228.78959 C 216.95684,228.78959 221.16433,247.25331 220.43175,253.1139 C 219.27345,262.38029 206.29242,252.41517 197.26575,242.6892 C 190.43614,235.33047 184.52445,213.73169 183.36615,213.73169 z" style="fill:url(#linearGradient2227);fill-opacity:1;fill-rule:evenodd;stroke:none;stroke-width:0.25pt;stroke-linecap:butt;stroke-linejoin:miter;stroke-opacity:1"/>
      <path sodipodi:nodetypes="ccscsc" id="path2117" d="M 175.83719,251.95559 L 180.4704,213.73169 C 180.4704,213.73169 190.40685,211.82731 194.37,233.42278 C 196.0841,242.76294 221.01091,255.43048 221.01091,255.43048 C 221.01091,255.43048 218.69431,267.0135 217.536,270.48839 C 216.3777,273.96329 175.83719,250.79729 175.83719,251.95559 z" style="fill:url(#linearGradient2224);fill-opacity:1;fill-rule:evenodd;stroke:none;stroke-width:0.25pt;stroke-linecap:butt;stroke-linejoin:miter;stroke-opacity:1"/>
      <path sodipodi:nodetypes="csssc" id="path2441" d="M 307.23265,393.98695 C 292.4899,382.52035 260.54726,365.32049 225.32846,360.40624 C 189.84904,355.45563 158.97076,363.88501 167.99552,376.78707 C 176.96535,389.6106 229.31341,393.87781 268.73767,402.99642 C 291.13792,408.17746 306.41362,398.9012 307.23265,393.98695 z" style="fill:url(#linearGradient2221);fill-opacity:1;fill-rule:evenodd;stroke:none;stroke-width:0.25pt;stroke-linecap:butt;stroke-linejoin:miter;stroke-opacity:1"/>
      <path id="path2187" d="M 356.53202,213.15253 C 356.53202,213.15253 376.22314,208.51934 385.48953,198.09462 C 394.75593,187.66992 401.70574,170.29543 413.28874,171.45372 C 424.87174,172.61202 430.66323,202.72783 430.66323,213.15253 C 430.66323,223.57723 394.75593,258.32624 378.53972,257.16794 C 362.32353,256.00964 357.69033,213.15253 356.53202,213.15253 z" style="fill:url(#linearGradient2218);fill-opacity:1;fill-rule:evenodd;stroke:none;stroke-width:0.25pt;stroke-linecap:butt;stroke-linejoin:miter;stroke-opacity:1"/>
      <path sodipodi:nodetypes="cscsssc" id="path2165" d="M 254.02247,187.66992 C 254.02247,187.66992 264.44716,129.75492 284.13826,126.28002 C 303.82937,122.80511 320.04556,171.45372 320.04556,171.45372 C 320.04556,171.45372 337.42007,152.92092 351.31967,152.92092 C 365.21928,152.92092 376.80228,245.58494 376.80228,250.21813 C 376.80228,254.85134 375.88272,309.93492 371.01077,309.29145 C 248.23096,293.07524 255.18077,189.98653 254.02247,187.66992 z" style="fill:url(#linearGradient2215);fill-opacity:1;fill-rule:evenodd;stroke:none;stroke-width:0.25pt;stroke-linecap:butt;stroke-linejoin:miter;stroke-opacity:1"/>
      <path sodipodi:nodetypes="cssssc" id="path2175" d="M 346.10733,284.38799 C 346.10733,284.38799 377.38144,243.84748 391.28102,231.10618 C 405.18063,218.36488 437.49922,193.14696 449.19604,205.62358 C 466.57055,224.15639 444.56283,275.12159 416.76363,312.1872 C 388.96444,349.2528 364.64014,366.62731 362.32353,366.62731 C 360.00693,366.62731 344.94902,284.38799 346.10733,284.38799 z" style="fill:url(#linearGradient2212);fill-opacity:1;fill-rule:evenodd;stroke:none;stroke-width:0.25pt;stroke-linecap:butt;stroke-linejoin:miter;stroke-opacity:1"/>
      <path sodipodi:nodetypes="csssc" id="path2419" d="M 315.83261,397.91835 C 315.83261,397.91835 324.0443,413.65735 351.46091,401.35833 C 384.21639,386.66432 419.86052,344.45488 430.08893,335.83498 C 436.33912,330.56769 431.72703,307.98755 394.05109,339.11114 C 384.94419,346.63423 314.19452,379.89943 315.83261,397.91835 z" style="fill:url(#linearGradient2209);fill-opacity:1;fill-rule:evenodd;stroke:none;stroke-width:0.25pt;stroke-linecap:butt;stroke-linejoin:miter;stroke-opacity:1"/>
      <path sodipodi:nodetypes="csssssc" id="path2147" d="M 219.85261,254.85134 C 216.3777,244.42664 214.0611,170.29543 227.9607,166.82053 C 241.86031,163.34562 271.97612,192.30313 274.29272,196.93634 C 275.45101,199.25293 275.90999,200.83739 276.23239,200.209 C 277.36948,197.99265 269.65951,207.36104 268.50121,209.67764 C 266.18461,214.31083 243.01861,250.21813 245.33521,261.80113 C 247.65182,273.38415 219.85261,254.85134 219.85261,254.85134 z" style="fill:url(#linearGradient2206);fill-opacity:1;fill-rule:evenodd;stroke:none;stroke-width:0.25pt;stroke-linecap:butt;stroke-linejoin:miter;stroke-opacity:1"/>
      <g transform="matrix(1.767671,0,0,1.767671,-123.5834,-189.3568)" id="g2219">
        <path style="fill:none;fill-opacity:0.75;fill-rule:evenodd;stroke:#000000;stroke-width:0.25pt;stroke-linecap:butt;stroke-linejoin:miter;stroke-opacity:1" d="M 272.26431,227.70602 L 272.26431,227.70602 z" id="path2189"/>
        <path style="fill:#eeef6c;fill-opacity:1;fill-rule:evenodd;stroke:none;stroke-width:0.25pt;stroke-linecap:butt;stroke-linejoin:miter;stroke-opacity:1" d="M 194.61492,247.69173 C 194.61492,247.69173 192.32148,241.46667 194.94256,240.15614 C 197.56363,238.8456 207.39267,244.74302 209.35848,244.74302 C 211.32428,244.74302 210.01375,230.3271 214.60063,227.70602 C 219.18751,225.08495 225.08494,227.70602 229.01655,230.98237 C 232.94816,234.25871 233.60343,236.22452 233.60343,236.22452 C 233.60343,236.22452 231.63763,230.98237 238.84559,229.01656 C 246.05355,227.05075 250.64043,229.67183 253.26151,233.60344 C 255.88258,237.53506 258.50366,255.22732 258.50366,255.22732 C 258.50366,255.22732 259.15893,263.09055 259.15893,265.05636 C 259.15893,267.02217 211.32428,274.23013 208.04794,270.29851 C 204.77159,266.3669 194.28729,248.01936 194.61492,247.69173 z" id="path2199"/>
        <path id="path2201" d="M 194.61492,247.69173 C 194.61492,247.69173 192.32148,241.46667 194.94256,240.15614 C 197.56363,238.8456 207.39267,244.74302 209.35848,244.74302 C 211.32428,244.74302 210.01375,230.3271 214.60063,227.70602 C 219.18751,225.08495 225.08494,227.70602 229.01655,230.98237 C 232.94816,234.25871 233.60343,236.22452 233.60343,236.22452 C 233.60343,236.22452 231.63763,230.98237 238.84559,229.01656 C 246.05355,227.05075 250.64043,229.67183 253.26151,233.60344 C 255.88258,237.53506 258.50366,255.22732 258.50366,255.22732 C 258.50366,255.22732 259.15893,263.09055 259.15893,265.05636 C 259.15893,267.02217 211.32428,274.23013 208.04794,270.29851 C 204.77159,266.3669 194.28729,248.01936 194.61492,247.69173 z" style="fill:url(#linearGradient2358);fill-opacity:1;fill-rule:evenodd;stroke:none;stroke-width:0.25pt;stroke-linecap:butt;stroke-linejoin:miter;stroke-opacity:1"/>
        <path style="fill:url(#linearGradient2360);fill-opacity:1;fill-rule:evenodd;stroke:none;stroke-width:0.25pt;stroke-linecap:butt;stroke-linejoin:miter;stroke-opacity:1" d="M 194.61492,247.69173 C 194.61492,247.69173 192.32148,241.46667 194.94256,240.15614 C 197.56363,238.8456 207.39267,244.74302 209.35848,244.74302 C 211.32428,244.74302 210.01375,230.3271 214.60063,227.70602 C 219.18751,225.08495 225.08494,227.70602 229.01655,230.98237 C 232.94816,234.25871 233.60343,236.22452 233.60343,236.22452 C 233.60343,236.22452 231.63763,230.98237 238.84559,229.01656 C 246.05355,227.05075 250.64043,229.67183 253.26151,233.60344 C 255.88258,237.53506 258.50366,255.22732 258.50366,255.22732 C 258.50366,255.22732 259.15893,263.09055 259.15893,265.05636 C 259.15893,267.02217 211.32428,274.23013 208.04794,270.29851 C 204.77159,266.3669 194.28729,248.01936 194.61492,247.69173 z" id="path2308"/>
      </g>
      <path sodipodi:nodetypes="cscscssscccsssc" id="path1359" d="M 305.56682,393.84736 C 270.81782,388.05587 230.65513,362.3187 211.7445,345.19875 C 186.74959,322.57066 159.62099,246.74324 159.62099,246.74324 C 159.62099,246.74324 171.71174,234.65715 181.87576,240.70468 C 202.39699,252.91467 218.69431,262.95943 218.69431,262.95943 C 218.69431,262.95943 223.50928,299.56329 231.43561,294.23355 C 243.08965,286.39725 238.3854,278.01734 244.17691,275.70074 C 249.66067,273.50723 274.62434,271.66041 283.55912,265.27604 C 288.3439,261.85706 281.24251,249.05983 281.24251,249.05983 L 298.61702,253.69304 L 305.56682,244.42664 C 305.56682,244.42664 317.14982,261.80113 326.41621,266.43434 C 335.68263,271.06755 337.99923,251.37643 350.74053,252.53474 C 363.48183,253.69304 387.29181,316.87607 373.90653,344.04045 C 352.12508,388.24421 305.56682,395.00566 305.56682,393.84736 z" style="fill:url(#linearGradient2198);fill-opacity:1;fill-rule:evenodd;stroke:none;stroke-width:0.25pt;stroke-linecap:butt;stroke-linejoin:miter;stroke-opacity:1"/>
      <path sodipodi:nodetypes="ccscssc" id="path2176" d="M 222.50279,289.09313 L 250.6677,274.07185 C 250.6677,274.07185 254.01536,294.98139 257.55245,308.80857 C 264.00408,334.02928 267.09723,342.60646 267.09723,342.60646 C 267.09723,342.60646 268.35925,373.40582 268.19252,373.27492 C 245.55889,355.50519 234.54843,329.1538 231.57815,320.85689 C 229.49347,315.03375 222.18984,288.93666 222.50279,289.09313 z" style="fill:url(#linearGradient2208);fill-opacity:1;fill-rule:evenodd;stroke:none;stroke-width:0.25pt;stroke-linecap:butt;stroke-linejoin:miter;stroke-opacity:1"/>
      <path sodipodi:nodetypes="cssscssccsssc" id="path2224" d="M 253.44331,253.69304 C 257.20779,250.50771 259.58386,258.63585 258.39334,252.7178 C 255.36365,237.67054 264.29534,253.43499 264.58484,252.13591 C 265.21302,249.31713 264.74474,246.27063 265.44943,244.24177 C 265.57652,243.87588 268.50121,239.79343 268.50121,239.79343 C 268.50121,239.79343 269.43823,253.09483 271.75484,253.09483 C 272.91314,253.09483 272.28475,245.70774 274.0222,246.28689 C 275.75964,246.86604 280.08421,252.53474 280.08421,252.53474 L 281.24251,230.52704 C 281.24251,230.52704 288.19231,242.11004 290.50891,250.21813 C 292.82551,258.32624 284.71742,266.43434 277.76761,266.43434 C 270.81782,266.43434 267.34291,268.75094 261.55142,268.75094 C 255.75991,268.75094 253.44331,253.69304 253.44331,253.69304 z" style="fill:#bcb839;fill-opacity:1;fill-rule:evenodd;stroke:none;stroke-width:0.25pt;stroke-linecap:butt;stroke-linejoin:miter;stroke-opacity:1"/>
      <path sodipodi:nodetypes="cscsscssc" id="path2236" d="M 251.70586,250.21813 C 250.54756,258.32624 248.23096,267.59264 251.70586,273.38413 C 255.18077,279.17564 266.76377,287.28374 266.76377,287.28374 C 266.76377,287.28374 265.60547,284.96713 269.08037,281.49224 C 272.55528,278.01734 280.66337,278.01734 286.45486,275.70074 C 292.24637,273.38413 284.13828,259.48453 284.13828,259.48453 C 284.13828,259.48453 276.03016,259.48453 272.55528,264.11774 C 269.08037,268.75094 269.08037,267.59264 263.28886,265.27604 C 257.49737,262.95945 251.70586,250.21813 251.70586,250.21813 z" style="fill:url(#linearGradient2190);fill-opacity:1;fill-rule:evenodd;stroke:none;stroke-width:0.25pt;stroke-linecap:butt;stroke-linejoin:miter;stroke-opacity:1"/>
      <path sodipodi:nodetypes="cccscscssc" id="path2252" d="M 296.87956,246.74324 C 291.08805,246.74324 285.29656,264.11775 285.29656,264.11775 L 294.56296,257.16796 C 294.56296,257.16796 302.85552,260.79851 306.49675,259.98758 C 310.65746,259.06096 308.46256,252.53474 308.46256,252.53474 C 308.46256,252.53474 315.41235,256.00964 318.88726,264.11774 C 322.36217,272.22585 322.36217,284.96715 322.36217,284.96715 C 322.36217,284.96715 330.47026,273.38415 330.47026,266.43434 C 330.47026,259.48455 317.72896,251.37643 313.09577,249.05985 C 308.46256,246.74324 296.87956,246.74324 296.87956,246.74324 z" style="fill:url(#linearGradient2187);fill-opacity:1;fill-rule:evenodd;stroke:none;stroke-width:0.25pt;stroke-linecap:butt;stroke-linejoin:miter;stroke-opacity:1"/>
      <path sodipodi:nodetypes="csssssssc" id="path2272" d="M 291.66721,293.07524 C 291.66721,293.07524 282.40082,296.55015 277.76761,303.49994 C 273.1344,310.44975 261.5514,357.94006 266.18461,368.36475 C 270.81782,378.78945 282.40082,393.84736 293.98382,393.84736 C 305.56682,393.84736 321.78302,390.95161 331.04942,386.89756 C 340.31582,382.8435 350.74051,370.68136 354.21542,355.62345 C 357.69033,340.56555 351.89882,317.39955 343.79072,308.13315 C 335.68263,298.86674 319.46642,288.44206 313.67491,289.60036 C 307.88342,290.75864 292.82551,290.75864 291.66721,293.07524 z" style="fill:url(#linearGradient2184);fill-opacity:1;fill-rule:evenodd;stroke:none;stroke-width:0.25pt;stroke-linecap:butt;stroke-linejoin:miter;stroke-opacity:1"/>
      <path sodipodi:nodetypes="cscsscsc" id="path2262" d="M 302.67109,290.75864 C 309.62088,287.28374 323.27697,287.50259 331.62858,296.55015 C 345.5282,311.60804 338.57839,332.45745 338.57839,332.45745 C 338.57839,332.45745 328.15369,311.60804 321.20388,305.81655 C 314.25409,300.02504 306.14598,293.07524 302.67109,295.39185 C 299.19618,297.70845 299.19618,308.13315 299.19618,308.13315 C 299.19618,308.13315 292.37488,297.35704 294.56298,294.23355 C 295.75336,292.53428 298.03788,293.07524 302.67109,290.75864 z" style="fill:url(#linearGradient2180);fill-opacity:1;fill-rule:evenodd;stroke:none;stroke-width:0.25pt;stroke-linecap:butt;stroke-linejoin:miter;stroke-opacity:1"/>
      <path sodipodi:nodetypes="csszsssc" id="path2282" d="M 171.07903,365.65595 C 172.56551,367.72261 167.14995,377.05202 190.31596,382.84352 C 201.89896,385.73927 233.21582,394.8876 249.04408,398.57781 C 286.31425,407.26699 300.76076,399.4194 300.59034,400.18082 C 300.47356,400.7026 285.29656,409.48441 269.08035,411.80101 C 252.86416,414.11761 183.94531,392.68906 173.52059,386.89756 C 163.09589,381.10606 165.01975,374.55897 166.5708,370.68136 C 168.8874,364.88985 170.73457,365.90692 171.07903,365.65595 z" style="fill:url(#linearGradient2177);fill-opacity:1;fill-rule:evenodd;stroke:none;stroke-width:0.25pt;stroke-linecap:butt;stroke-linejoin:miter;stroke-opacity:1"/>
      <path sodipodi:nodetypes="cssssss" id="path2292" d="M 323.66691,404.38871 C 332.31581,401.11029 344.41166,401.73694 359.70958,394.94999 C 375.0075,388.16305 395.72601,368.50468 397.92774,366.58513 C 414.65133,352.0049 432.56337,329.05514 432.50005,329.46235 C 430.90344,339.72947 433.31909,335.45258 427.18833,352.14856 C 423.75376,361.50197 393.02001,386.59544 379.69802,395.00566 C 361.38693,406.56551 322.71237,404.75054 323.66691,404.38871 z" style="fill:url(#linearGradient2174);fill-opacity:1;fill-rule:evenodd;stroke:none;stroke-width:0.25pt;stroke-linecap:butt;stroke-linejoin:miter;stroke-opacity:1"/>
      <path sodipodi:nodetypes="csscssssscssssssssscssssssssssscsssssssssssssccsssssssssssssssssscsssscssssssscssssscssccsscscssssscscssssssscssscssssscscsssssssssssssssssssssssssscccsssssssssssssssssscssscsssssssssssssssssssssssscscssssscscscssc" id="path2312" d="M 282.34375,126.8125 C 278.49442,127.1295 275.04985,130.73237 271.875,135.75 C 268.70015,140.76763 265.79449,147.29597 263.34375,153.78125 C 258.77716,165.86562 256.02024,176.8929 255.625,178.46875 C 254.69112,177.38024 251.70295,174.01087 246.78125,170.71875 C 241.0063,166.8559 233.17199,163.80764 225.375,167.40625 C 223.92499,168.07549 222.82971,169.60042 221.90625,171.6875 C 220.98279,173.77458 220.25368,176.46116 219.625,179.53125 C 218.36763,185.67143 217.60713,193.39608 217.15625,200.96875 C 216.31123,215.16108 216.53124,227.86474 216.5625,229.53125 C 215.27005,228.7123 209.37273,225.01144 202,221.125 C 197.8889,218.95789 193.54744,216.87447 189.75,215.5 C 185.95256,214.12553 182.75391,213.38336 180.59375,214.21875 C 180.23709,214.35668 180.0143,214.61909 179.84375,214.90625 C 179.6732,215.19341 179.52991,215.51455 179.40625,215.90625 C 179.15893,216.68966 178.95674,217.7006 178.78125,218.875 C 178.43027,221.2238 178.18778,224.21653 177.96875,227.1875 C 177.74972,230.15847 177.56443,233.1096 177.34375,235.28125 C 177.23341,236.36707 177.12683,237.25588 177,237.84375 C 176.94618,238.09319 176.88576,238.26633 176.84375,238.375 C 173.10361,238.3702 168.78653,240.05694 165.3125,241.90625 C 163.52847,242.85593 161.96997,243.84673 160.84375,244.6875 C 160.28064,245.10789 159.83525,245.4753 159.5,245.8125 C 159.33237,245.9811 159.20602,246.14801 159.09375,246.3125 C 158.98148,246.47699 158.84375,246.62824 158.84375,246.9375 C 158.84375,247.4059 158.99786,247.92914 159.25,248.75 C 159.50214,249.57086 159.87096,250.62105 160.34375,251.90625 C 161.28932,254.47665 162.67438,257.93174 164.375,262 C 167.77625,270.13653 172.47948,280.739 177.8125,291.71875 C 183.14552,302.6985 189.09769,314.05649 194.90625,323.65625 C 200.71481,333.25601 206.36004,341.10795 211.28125,345.15625 C 220.53049,352.76486 228.77716,358.95015 230.78125,360.46875 C 227.74069,359.62391 220.87827,357.9526 208.46875,358 C 200.57739,358.03015 191.10627,358.89314 183.1875,360.53125 C 179.22811,361.35031 175.63778,362.35991 172.84375,363.59375 C 170.04972,364.82759 167.99682,366.24448 167.15625,368.09375 C 165.67881,371.34411 165.05356,374.15749 165.25,376.65625 C 165.44644,379.15501 166.48741,381.33585 168.15625,383.21875 C 171.49393,386.98456 177.35443,389.71328 184.875,392.6875 C 189.61689,394.56281 207.92267,399.88323 226.625,404.5 C 235.97616,406.80838 245.3912,408.94096 253.21875,410.34375 C 261.0463,411.74654 267.2175,412.47525 270.375,411.84375 C 282.02572,409.5136 286.74289,406.56548 296.09375,403.125 C 301.09777,401.28386 303.97267,399.02979 305.59375,397.21875 C 306.40429,396.31323 306.92275,395.51861 307.21875,394.9375 C 307.39903,394.58357 307.37933,394.51582 307.4375,394.34375 L 315.8125,392.25 C 315.75193,393.04697 315.64358,394.18242 315.375,396.0625 C 315.06614,398.2245 316.58768,399.89848 317.69738,401.23487 C 318.7836,402.54297 320.02357,403.32621 321.46679,404.14966 C 323.5237,405.32327 324.14672,405.33485 325.59669,405.66249 C 325.95588,405.74365 329.03379,406.4322 330.20263,406.32532 C 331.37147,406.21844 332.57429,406.80234 334.40625,406.59375 C 338.07017,406.17657 342.85912,405.54803 347.9375,404.75 C 358.09426,403.15394 369.37965,400.85705 375.34375,397.875 C 381.32734,394.8832 391.09493,388.6191 402.06215,379.08457 C 407.54576,374.3173 412.73052,369.621 416.62465,365.89707 C 418.57172,364.03511 422.55401,358.89577 423.75,357.625 C 424.348,356.98962 424.84701,356.45454 425.21875,356 C 425.59049,355.54546 429.11162,347.3258 429.27635,346.98052 C 430.10299,345.24776 430.60108,342.81966 431.6875,336.5625 C 432.23071,333.43392 432.4321,330.50711 432.03125,328.0625 C 431.6304,325.61789 430.58715,323.60607 428.625,322.625 C 426.5497,321.58735 423.59392,322.23331 420.21875,323.53125 C 416.84358,324.82919 413.03897,326.88602 409.46875,329.03125 C 405.40005,331.476 402.03167,333.76053 399.53125,335.53125 C 406.05281,327.1226 436.13078,287.71566 448.625,258.5625 C 455.60258,242.28147 457.35304,230.61948 456.46875,222.21875 C 455.58446,213.81802 452.02335,208.70695 448.4375,205.71875 C 445.36396,203.15747 440.86293,202.93516 437.15625,203.28125 C 434.06982,203.56943 431.90217,204.17713 431.125,204.40625 C 430.91231,203.4669 429.32679,196.62322 426.46875,188.96875 C 424.93903,184.87182 423.09611,180.70938 420.9375,177.375 C 418.77889,174.04062 416.32324,171.48502 413.4375,170.84375 C 410.61279,170.21604 407.82255,171.18051 405.25,173 C 402.67745,174.81949 400.27299,177.49723 398.03125,180.4375 C 393.54776,186.31804 389.06487,192.74486 386.6289,195.99283 C 385.03693,198.11544 381.56008,201.50453 377.84375,203.6875 C 374.54563,205.62481 372.24933,206.72158 371.625,207.03125 C 371.5048,205.63259 370.52174,194.65895 367.375,182.28125 C 365.69881,175.68797 363.45129,168.92757 360.40625,163.4375 C 357.36121,157.94743 353.50836,153.69351 348.59375,152.3125 C 346.03857,151.59449 343.00999,152.42799 339.90625,153.96875 C 336.80251,155.50951 333.60903,157.80577 330.6875,160.15625 C 325.52661,164.30838 321.79677,168.18586 320.875,169.15625 C 320.43875,167.76213 317.35821,158.06795 311.28125,147.78125 C 308.01836,142.25804 303.97852,136.77448 299.15625,132.78125 C 294.33398,128.78802 288.69127,126.28977 282.34375,126.8125 z M 282.4375,128.0625 C 288.39692,127.57173 293.69149,129.89755 298.34375,133.75 C 302.99601,137.60245 306.97115,142.99306 310.1875,148.4375 C 316.62021,159.32639 320.03125,170.46875 320.03125,170.46875 C 320.09574,170.68469 320.27077,170.84966 320.49014,170.90128 C 320.70951,170.9529 320.93974,170.88328 321.09375,170.71875 C 321.09375,170.71875 325.71106,165.75728 331.46875,161.125 C 334.34759,158.80886 337.49806,156.56847 340.46875,155.09375 C 343.43944,153.61903 346.20746,152.9573 348.25,153.53125 C 352.67627,154.77504 356.35246,158.72568 359.3125,164.0625 C 362.27254,169.39932 364.4961,176.06357 366.15625,182.59375 C 369.47654,195.65411 370.46875,208.09375 370.46875,208.09375 C 370.48962,208.29925 374.25588,230.12882 374.43674,230.22861 C 374.6176,230.32839 371.19003,208.68569 371.375,208.59375 C 371.375,208.59375 374.70582,206.99159 378.46875,204.78125 C 382.23168,202.57091 385.74596,199.25341 387.6289,196.74283 C 390.20449,193.3087 394.6325,186.9569 399.03125,181.1875 C 401.23062,178.3028 403.56905,175.72849 405.96875,174.03125 C 408.36845,172.33401 410.76861,171.53192 413.15625,172.0625 C 415.48287,172.57953 417.79858,174.82384 419.875,178.03125 C 421.95142,181.23866 423.77043,185.35994 425.28125,189.40625 C 428.30288,197.49887 429.3789,204.458 429.3789,204.458 C 429.39777,204.54197 420.83143,208.20916 413.41817,213.00576 C 406.00491,217.80236 399.74472,223.72838 399.81853,223.77266 C 399.89233,223.81695 406.35388,218.13422 413.95705,213.57405 C 421.56023,209.01387 430.30504,205.57625 430.38802,205.55338 C 430.38802,205.55338 433.7251,204.86329 437.28125,204.53125 C 440.8374,204.19921 445.00082,204.50069 447.625,206.6875 C 450.98895,209.49078 454.36559,214.2387 455.21875,222.34375 C 456.07191,230.4488 454.39077,241.94237 447.46875,258.09375 C 433.68852,290.24761 396.01513,336.76797 395.73487,337.04835 C 395.2426,337.54082 391.62759,340.41844 391.62759,340.41844 C 391.37734,340.66006 370.23391,352.6591 370.56144,352.77627 C 370.80307,352.86271 396.42968,338.78142 396.67993,338.5398 C 396.67993,338.5398 403.05569,334.34148 410.125,330.09375 C 413.65966,327.96989 417.39967,325.97109 420.65625,324.71875 C 423.91283,323.46641 426.66289,323.05019 428.0625,323.75 C 429.57524,324.50637 430.41781,326.06477 430.78125,328.28125 C 430.87211,328.83537 431.00134,329.46565 430.78544,330.05252 C 429.59162,333.29765 411.59688,352.64718 411.56817,353.32994 C 411.53945,354.01271 430.3077,332.36789 430.44246,333.08849 C 430.70938,334.51573 430.601,335.6133 430.46875,336.375 C 429.41073,342.46856 428.59064,344.65067 428.1201,346.48052 C 428.09834,346.56513 424.59219,354.76909 424.25,355.1875 C 423.90781,355.60591 423.42912,356.12803 422.84375,356.75 C 421.67301,357.99393 417.68665,363.13848 415.74965,364.99082 C 411.87566,368.69549 406.71998,373.39135 401.24965,378.14707 C 390.30899,387.65851 380.38066,393.95029 374.78125,396.75 C 369.16236,399.55944 357.8635,401.91073 347.75,403.5 C 342.69325,404.29463 337.92911,404.9284 334.28125,405.34375 C 332.45732,405.55143 331.23445,404.96954 330.07763,405.07532 C 328.92081,405.1811 327.93723,405.27253 325.59669,404.41249 C 324.70637,404.08533 324.71771,404.57618 322.09179,403.05591 C 320.77883,402.29577 319.78446,401.70831 318.75988,400.54737 C 317.78935,399.44766 316.35471,398.14205 316.625,396.25 C 316.91576,394.21467 317.52893,392.90657 317.5852,392.0625 C 317.61334,391.64047 323.16381,390.26667 323.39101,390.19276 C 332.06632,387.37052 334.68028,384.74842 334.58124,384.80192 C 329.47683,387.55922 328.09909,388.24798 317.12073,390.70263 C 316.89105,390.75399 315.64851,390.72328 315.59375,390.84375 C 315.56525,390.90646 315.55461,390.91071 315.53125,390.96875 L 306.84375,393.1875 C 306.6112,393.24213 306.42963,393.4237 306.375,393.65625 C 306.375,393.65625 306.34264,393.88638 306.09375,394.375 C 305.84486,394.86362 305.39261,395.58361 304.65625,396.40625 C 303.18354,398.05153 300.49697,400.15644 295.65625,401.9375 C 286.21688,405.41054 281.64028,408.29068 270.125,410.59375 C 267.491,411.12055 261.25196,410.48859 253.46875,409.09375 C 245.68554,407.69891 236.27186,405.58549 226.9375,403.28125 C 208.26879,398.67278 189.80485,393.29551 185.34375,391.53125 C 177.86462,388.57342 172.14127,385.81343 169.09375,382.375 C 167.56999,380.65578 166.70586,378.78358 166.53125,376.5625 C 166.35664,374.34142 166.89418,371.74529 168.3125,368.625 C 168.46433,368.29098 170.2548,366.7818 170.54969,366.44783 C 170.69713,366.28084 170.59064,370.54645 172.48335,373.45286 C 174.37606,376.35926 178.58091,378.53236 178.43216,378.40506 C 178.29615,378.28867 174.71519,376.23811 173.1149,373.23857 C 171.51461,370.23903 171.58205,365.50814 171.85809,365.3511 C 172.41017,365.03704 172.70879,365.0442 173.375,364.75 C 176.03985,363.57321 179.53422,362.55745 183.4375,361.75 C 191.24405,360.1351 200.66307,359.31108 208.46875,359.28125 C 224.0801,359.22163 233.21875,362.34375 233.21875,362.34375 C 233.36176,362.3819 245.72912,370.41827 251.82249,374.01042 C 257.91586,377.60256 276.03739,385.0907 276.10508,384.95908 C 276.17277,384.82746 258.06163,377.09388 252.06784,373.3081 C 246.07405,369.52232 233.89547,361.34413 233.78125,361.25 C 233.78125,361.25 222.38431,352.65272 212.09375,344.1875 C 207.42747,340.34892 201.74645,332.54876 195.96875,323 C 190.19105,313.45124 184.29032,302.14369 178.96875,291.1875 C 173.64718,280.23131 168.92251,269.61262 165.53125,261.5 C 163.83562,257.44369 162.46695,254.01231 161.53125,251.46875 C 161.0634,250.19697 160.70982,249.15985 160.46875,248.375 C 160.23759,247.62243 160.13347,247.09311 160.125,247 C 160.16952,246.93477 160.24246,246.82081 160.375,246.6875 C 160.64008,246.42088 161.06351,246.08334 161.59375,245.6875 C 162.65422,244.89581 164.17536,243.92139 165.90625,243 C 169.36802,241.15722 173.9317,239.16485 177.24853,239.84081 C 177.8715,239.96777 179.75038,239.6272 182.1061,240.99982 C 187.32313,244.03966 199.15328,251.14063 199.21302,251.07913 C 199.27276,251.01762 187.67825,243.60472 182.49952,240.63884 C 177.32079,237.67295 177.94018,239.03055 177.96875,238.96875 C 178.083,238.72155 178.14518,238.46601 178.21875,238.125 C 178.3659,237.44298 178.4813,236.51288 178.59375,235.40625 C 178.81866,233.19299 179.00031,230.24422 179.21875,227.28125 C 179.43719,224.31828 179.69067,221.3417 180.03125,219.0625 C 180.20154,217.9229 180.41386,216.95005 180.625,216.28125 C 180.73057,215.94685 180.8445,215.68783 180.9375,215.53125 C 181.0305,215.37467 181.08595,215.35385 181.03125,215.375 C 182.48652,214.81221 185.64071,215.3472 189.34375,216.6875 C 193.04679,218.0278 197.32443,220.09832 201.40625,222.25 C 209.56989,226.55335 216.84375,231.1875 216.84375,231.1875 C 217.03765,231.31167 218.51918,249.41723 218.72106,249.30652 C 218.92295,249.19581 217.81296,230.8865 217.8125,230.65625 C 217.8125,230.65625 217.50836,216.1115 218.40625,201.03125 C 218.85519,193.49113 219.60823,185.81475 220.84375,179.78125 C 221.46151,176.7645 222.19835,174.17179 223.0625,172.21875 C 223.92665,170.26571 224.93224,169.01204 225.90625,168.5625 C 233.16718,165.2113 240.4679,168.00778 246.0625,171.75 C 251.6571,175.49222 255.4375,180.125 255.4375,180.125 C 255.51335,180.21594 262.00421,185.31559 266.28142,188.90356 C 270.55863,192.49152 272.62219,194.56779 272.73763,194.5414 C 272.85307,194.51501 271.10327,192.14114 267.10826,188.26279 C 263.11325,184.38445 256.87303,179.00162 256.90184,178.88676 C 256.90184,178.88676 259.66357,167.09987 264.53125,154.21875 C 266.96509,147.77819 269.84253,141.32889 272.9375,136.4375 C 276.03247,131.54611 279.33647,128.31788 282.4375,128.0625 z" style="fill:url(#linearGradient2750);fill-opacity:0.61256546;fill-rule:evenodd;stroke:none;stroke-width:1.25858176;stroke-linecap:butt;stroke-linejoin:round;stroke-miterlimit:4;stroke-dasharray:none;stroke-opacity:1"/>
      <path sodipodi:nodetypes="cssssscsssssss" id="path2223" d="M 265.93441,367.86092 C 266.5118,369.65301 266.93824,371.30907 271.82002,378.53125 C 273.49293,381.00618 277.35347,386.42694 281.40625,389.8125 C 285.45903,393.19806 290.50897,395.47991 297.25,394.46875 C 302.09446,393.74208 304.37889,393.57672 305.375,393.59375 C 305.87305,393.60226 306.15783,394.43089 306.20042,394.32002 L 306.62927,393.20362 C 306.62927,393.20362 306.52112,392.92131 306.30498,392.76833 C 305.8828,392.46951 305.9866,392.29117 305.40625,392.28125 C 304.24555,392.26141 301.93833,392.42488 297.0625,393.15625 C 290.69816,394.11091 286.12086,392.01484 282.25,388.78125 C 278.37914,385.54766 272.59158,378.67492 272.09375,377.88792 C 269.65115,374.02655 265.98328,371.27979 265.02373,361.29417 C 265.00886,361.13941 265.03152,365.05853 265.93441,367.86092 z" style="fill:#000000;fill-opacity:0.65968586;fill-rule:evenodd;stroke:none;stroke-width:1.31200004;stroke-linecap:butt;stroke-linejoin:miter;stroke-miterlimit:4;stroke-dasharray:none;stroke-opacity:1"/>
      <path sodipodi:nodetypes="ccsssccsssc" id="path2227" d="M 220.66942,391.19456 L 227.16917,393.11208 C 227.16917,393.11208 234.20674,394.84353 242.33083,396.84915 C 246.39287,397.85196 251.30983,399.33359 254.8071,400.125 C 258.30437,400.91641 260.60089,401.48409 261.875,401.59375 C 277.30604,402.92189 286.73131,404.87657 298.28552,400.95691 L 300.34911,399.85024 C 289.02565,403.69163 277.4086,402.01908 261.9375,400.6875 C 260.82811,400.59201 258.04965,400.00787 254.5625,399.21875 C 251.07535,398.42963 246.37666,397.40825 242.3179,396.40625 C 234.20038,394.40225 220.66942,391.19456 220.66942,391.19456 z" style="fill:#000000;fill-opacity:0.71204194;fill-rule:evenodd;stroke:none;stroke-width:0.912;stroke-linecap:butt;stroke-linejoin:miter;stroke-miterlimit:4;stroke-dasharray:none;stroke-opacity:1"/>
      <path sodipodi:nodetypes="csssssscsssc" id="path2237" d="M 277.42436,385.0103 C 277.42436,385.0103 259.89953,378.12554 252.07594,374.05728 C 244.25236,369.98901 215.58079,349.66806 210.45446,343.85823 C 191.67786,322.57808 169.92829,275.94951 168.98946,270.31653 C 168.52005,267.50004 162.22893,253.24021 160.22704,247.94107 C 159.56204,246.18076 163.35647,245.43752 168.2071,241.6822 C 177.90835,234.17155 189.8002,245.12458 193.86846,247.94107 C 197.93673,250.75756 219.06041,263.11883 219.06041,263.11883 C 219.06041,263.11883 219.21688,277.51422 222.9722,290.34491 C 226.72752,303.17559 230.63932,321.16983 237.83701,334.93935 C 245.03471,348.70886 261.93366,370.45843 267.87958,372.33609 C 273.82551,374.21375 277.58083,385.16677 277.42436,385.0103 z" style="fill:url(#linearGradient2245);fill-opacity:1;fill-rule:evenodd;stroke:none;stroke-width:0.25pt;stroke-linecap:butt;stroke-linejoin:miter;stroke-opacity:1"/>
      <path sodipodi:nodetypes="ccsccsc" id="path2235" d="M 222.39694,289.10815 L 225.03722,299.52383 C 225.03722,299.52383 231.32888,325.30466 239.625,339.8125 C 250.45851,358.75763 263.4119,369.14496 263.4119,369.14496 L 263.65625,369.15625 C 263.65625,369.15625 251.16444,358.1884 240.40625,339.375 C 232.27723,325.15936 222.39694,289.10815 222.39694,289.10815 z" style="fill:#000000;fill-opacity:0.06806282;fill-rule:evenodd;stroke:none;stroke-width:0.912;stroke-linecap:butt;stroke-linejoin:miter;stroke-miterlimit:4;stroke-dasharray:none;stroke-opacity:1"/>
      <path sodipodi:nodetypes="ccssccssc" id="path2239" d="M 372.28125,287.375 L 371.91754,287.3381 C 371.91754,287.3381 374.44672,296.75048 376.0994,308.40625 C 377.75208,320.06202 377.80409,334.29926 373,344.59375 C 363.2967,365.38653 342.08547,380.00263 342.08547,380.00263 L 345.85504,377.79556 C 345.85504,377.79556 364.13709,366.1973 374,345.0625 C 378.97901,334.3932 378.51033,320.00379 376.84375,308.25 C 375.17717,296.49621 372.28125,287.375 372.28125,287.375 z" style="fill:#000000;fill-opacity:0.20942401;fill-rule:evenodd;stroke:none;stroke-width:1.11199999;stroke-linecap:butt;stroke-linejoin:miter;stroke-miterlimit:4;stroke-dasharray:none;stroke-opacity:1"/>
      <path sodipodi:nodetypes="ccsscsssc" id="path2243" d="M 341.9631,306.48569 L 341.46875,305.96875 C 341.46875,305.96875 345.36171,311.87867 348.96875,319.875 C 352.57579,327.87133 355.85187,337.95771 354.65625,346.15625 C 352.22796,362.8074 344.25,375.65625 344.25,375.65625 C 344.25,375.65625 345.50919,374.50749 348.58771,368.85017 C 350.40298,365.51432 353.193,363.2034 355.65625,346.3125 C 356.90641,337.74001 352.8504,327.54466 349.20746,319.46875 C 345.56452,311.39284 341.9631,306.48569 341.9631,306.48569 z" style="fill:#000000;fill-opacity:0.14659687;fill-rule:evenodd;stroke:none;stroke-width:1.01199996;stroke-linecap:butt;stroke-linejoin:miter;stroke-miterlimit:4;stroke-dasharray:none;stroke-opacity:1"/>
      <path sodipodi:nodetypes="cssccsscc" id="path2247" d="M 399.05121,365.64194 C 399.05121,365.64194 385.08313,377.86019 376.73004,384.125 C 368.31453,390.43663 371.72853,388.97768 355.3125,396.3125 C 339.02383,403.59042 321.125,402.21875 321.125,402.21875 L 321.0625,403.125 C 321.0625,403.125 339.13291,404.52174 355.6875,397.125 C 372.11474,389.78517 368.20697,391.11038 376.5625,384.84375 C 384.98044,378.5303 402.78953,362.48608 402.78953,362.48608 L 399.05121,365.64194 z" style="fill:#000000;fill-opacity:0.54450259;fill-rule:evenodd;stroke:none;stroke-width:0.912;stroke-linecap:butt;stroke-linejoin:miter;stroke-miterlimit:4;stroke-dasharray:none;stroke-opacity:1"/>
      <path sodipodi:nodetypes="cssssccsssc" id="path1423" d="M 451.78125,220.48049 C 451.78125,220.48049 451.09575,231.36431 449.50089,238.78746 C 447.90603,246.21061 446.11189,247.51386 445.40182,250.1731 C 444.34181,254.14283 439.32029,261.89239 436.26883,267.14806 C 427.09561,282.94756 429.04804,278.61625 410.96432,302.93573 C 397.08459,321.60157 369.69569,352.9856 369.69569,352.9856 L 388.25,342.875 C 388.25,342.875 402.52957,324.64126 416.4375,305.9375 C 434.65523,281.4378 443.49791,263.61453 447.78125,251.875 C 449.92292,246.00523 452.81832,236.65793 453.28391,233.7429 C 453.7495,230.82787 451.78125,220.48049 451.78125,220.48049 z" style="fill:url(#linearGradient2160);fill-opacity:1;fill-rule:evenodd;stroke:none;stroke-width:2.91199994;stroke-linecap:butt;stroke-linejoin:miter;stroke-miterlimit:4;stroke-dasharray:none;stroke-opacity:1"/>
      <path sodipodi:nodetypes="cssscsc" id="path2226" d="M 222.16921,251.37643 C 217.00358,262.6506 220.00592,274.31479 220.38502,276.67209 C 220.94952,280.18221 219.22673,289.69381 228.49311,294.32701 C 235.25597,297.70845 236.06882,289.60034 243.01861,281.49224 C 249.96842,273.38415 251.1267,274.54243 251.1267,274.54243 C 251.1267,274.54243 240.702,262.95945 237.2271,259.48455 C 230.27731,252.53474 222.16921,251.37643 222.16921,251.37643 z" style="fill:url(#linearGradient2193);fill-opacity:1;fill-rule:evenodd;stroke:none;stroke-width:0.25pt;stroke-linecap:butt;stroke-linejoin:miter;stroke-opacity:1"/>
      <path sodipodi:nodetypes="ccssscs" id="path2216" d="M 251.91947,273.91537 C 251.58185,273.4832 250.98064,275.16715 250.98064,275.16715 C 250.98064,275.16715 253.95361,295.97789 256.77009,307.55679 C 258.72841,315.60766 267.30689,340.91881 267.41017,340.10291 C 268.8028,329.10132 272.30429,320.36416 272.26079,320.23101 C 266.04089,301.18971 266.62781,287.37194 266.62781,287.37194 C 266.62781,287.37194 258.51351,282.35622 251.91947,273.91537 z" style="fill:url(#linearGradient2225);fill-opacity:1;fill-rule:evenodd;stroke:none;stroke-width:0.25pt;stroke-linecap:butt;stroke-linejoin:miter;stroke-opacity:1"/>
      <path sodipodi:nodetypes="csscscsc" id="path2253" d="M 267.09031,211.70264 C 267.09031,211.70264 271.07343,205.0641 275.05654,201.52355 C 279.03966,197.983 279.9248,197.983 285.6782,197.54043 C 291.43159,197.09787 300.28297,214.80062 300.28297,214.80062 C 300.28297,214.80062 294.69328,215.35094 292.31673,218.78374 C 288.33361,224.53713 289.21875,228.07769 289.21875,228.07769 C 289.21875,228.07769 285.23563,222.32429 278.15453,216.57089 C 273.54621,212.82663 267.09031,211.70264 267.09031,211.70264 z" style="fill:url(#linearGradient2261);fill-opacity:1;fill-rule:evenodd;stroke:none;stroke-width:0.25pt;stroke-linecap:butt;stroke-linejoin:miter;stroke-opacity:1"/>
      <path sodipodi:nodetypes="csssccsscc" id="path2269" d="M 288.8468,245.75047 C 288.8468,245.75047 289.31621,231.82448 289.31621,228.06916 C 289.31621,224.31384 289.9421,216.17731 301.20806,214.92554 C 312.47403,213.67376 322.33174,217.58556 326.08706,227.2868 C 329.84239,236.98805 333.59771,265.4659 333.59771,265.4659 L 330.46827,267.03062 C 330.46827,267.03062 332.3057,262.17685 318.57642,252.32228 C 313.13562,248.41699 303.24219,246.37635 297.60921,246.6893 C 293.35928,246.92541 290.72446,252.32228 290.72446,252.32228 L 288.8468,245.75047 z" style="fill:url(#linearGradient2277);fill-opacity:1;fill-rule:evenodd;stroke:none;stroke-width:0.25pt;stroke-linecap:butt;stroke-linejoin:miter;stroke-opacity:1"/>
      <path sodipodi:nodetypes="cssscccccccsscc" id="path2279" d="M 251.50089,250.15625 C 251.50089,250.15625 250.94157,253.31134 250.46964,256.96875 C 249.99771,260.62616 249.84797,262.83438 248.65536,264.8094 C 247.52347,266.68386 247.18806,266.75 244.34198,265.43528 C 242.57724,264.62007 241.02637,263.30585 241.02637,263.30585 L 250.40625,274.875 L 250.75,275.25 L 251.21875,275.09375 L 252.15625,274.78125 L 252.90625,274.53125 L 252.625,273.78125 C 252.625,273.78125 251.39297,270.72612 250.78125,266.75 C 250.50618,264.96206 250.87684,260.77478 251.34375,257.15625 C 251.81066,253.53772 251.71786,250.40625 251.71786,250.40625 L 251.50089,250.15625 z" style="fill:url(#linearGradient2289);fill-opacity:1;fill-rule:evenodd;stroke:none;stroke-width:1.51199996;stroke-linecap:butt;stroke-linejoin:miter;stroke-miterlimit:4;stroke-dasharray:none;stroke-opacity:1"/>
      <path sodipodi:nodetypes="csccsccsc" id="path2291" d="M 223.51986,251.69639 C 223.51986,251.69639 220.79528,247.1451 221.32925,240.27395 C 221.9118,232.77767 235.88112,240.5869 235.88112,240.5869 L 246.7559,244.65516 C 246.7559,244.65516 252.07594,245.90694 251.60653,250.28814 C 251.13711,254.66935 249.72887,264.52707 249.72887,264.52707 L 241.74881,264.21413 C 241.74881,264.21413 234.15993,256.31231 232.75168,255.68642 C 231.34344,255.06053 228.99637,252.08756 223.51986,251.69639 z" style="fill:url(#linearGradient2299);fill-opacity:1;fill-rule:evenodd;stroke:none;stroke-width:0.25pt;stroke-linecap:butt;stroke-linejoin:miter;stroke-opacity:1"/>
      <path sodipodi:nodetypes="cccscsccs" id="path2301" d="M 269.20959,245.12458 C 269.83548,247.58901 271.08726,249.66226 271.08726,249.66226 L 271.08726,249.58402 C 271.08726,249.58402 271.08726,267.10885 269.36607,267.26533 C 267.64488,267.4218 265.61075,266.17002 265.61075,266.17002 C 265.61075,266.17002 264.82839,259.28527 265.45427,253.33934 C 266.08016,247.39342 268.42724,239.7263 268.42724,239.7263 L 268.58371,239.80454 C 268.58371,239.80454 268.5837,242.66015 269.20959,245.12458 z" style="fill:url(#linearGradient2317);fill-opacity:1;fill-rule:evenodd;stroke:none;stroke-width:0.25pt;stroke-linecap:butt;stroke-linejoin:miter;stroke-opacity:1"/>
      <path style="fill:url(#linearGradient2327);fill-opacity:1;fill-rule:evenodd;stroke:none;stroke-width:0.25pt;stroke-linecap:butt;stroke-linejoin:miter;stroke-opacity:1" d="M 283.00515,246.02354 C 283.56413,248.504 286.1346,242.58116 286.1346,242.58116 L 286.1346,242.50292 C 286.1346,242.50292 285.66518,259.24539 283.94399,259.40187 C 282.2228,259.55834 280.65809,259.71481 280.65809,259.71481 C 280.65809,259.71481 279.40631,258.61951 280.03219,252.67358 C 280.65808,246.72766 281.1275,230.76754 281.1275,230.76754 L 281.75339,236.32229 C 281.75339,236.32229 282.37926,243.24616 283.00515,246.02354 z" id="path2325" sodipodi:nodetypes="cccscsccs"/>
      <path sodipodi:nodetypes="cccscsccs" id="path2329" d="M 287.1179,247.95029 C 287.74379,250.41472 290.56029,244.35144 290.56029,244.35144 L 290.56029,244.2732 C 290.56029,244.2732 290.56029,261.79803 288.8391,261.95451 C 287.11791,262.11098 285.70967,262.26745 285.70967,262.26745 C 285.70967,262.26745 284.30142,253.97445 284.9273,248.02852 C 285.55319,242.0826 283.51906,234.57195 283.51906,234.57195 L 284.92731,239.18787 C 284.92731,239.18787 286.49201,245.48586 287.1179,247.95029 z" style="fill:url(#linearGradient2331);fill-opacity:1;fill-rule:evenodd;stroke:none;stroke-width:0.25pt;stroke-linecap:butt;stroke-linejoin:miter;stroke-opacity:1"/>
      <path style="fill:url(#linearGradient2335);fill-opacity:1;fill-rule:evenodd;stroke:none;stroke-width:0.25pt;stroke-linecap:butt;stroke-linejoin:miter;stroke-opacity:1" d="M 262.88169,254.95315 C 263.50758,257.41758 265.77643,251.43254 265.77643,251.43254 L 265.77643,251.3543 C 265.77643,251.3543 266.40232,265.43675 264.68113,265.59323 C 262.95994,265.7497 259.51756,262.9332 259.51756,262.9332 C 259.51756,262.9332 259.98698,262.62027 260.61286,256.67434 C 261.23875,250.72842 259.43932,248.45957 259.43932,248.45957 L 260.29991,249.71135 C 260.29991,249.71135 262.2558,252.48872 262.88169,254.95315 z" id="path2333" sodipodi:nodetypes="cccscsccs"/>
      <path sodipodi:nodetypes="cccscsccs" id="path2337" d="M 275.71849,255.34433 C 276.34438,257.80876 277.28322,251.43254 277.28322,251.43254 L 277.28322,251.3543 C 277.28322,251.3543 278.45676,260.66436 276.73557,260.82084 C 275.01438,260.97731 271.49377,265.43675 271.49377,265.43675 C 271.49377,265.43675 273.21495,262.93321 273.84083,256.98728 C 274.46672,251.04136 272.4326,250.259 272.4326,250.259 L 274.6232,252.2149 C 274.6232,252.2149 275.0926,252.8799 275.71849,255.34433 z" style="fill:url(#linearGradient2339);fill-opacity:1;fill-rule:evenodd;stroke:none;stroke-width:0.25pt;stroke-linecap:butt;stroke-linejoin:miter;stroke-opacity:1"/>
    </g>
  </g>
  <metadata>
    <rdf:RDF>
      <cc:Work>
        <dc:format>image/svg+xml</dc:format>
        <dc:type rdf:resource="http://purl.org/dc/dcmitype/StillImage"/>
        <cc:license rdf:resource="http://creativecommons.org/licenses/publicdomain/"/>
        <dc:publisher>
          <cc:Agent rdf:about="http://openclipart.org/">
            <dc:title>Open Clip Art Library</dc:title>
          </cc:Agent>
        </dc:publisher>
        <dc:title>Water Lily</dc:title>
        <dc:date>2006-12-15T22:22:20</dc:date>
        <dc:description>A water lily flower.</dc:description>
        <dc:source>http://openclipart.org/detail/2110/water-lily-by-leland_mcinnes</dc:source>
        <dc:creator>
          <cc:Agent>
            <dc:title>leland_mcinnes</dc:title>
          </cc:Agent>
        </dc:creator>
        <dc:subject>
          <rdf:Bag>
            <rdf:li>clip art</rdf:li>
            <rdf:li>clipart</rdf:li>
            <rdf:li>flower</rdf:li>
            <rdf:li>flower</rdf:li>
            <rdf:li>image</rdf:li>
            <rdf:li>lily</rdf:li>
            <rdf:li>lily</rdf:li>
            <rdf:li>media</rdf:li>
            <rdf:li>nature</rdf:li>
            <rdf:li>nature</rdf:li>
            <rdf:li>plant</rdf:li>
            <rdf:li>plant</rdf:li>
            <rdf:li>png</rdf:li>
            <rdf:li>public domain</rdf:li>
            <rdf:li>svg</rdf:li>
            <rdf:li>water lily</rdf:li>
            <rdf:li>water lily</rdf:li>
            <rdf:li>waterlily</rdf:li>
            <rdf:li>waterlily</rdf:li>
          </rdf:Bag>
        </dc:subject>
      </cc:Work>
      <cc:License rdf:about="http://creativecommons.org/licenses/publicdomain/">
        <cc:permits rdf:resource="http://creativecommons.org/ns#Reproduction"/>
        <cc:permits rdf:resource="http://creativecommons.org/ns#Distribution"/>
        <cc:permits rdf:resource="http://creativecommons.org/ns#DerivativeWorks"/>
      </cc:License>
    </rdf:RDF>
  </metadata>
</svg>
