<?xml version="1.0"?>
<svg xmlns:rdf="http://www.w3.org/1999/02/22-rdf-syntax-ns#" xmlns="http://www.w3.org/2000/svg" xmlns:cc="http://creativecommons.org/ns#" xmlns:xlink="http://www.w3.org/1999/xlink" xmlns:dc="http://purl.org/dc/elements/1.1/" id="svg4114" viewBox="0 0 116.21 162.9" version="1.1">
 <defs id="defs4116">
  <filter id="filter3872" width="1.9675" y="-1.0212" x="-.48375" height="3.0425" color-interpolation-filters="sRGB">
   <feGaussianBlur id="feGaussianBlur3874" stdDeviation="50.291308"/>
  </filter>
  <filter id="filter3914" width="1.1385" y="-.13917" x="-.06925" height="1.2783" color-interpolation-filters="sRGB">
   <feGaussianBlur id="feGaussianBlur3916" stdDeviation="3.9950476"/>
  </filter>
  <filter id="filter4858" color-interpolation-filters="sRGB">
   <feGaussianBlur id="feGaussianBlur4860" stdDeviation="0.63548063"/>
  </filter>
  <linearGradient id="linearGradient4957" y2="366.21" gradientUnits="userSpaceOnUse" y1="367.31" x2="1007.9" x1="969.58">
   <stop id="stop3019" stop-color="#2b1100" offset="0"/>
   <stop id="stop3021" stop-color="#d45500" offset="1"/>
  </linearGradient>
  <linearGradient id="linearGradient4959" y2="253.96" gradientUnits="userSpaceOnUse" y1="207.4" x2="245.97" x1="245.97">
   <stop id="stop4330" stop-color="#0b280b" offset="0"/>
   <stop id="stop4332" stop-color="#217821" offset="1"/>
  </linearGradient>
 </defs>
 <g id="layer1" transform="translate(1.4708 -14.878)">
  <g id="g4892" transform="translate(-186.22 -178.89)">
   <rect id="rect3094" ry="20.996" transform="matrix(.23673 0 0 .15745 156.33 205.4)" height="118.19" filter="url(#filter3872)" width="249.51" y="721.87" x="240.75" fill="#333"/>
   <path id="path3918" filter="url(#filter3914)" transform="matrix(.13112 0 0 -.085662 170.34 391.1)" fill="#050" d="m644.36 700.56c0 38.05-30.995 68.895-69.228 68.895-38.234 0-69.228-30.846-69.228-68.895"/>
   <path id="path3890" fill="#0b280b" d="m263.88 300.3c0.16879 0.004 0.33473 0.0164 0.49987 0.0352-5.3027 0.15277-11.578 8.0315-14.681 18.894-1.2394 4.3391-1.8016 8.5608-1.7524 12.264h-3.9081c0.12894-4.2391 1.2553-9.2639 3.4082-14.332 4.2846-10.087 11.201-16.984 16.433-16.861z"/>
   <g id="g3069" transform="matrix(.23673 0 0 .27486 11.038 157.39)">
    <rect id="rect2995" ry="20.496" height="502.86" width="42.857" y="132.36" x="968.57" fill="url(#linearGradient4957)"/>
    <g id="g3033" opacity=".1" transform="matrix(.21154 0 0 1.1793 714.58 -15.209)">
     <path id="path3025" transform="matrix(.92857 0 0 .84979 99.038 48.735)" fill="#d45500" d="m1386.5 320.8c0 70.411-13.719 127.49-30.642 127.49s-30.642-57.079-30.642-127.49 13.719-127.49 30.642-127.49 30.642 57.079 30.642 127.49z"/>
     <path id="path3029" transform="matrix(.72302 0 0 .72302 377.74 89.4)" fill="#f60" d="m1386.5 320.8c0 70.411-13.719 127.49-30.642 127.49s-30.642-57.079-30.642-127.49 13.719-127.49 30.642-127.49 30.642 57.079 30.642 127.49z"/>
     <path id="path3027" transform="matrix(.58929 0 0 .58929 559.07 132.3)" fill="#520" d="m1386.5 320.8c0 70.411-13.719 127.49-30.642 127.49s-30.642-57.079-30.642-127.49 13.719-127.49 30.642-127.49 30.642 57.079 30.642 127.49z"/>
     <path id="path3031" transform="matrix(.44643 0 0 .44643 752.77 178.13)" fill="#ffb380" d="m1386.5 320.8c0 70.411-13.719 127.49-30.642 127.49s-30.642-57.079-30.642-127.49 13.719-127.49 30.642-127.49 30.642 57.079 30.642 127.49z"/>
    </g>
    <g id="g3039" opacity=".1" transform="matrix(.21154 0 0 1.1793 689.41 119.39)">
     <path id="path3041" transform="matrix(.92857 0 0 .84979 99.038 48.735)" fill="#d45500" d="m1386.5 320.8c0 70.411-13.719 127.49-30.642 127.49s-30.642-57.079-30.642-127.49 13.719-127.49 30.642-127.49 30.642 57.079 30.642 127.49z"/>
     <path id="path3043" transform="matrix(.72302 0 0 .72302 377.74 89.4)" fill="#f60" d="m1386.5 320.8c0 70.411-13.719 127.49-30.642 127.49s-30.642-57.079-30.642-127.49 13.719-127.49 30.642-127.49 30.642 57.079 30.642 127.49z"/>
     <path id="path3045" transform="matrix(.58929 0 0 .58929 559.07 132.3)" fill="#520" d="m1386.5 320.8c0 70.411-13.719 127.49-30.642 127.49s-30.642-57.079-30.642-127.49 13.719-127.49 30.642-127.49 30.642 57.079 30.642 127.49z"/>
     <path id="path3047" transform="matrix(.44643 0 0 .44643 752.77 178.13)" fill="#ffb380" d="m1386.5 320.8c0 70.411-13.719 127.49-30.642 127.49s-30.642-57.079-30.642-127.49 13.719-127.49 30.642-127.49 30.642 57.079 30.642 127.49z"/>
    </g>
    <g id="g3049" opacity=".1" transform="matrix(.21154 0 0 1.1793 698.17 -114.79)">
     <path id="path3051" transform="matrix(.92857 0 0 .84979 99.038 48.735)" fill="#d45500" d="m1386.5 320.8c0 70.411-13.719 127.49-30.642 127.49s-30.642-57.079-30.642-127.49 13.719-127.49 30.642-127.49 30.642 57.079 30.642 127.49z"/>
     <path id="path3053" transform="matrix(.72302 0 0 .72302 377.74 89.4)" fill="#f60" d="m1386.5 320.8c0 70.411-13.719 127.49-30.642 127.49s-30.642-57.079-30.642-127.49 13.719-127.49 30.642-127.49 30.642 57.079 30.642 127.49z"/>
     <path id="path3055" transform="matrix(.58929 0 0 .58929 559.07 132.3)" fill="#520" d="m1386.5 320.8c0 70.411-13.719 127.49-30.642 127.49s-30.642-57.079-30.642-127.49 13.719-127.49 30.642-127.49 30.642 57.079 30.642 127.49z"/>
     <path id="path3057" transform="matrix(.44643 0 0 .44643 752.77 178.13)" fill="#ffb380" d="m1386.5 320.8c0 70.411-13.719 127.49-30.642 127.49s-30.642-57.079-30.642-127.49 13.719-127.49 30.642-127.49 30.642 57.079 30.642 127.49z"/>
    </g>
    <g id="g3059" opacity=".1" transform="matrix(.21154 0 0 .63889 714.58 337.37)">
     <path id="path3061" transform="matrix(.92857 0 0 .84979 99.038 48.735)" fill="#d45500" d="m1386.5 320.8c0 70.411-13.719 127.49-30.642 127.49s-30.642-57.079-30.642-127.49 13.719-127.49 30.642-127.49 30.642 57.079 30.642 127.49z"/>
     <path id="path3063" transform="matrix(.72302 0 0 .72302 377.74 89.4)" fill="#f60" d="m1386.5 320.8c0 70.411-13.719 127.49-30.642 127.49s-30.642-57.079-30.642-127.49 13.719-127.49 30.642-127.49 30.642 57.079 30.642 127.49z"/>
     <path id="path3065" transform="matrix(.58929 0 0 .58929 559.07 132.3)" fill="#520" d="m1386.5 320.8c0 70.411-13.719 127.49-30.642 127.49s-30.642-57.079-30.642-127.49 13.719-127.49 30.642-127.49 30.642 57.079 30.642 127.49z"/>
     <path id="path3067" transform="matrix(.44643 0 0 .44643 752.77 178.13)" fill="#ffb380" d="m1386.5 320.8c0 70.411-13.719 127.49-30.642 127.49s-30.642-57.079-30.642-127.49 13.719-127.49 30.642-127.49 30.642 57.079 30.642 127.49z"/>
    </g>
   </g>
   <rect id="rect2985" ry="4.142" height="47.347" width="95.214" y="206.2" x="199.69" fill="url(#linearGradient4959)"/>
   <path id="path3876" fill="#0b280b" d="m222.8 298.88c-0.1688 0.004-0.33474 0.0164-0.49988 0.0352 5.3027 0.15276 11.578 8.0315 14.681 18.894 1.2394 4.3391 1.8016 8.5608 1.7524 12.264h3.9081c-0.12893-4.2391-1.2553-9.2639-3.4082-14.332-4.2846-10.087-11.201-16.984-16.433-16.861z"/>
   <path id="path3884" d="m222.96 310.23c-0.16879 0.003-0.33473 0.0109-0.49987 0.0233 5.3027 0.10106 11.578 5.3132 14.681 12.499 1.2394 2.8705 1.8016 5.6633 1.7524 8.113h3.9081c-0.12893-2.8043-1.2553-6.1285-3.4082-9.4814-4.2846-6.6727-11.201-11.235-16.433-11.154z" fill="#050"/>
   <path id="path3886" fill="#002b00" d="m228.63 311.65c-0.16879 0.003-0.33473 0.0109-0.49987 0.0233 5.3027 0.10106 11.578 5.3132 14.681 12.499 1.2394 2.8705 1.8016 5.6633 1.7524 8.113h3.9081c-0.12893-2.8043-1.2553-6.1285-3.4082-9.4814-4.2846-6.6727-11.201-11.235-16.433-11.154z"/>
   <path id="path3888" d="m268.45 299.83c0.16879 0.004 0.33473 0.0164 0.49987 0.0352-5.3027 0.15276-11.578 8.0315-14.681 18.894-1.2394 4.3391-1.8016 8.5608-1.7524 12.264h-3.9081c0.12893-4.2391 1.2553-9.264 3.4082-14.332 4.2846-10.087 11.201-16.984 16.433-16.861z" fill="#050"/>
   <path id="path3892" d="m267.19 314.64c0.16879 0.002 0.33473 0.009 0.49987 0.0202-5.3027 0.0879-11.578 4.6234-14.681 10.876-1.2394 2.4979-1.8016 4.9281-1.7524 7.0598h-3.9081c0.12893-2.4403 1.2553-5.3329 3.4082-8.2505 4.2846-5.8065 11.201-9.777 16.433-9.706z" fill="#008000"/>
   <path id="path3894" fill="#165016" d="m225.32 314.17c-0.1688 0.002-0.33474 0.009-0.49988 0.0202 5.3027 0.0879 11.578 4.6234 14.681 10.876 1.2394 2.4979 1.8016 4.9281 1.7524 7.0598h3.9081c-0.12893-2.4403-1.2553-5.3329-3.4082-8.2505-4.2846-5.8065-11.201-9.777-16.433-9.706z"/>
   <path id="path3896" d="m234.6 327.09c-0.0563 0.00071-0.11172 0.003-0.16684 0.005 1.7699 0.0239 3.8644 1.256 4.9 2.9546 0.41368 0.67854 0.60131 1.3387 0.5849 1.9178h1.3044c-0.043-0.6629-0.41898-1.4487-1.1376-2.2412-1.4301-1.5773-3.7385-2.6559-5.4849-2.6366z" fill="#1f241c"/>
   <path id="path3898" fill="#008000" d="m249.25 327.25c0.0563 0.00071 0.11172 0.003 0.16684 0.005-1.7699 0.0239-3.8644 1.256-4.9 2.9546-0.41368 0.67854-0.60131 1.3387-0.58489 1.9178h-1.3044c0.043-0.66291 0.41898-1.4487 1.1376-2.2413 1.4301-1.5773 3.7385-2.6559 5.4849-2.6366z"/>
   <path id="path3900" filter="url(#filter3914)" transform="matrix(.13112 0 0 .085662 170.34 270.85)" fill="#050" d="m644.36 700.56c0 38.05-30.995 68.895-69.228 68.895-38.234 0-69.228-30.846-69.228-68.895"/>
   <g id="g3940" transform="matrix(.23673 0 0 .23673 162.55 147.13)">
    <path id="path3932" transform="matrix(.4 0 0 .29412 288.12 190.97)" fill="#b3b3b3" d="m123.43 231.6c0 6.6603-3.97 12.06-8.8673 12.06s-8.8673-5.3992-8.8673-12.06c0-6.6603 3.97-12.06 8.8673-12.06s8.8673 5.3992 8.8673 12.06z"/>
    <rect id="rect3936" ry=".20293" height="5.7631" width=".45739" y="256.14" x="333.71" fill="#fff"/>
    <rect id="rect3938" transform="rotate(90)" ry=".20293" height="5.7631" width=".45739" y="-336.82" x="258.79" fill="#fff"/>
   </g>
   <g id="g3945" transform="matrix(.23673 0 0 .23673 170.41 147)">
    <path id="path3947" transform="matrix(.4 0 0 .29412 288.12 190.97)" fill="#b3b3b3" d="m123.43 231.6c0 6.6603-3.97 12.06-8.8673 12.06s-8.8673-5.3992-8.8673-12.06c0-6.6603 3.97-12.06 8.8673-12.06s8.8673 5.3992 8.8673 12.06z"/>
    <rect id="rect3949" ry=".20293" height="5.7631" width=".45739" y="256.14" x="333.71" fill="#fff"/>
    <rect id="rect3951" ry=".20293" transform="rotate(90)" height="5.7631" width=".45739" y="-336.82" x="258.79" fill="#fff"/>
   </g>
   <g id="g3953" transform="matrix(.23673 0 0 .23673 162.44 188.93)">
    <path id="path3955" transform="matrix(.4 0 0 .29412 288.12 190.97)" fill="#b3b3b3" d="m123.43 231.6c0 6.6603-3.97 12.06-8.8673 12.06s-8.8673-5.3992-8.8673-12.06c0-6.6603 3.97-12.06 8.8673-12.06s8.8673 5.3992 8.8673 12.06z"/>
    <rect id="rect3957" ry=".20293" height="5.7631" width=".45739" y="256.14" x="333.71" fill="#fff"/>
    <rect id="rect3959" transform="rotate(90)" ry=".20293" height="5.7631" width=".45739" y="-336.82" x="258.79" fill="#fff"/>
   </g>
   <g id="g3961" transform="matrix(.23673 0 0 .23673 170.23 188.75)">
    <path id="path3963" transform="matrix(.4 0 0 .29412 288.12 190.97)" fill="#b3b3b3" d="m123.43 231.6c0 6.6603-3.97 12.06-8.8673 12.06s-8.8673-5.3992-8.8673-12.06c0-6.6603 3.97-12.06 8.8673-12.06s8.8673 5.3992 8.8673 12.06z"/>
    <rect id="rect3965" ry=".20293" height="5.7631" width=".45739" y="256.14" x="333.71" fill="#fff"/>
    <rect id="rect3967" ry=".20293" transform="rotate(90)" height="5.7631" width=".45739" y="-336.82" x="258.79" fill="#fff"/>
   </g>
   <g id="g4880" transform="translate(109.9 -6.221)">
    <g id="text4342" filter="url(#filter4858)" transform="matrix(1.0293 0 0 .97151 -109.39 6.7394)">
     <path id="path4872" d="m219.29 223.62c0.0667-0.0556 0.25577-0.30579 0.56716-0.75064 0.20016-0.28911 0.46706-0.43368 0.80069-0.43371 0.0778 0.00003 0.38921 0.0389 0.93413 0.11677 0.1112 0.11123 0.1946 0.34477 0.25022 0.7006l0.90077 5.6549c0.0445 0.30027 0.0667 0.47821 0.0667 0.53379-0.00001 0.21131-0.0584 0.35032-0.17515 0.41702-0.11677 0.0667-0.42537 0.10011-0.92579 0.10009-0.56717 0.00002-0.93415-0.0723-1.101-0.21685-0.16682-0.14455-0.48375-0.74507-0.95081-1.8016-0.98975-2.2352-1.8738-3.3529-2.6523-3.3529-0.55604 0.00002-0.83406 0.38925-0.83405 1.1677-0.00001 0.96752 0.8396 2.8692 2.5188 5.7049 1.9239 3.2695 3.1777 5.6354 3.7616 7.0978 0.58383 1.4624 0.87574 3.0999 0.87575 4.9126-0.00001 2.1463-0.506 3.7922-1.518 4.9376s-2.1518 1.7181-3.4196 1.7181c-0.80069 0-1.5736-0.22798-2.3187-0.68392-0.28914-0.17793-0.51711-0.2669-0.68392-0.2669-0.14457 0-0.26134 0.10565-0.3503 0.31694-0.17793 0.42258-0.61164 0.63388-1.3011 0.63388-0.26689 0-0.4476-0.0417-0.54213-0.12511-0.0945-0.0834-0.16403-0.30304-0.20851-0.6589l-0.83405-5.5548c-0.11121-0.71171-0.16681-1.0898-0.16681-1.1343 0-0.32249 0.2947-0.48374 0.88409-0.48375 0.80069 0.00001 1.2733 0.10566 1.4179 0.31694 0.14456 0.2113 0.35029 0.69505 0.61719 1.4512 0.97862 2.7023 1.9628 4.0535 2.9525 4.0535 0.36697 0 0.66445-0.13345 0.89243-0.40034 0.22797-0.2669 0.34195-0.60052 0.34196-1.0009-0.00001-0.7006-0.253-1.5319-0.75898-2.4938-0.506-0.96193-1.126-2.0323-1.8599-3.2111-1.7571-2.8246-2.9998-5.0794-3.7282-6.7641-0.72841-1.6848-1.0926-3.4057-1.0926-5.1628 0-1.9795 0.43371-3.5586 1.3011-4.7374 0.86741-1.1788 1.9294-1.7682 3.1861-1.7682 0.8674 0.00003 1.9183 0.38925 3.1527 1.1677z"/>
     <path id="path4874" d="m232.27 244.07h-4.1702l-0.18349 1.5346c-0.00001 0.0334-0.0111 0.0834-0.0334 0.15013-0.089 0.3225-0.13346 0.61164-0.13345 0.86741-0.00001 0.40035 0.26133 0.73953 0.784 1.0175 0.27802 0.14457 0.45039 0.2947 0.51711 0.45039 0.0667 0.15569 0.10008 0.41146 0.10009 0.76732-0.00001 0.45595-0.025 0.73119-0.0751 0.82571-0.05 0.0945-0.1696 0.14179-0.35865 0.14179h-4.4038c-0.24465 0-0.36698-0.25578-0.36698-0.76733 0-0.61163 0.19461-1.1065 0.58384-1.4846 0.36698-0.34474 0.57827-0.71172 0.63387-1.101l3.086-19.634c0.0556-0.30023 0.0834-0.56157 0.0834-0.784 0-0.34472-0.2391-0.65054-0.71728-0.91746-0.22242-0.13342-0.33362-0.42812-0.33362-0.88409 0-0.61161 0.0334-0.98971 0.10009-1.1343 0.0667-0.14454 0.24465-0.21682 0.53379-0.21685h6.3721c0.38921 0.00003 0.66166 0.18352 0.81736 0.55047 0.15568 0.36701 0.31137 1.1677 0.46707 2.4021 0.0667 0.47821 0.13344 0.95083 0.20017 1.4179l2.7357 18.332c0.13343 0.88965 0.46149 1.568 0.98417 2.0351 0.14456 0.12233 0.23908 0.21963 0.28358 0.29192 0.0445 0.0723 0.0667 0.29192 0.0667 0.6589-0.00002 0.56715-0.0389 0.91467-0.11677 1.0426-0.0779 0.12789-0.24467 0.19183-0.50043 0.19183h-7.423c-0.22242 0-0.33363-0.21129-0.33362-0.63388-0.00001-0.53379 0.0278-0.86741 0.0834-1.0009 0.0556-0.13344 0.21685-0.28913 0.48375-0.46707 0.38922-0.24465 0.58383-0.55603 0.58384-0.93413-0.00001-0.38922-0.11678-1.2956-0.3503-2.719zm-2.0017-14.879-1.8516 12.961h3.6698z"/>
     <path id="path4876" d="m248.22 247.94h0.95082c0.4893 0 0.85072-0.19461 1.0843-0.58384 0.23353-0.38922 0.53935-1.29 0.91746-2.7023 0.13344-0.5449 0.29469-0.87574 0.48375-0.99252 0.18904-0.11676 0.51154-0.17514 0.9675-0.17515 0.50041 0.00001 0.82291 0.0417 0.96749 0.12511 0.14456 0.0834 0.21684 0.23632 0.21686 0.45873-0.00002 0.15569-0.0278 0.40591-0.0834 0.75064l-0.58383 3.9868c-0.0667 0.41146-0.15293 0.68392-0.25856 0.81737-0.10566 0.13345-0.31973 0.20017-0.64222 0.20017h-10.976c-0.46707 0-0.7006-0.28914-0.7006-0.86741 0-0.44483 0.0306-0.73118 0.0917-0.85907 0.0612-0.12789 0.19184-0.22519 0.39201-0.29192 0.63387-0.20017 0.95081-0.784 0.95081-1.7515v-19.817c0-0.41144-0.20017-0.70614-0.60051-0.88409-0.34474-0.14455-0.55604-0.3058-0.63388-0.48375-0.0778-0.17791-0.11677-0.47261-0.11677-0.8841 0-0.48928 0.0334-0.79232 0.10009-0.90911 0.0667-0.11674 0.24465-0.17512 0.53379-0.17515h7.6899c0.28913 0.00003 0.48652 0.0695 0.59217 0.20851 0.10564 0.13904 0.15846 0.51436 0.15847 1.126-0.00001 0.36701-0.0361 0.61444-0.10842 0.7423-0.0723 0.12792-0.25857 0.2419-0.55882 0.34196-0.55604 0.18908-0.83405 0.55606-0.83405 1.101z"/>
     <path id="path4878" d="m262.16 224.95v9.5248h1.1343c0.31137 0.00001 0.53934-0.0667 0.68392-0.20017 0.14456-0.13344 0.25576-0.42257 0.33362-0.86742 0.13344-0.78955 0.24186-1.2622 0.32528-1.4179 0.0834-0.15567 0.21406-0.23352 0.392-0.23353 0.87852 0.00001 1.3762 0.0362 1.493 0.10842 0.11676 0.0723 0.17514 0.3531 0.17515 0.84239v5.5548c-0.00001 0.34475-0.0556 0.56995-0.16681 0.67558-0.11122 0.10566-0.45596 0.15848-1.0342 0.15847-0.37811 0.00001-0.63111-0.0695-0.75899-0.20851-0.12789-0.139-0.253-0.531-0.37532-1.176-0.12233-0.58938-0.24188-0.9508-0.35864-1.0843-0.11678-0.13344-0.29749-0.20016-0.54213-0.20018h-1.3011v11.493h0.88409c0.54491 0 0.92023-0.15291 1.126-0.45873 0.20572-0.30582 0.53656-1.1871 0.99252-2.6439 0.18904-0.61163 0.38365-1.012 0.58383-1.201 0.20016-0.18904 0.55047-0.28357 1.0509-0.28358 0.68946 0.00001 1.0342 0.22242 1.0342 0.66724-0.00001 0.13346-0.0223 0.32807-0.0667 0.58384l-0.61719 3.7866c-0.11122 0.68949-0.20297 1.1037-0.27524 1.2427-0.0723 0.13901-0.29749 0.20851-0.67558 0.20851h-11.126c-0.27802 0-0.45595-0.0639-0.53379-0.19183-0.0779-0.12789-0.11677-0.49765-0.11677-1.1093 0-0.38922 0.20017-0.6728 0.60052-0.85073 0.61163-0.25577 0.91745-0.60607 0.91745-1.0509v-20.801c-0.0111-0.21127-0.26134-0.42256-0.75064-0.63387-0.33362-0.14455-0.53101-0.28356-0.59218-0.41703-0.0612-0.13342-0.0917-0.45592-0.0917-0.9675 0-0.43368 0.0334-0.69223 0.10008-0.77566 0.0667-0.0834 0.26134-0.12508 0.58384-0.12511h10.642c0.26688 0.00003 0.4615 0.0445 0.58383 0.13345 0.12232 0.089 0.21684 0.30028 0.28358 0.63388l0.85073 4.3037c0.0445 0.22244 0.0667 0.37256 0.0667 0.45039-0.00002 0.30028-0.26691 0.45041-0.80069 0.45038-0.60053 0.00003-1.0009-0.0695-1.201-0.20851-0.20019-0.13898-0.3948-0.48651-0.58384-1.0426-0.34475-1.0008-0.64223-1.6959-0.89243-2.0851-0.25023-0.3892-0.53102-0.58381-0.84239-0.58384z"/>
    </g>
    <g id="text4336" transform="matrix(1.0293 0 0 .97151 -109.39 6.7394)" fill="#dee3db">
     <path id="path4863" d="m219.29 223.62c0.0667-0.0556 0.25577-0.30579 0.56716-0.75064 0.20016-0.28911 0.46706-0.43368 0.80069-0.43371 0.0778 0.00003 0.38921 0.0389 0.93413 0.11677 0.1112 0.11123 0.1946 0.34477 0.25022 0.7006l0.90077 5.6549c0.0445 0.30027 0.0667 0.47821 0.0667 0.53379-0.00001 0.21131-0.0584 0.35032-0.17515 0.41702-0.11677 0.0667-0.42537 0.10011-0.92579 0.10009-0.56717 0.00002-0.93415-0.0723-1.101-0.21685-0.16682-0.14455-0.48375-0.74507-0.95081-1.8016-0.98975-2.2352-1.8738-3.3529-2.6523-3.3529-0.55604 0.00002-0.83406 0.38925-0.83405 1.1677-0.00001 0.96752 0.8396 2.8692 2.5188 5.7049 1.9239 3.2695 3.1777 5.6354 3.7616 7.0978 0.58383 1.4624 0.87574 3.0999 0.87575 4.9126-0.00001 2.1463-0.506 3.7922-1.518 4.9376s-2.1518 1.7181-3.4196 1.7181c-0.80069 0-1.5736-0.22798-2.3187-0.68392-0.28914-0.17793-0.51711-0.2669-0.68392-0.2669-0.14457 0-0.26134 0.10565-0.3503 0.31694-0.17793 0.42258-0.61164 0.63388-1.3011 0.63388-0.26689 0-0.4476-0.0417-0.54213-0.12511-0.0945-0.0834-0.16403-0.30304-0.20851-0.6589l-0.83405-5.5548c-0.11121-0.71171-0.16681-1.0898-0.16681-1.1343 0-0.32249 0.2947-0.48374 0.88409-0.48375 0.80069 0.00001 1.2733 0.10566 1.4179 0.31694 0.14456 0.2113 0.35029 0.69505 0.61719 1.4512 0.97862 2.7023 1.9628 4.0535 2.9525 4.0535 0.36697 0 0.66445-0.13345 0.89243-0.40034 0.22797-0.2669 0.34195-0.60052 0.34196-1.0009-0.00001-0.7006-0.253-1.5319-0.75898-2.4938-0.506-0.96193-1.126-2.0323-1.8599-3.2111-1.7571-2.8246-2.9998-5.0794-3.7282-6.7641-0.72841-1.6848-1.0926-3.4057-1.0926-5.1628 0-1.9795 0.43371-3.5586 1.3011-4.7374 0.86741-1.1788 1.9294-1.7682 3.1861-1.7682 0.8674 0.00003 1.9183 0.38925 3.1527 1.1677z"/>
     <path id="path4865" d="m232.27 244.07h-4.1702l-0.18349 1.5346c-0.00001 0.0334-0.0111 0.0834-0.0334 0.15013-0.089 0.3225-0.13346 0.61164-0.13345 0.86741-0.00001 0.40035 0.26133 0.73953 0.784 1.0175 0.27802 0.14457 0.45039 0.2947 0.51711 0.45039 0.0667 0.15569 0.10008 0.41146 0.10009 0.76732-0.00001 0.45595-0.025 0.73119-0.0751 0.82571-0.05 0.0945-0.1696 0.14179-0.35865 0.14179h-4.4038c-0.24465 0-0.36698-0.25578-0.36698-0.76733 0-0.61163 0.19461-1.1065 0.58384-1.4846 0.36698-0.34474 0.57827-0.71172 0.63387-1.101l3.086-19.634c0.0556-0.30023 0.0834-0.56157 0.0834-0.784 0-0.34472-0.2391-0.65054-0.71728-0.91746-0.22242-0.13342-0.33362-0.42812-0.33362-0.88409 0-0.61161 0.0334-0.98971 0.10009-1.1343 0.0667-0.14454 0.24465-0.21682 0.53379-0.21685h6.3721c0.38921 0.00003 0.66166 0.18352 0.81736 0.55047 0.15568 0.36701 0.31137 1.1677 0.46707 2.4021 0.0667 0.47821 0.13344 0.95083 0.20017 1.4179l2.7357 18.332c0.13343 0.88965 0.46149 1.568 0.98417 2.0351 0.14456 0.12233 0.23908 0.21963 0.28358 0.29192 0.0445 0.0723 0.0667 0.29192 0.0667 0.6589-0.00002 0.56715-0.0389 0.91467-0.11677 1.0426-0.0779 0.12789-0.24467 0.19183-0.50043 0.19183h-7.423c-0.22242 0-0.33363-0.21129-0.33362-0.63388-0.00001-0.53379 0.0278-0.86741 0.0834-1.0009 0.0556-0.13344 0.21685-0.28913 0.48375-0.46707 0.38922-0.24465 0.58383-0.55603 0.58384-0.93413-0.00001-0.38922-0.11678-1.2956-0.3503-2.719zm-2.0017-14.879-1.8516 12.961h3.6698z"/>
     <path id="path4867" d="m248.22 247.94h0.95082c0.4893 0 0.85072-0.19461 1.0843-0.58384 0.23353-0.38922 0.53935-1.29 0.91746-2.7023 0.13344-0.5449 0.29469-0.87574 0.48375-0.99252 0.18904-0.11676 0.51154-0.17514 0.9675-0.17515 0.50041 0.00001 0.82291 0.0417 0.96749 0.12511 0.14456 0.0834 0.21684 0.23632 0.21686 0.45873-0.00002 0.15569-0.0278 0.40591-0.0834 0.75064l-0.58383 3.9868c-0.0667 0.41146-0.15293 0.68392-0.25856 0.81737-0.10566 0.13345-0.31973 0.20017-0.64222 0.20017h-10.976c-0.46707 0-0.7006-0.28914-0.7006-0.86741 0-0.44483 0.0306-0.73118 0.0917-0.85907 0.0612-0.12789 0.19184-0.22519 0.39201-0.29192 0.63387-0.20017 0.95081-0.784 0.95081-1.7515v-19.817c0-0.41144-0.20017-0.70614-0.60051-0.88409-0.34474-0.14455-0.55604-0.3058-0.63388-0.48375-0.0778-0.17791-0.11677-0.47261-0.11677-0.8841 0-0.48928 0.0334-0.79232 0.10009-0.90911 0.0667-0.11674 0.24465-0.17512 0.53379-0.17515h7.6899c0.28913 0.00003 0.48652 0.0695 0.59217 0.20851 0.10564 0.13904 0.15846 0.51436 0.15847 1.126-0.00001 0.36701-0.0361 0.61444-0.10842 0.7423-0.0723 0.12792-0.25857 0.2419-0.55882 0.34196-0.55604 0.18908-0.83405 0.55606-0.83405 1.101z"/>
     <path id="path4869" d="m262.16 224.95v9.5248h1.1343c0.31137 0.00001 0.53934-0.0667 0.68392-0.20017 0.14456-0.13344 0.25576-0.42257 0.33362-0.86742 0.13344-0.78955 0.24186-1.2622 0.32528-1.4179 0.0834-0.15567 0.21406-0.23352 0.392-0.23353 0.87852 0.00001 1.3762 0.0362 1.493 0.10842 0.11676 0.0723 0.17514 0.3531 0.17515 0.84239v5.5548c-0.00001 0.34475-0.0556 0.56995-0.16681 0.67558-0.11122 0.10566-0.45596 0.15848-1.0342 0.15847-0.37811 0.00001-0.63111-0.0695-0.75899-0.20851-0.12789-0.139-0.253-0.531-0.37532-1.176-0.12233-0.58938-0.24188-0.9508-0.35864-1.0843-0.11678-0.13344-0.29749-0.20016-0.54213-0.20018h-1.3011v11.493h0.88409c0.54491 0 0.92023-0.15291 1.126-0.45873 0.20572-0.30582 0.53656-1.1871 0.99252-2.6439 0.18904-0.61163 0.38365-1.012 0.58383-1.201 0.20016-0.18904 0.55047-0.28357 1.0509-0.28358 0.68946 0.00001 1.0342 0.22242 1.0342 0.66724-0.00001 0.13346-0.0223 0.32807-0.0667 0.58384l-0.61719 3.7866c-0.11122 0.68949-0.20297 1.1037-0.27524 1.2427-0.0723 0.13901-0.29749 0.20851-0.67558 0.20851h-11.126c-0.27802 0-0.45595-0.0639-0.53379-0.19183-0.0779-0.12789-0.11677-0.49765-0.11677-1.1093 0-0.38922 0.20017-0.6728 0.60052-0.85073 0.61163-0.25577 0.91745-0.60607 0.91745-1.0509v-20.801c-0.0111-0.21127-0.26134-0.42256-0.75064-0.63387-0.33362-0.14455-0.53101-0.28356-0.59218-0.41703-0.0612-0.13342-0.0917-0.45592-0.0917-0.9675 0-0.43368 0.0334-0.69223 0.10008-0.77566 0.0667-0.0834 0.26134-0.12508 0.58384-0.12511h10.642c0.26688 0.00003 0.4615 0.0445 0.58383 0.13345 0.12232 0.089 0.21684 0.30028 0.28358 0.63388l0.85073 4.3037c0.0445 0.22244 0.0667 0.37256 0.0667 0.45039-0.00002 0.30028-0.26691 0.45041-0.80069 0.45038-0.60053 0.00003-1.0009-0.0695-1.201-0.20851-0.20019-0.13898-0.3948-0.48651-0.58384-1.0426-0.34475-1.0008-0.64223-1.6959-0.89243-2.0851-0.25023-0.3892-0.53102-0.58381-0.84239-0.58384z"/>
    </g>
   </g>
   <rect id="rect4340" ry="3.814" height="33.418" width="80.706" stroke="#008000" y="213.6" x="207.09" stroke-width=".94089" fill="none"/>
  </g>
 </g>
 <metadata>
  <rdf:RDF>
   <cc:Work>
    <dc:format>image/svg+xml</dc:format>
    <dc:type rdf:resource="http://purl.org/dc/dcmitype/StillImage"/>
    <cc:license rdf:resource="http://creativecommons.org/licenses/publicdomain/"/>
    <dc:publisher>
     <cc:Agent rdf:about="http://openclipart.org/">
      <dc:title>Openclipart</dc:title>
     </cc:Agent>
    </dc:publisher>
   </cc:Work>
   <cc:License rdf:about="http://creativecommons.org/licenses/publicdomain/">
    <cc:permits rdf:resource="http://creativecommons.org/ns#Reproduction"/>
    <cc:permits rdf:resource="http://creativecommons.org/ns#Distribution"/>
    <cc:permits rdf:resource="http://creativecommons.org/ns#DerivativeWorks"/>
   </cc:License>
  </rdf:RDF>
 </metadata>
</svg>
